{
copyright = "Copyright (c) 2015, Cadson Demak (info@cadsondemak.com)";
customParameters = (
{
name = vendorID;
value = CDK;
},
{
name = description;
value = "Copyright (c) 2015, Cadson Demak (info@cadsondemak.com)";
},
{
name = license;

glyphs = (
{
glyphname = A;
lastChange = "2015-12-01 13:13:42 +0000";
layers = (
{
layerId = "48F9CBD8-FA9F-4F3E-B644-8148CA6A9069";
name = Bold;
paths = (
{
closed = 1;
nodes = (
"259 0 LINE",
"259 44 LINE",
"237 44 LINE SMOOTH",
"214 44 OFFCURVE",
"185 57 OFFCURVE",
"199 94 CURVE SMOOTH",
"362 525 LINE",
"520 93 LINE SMOOTH",
"532 60 OFFCURVE",
"523 44 OFFCURVE",
"487 44 CURVE SMOOTH",
"465 44 LINE",
"465 0 LINE",
"804 0 LINE",
"804 44 LINE",
"781 44 LINE SMOOTH",
"760 44 OFFCURVE",
"739 52 OFFCURVE",
"728 79 CURVE SMOOTH",
"465 725 LINE",
"327 678 LINE",
"89 82 LINE SMOOTH",
"78 55 OFFCURVE",
"47 44 OFFCURVE",
"21 44 CURVE SMOOTH",
"4 44 LINE",
"4 0 LINE"
);
},
{
closed = 1;
nodes = (
"542 181 LINE",
"542 244 LINE",
"202 244 LINE",
"202 181 LINE"
);
}
);
width = 808;
}
);
leftKerningGroup = A;
note = A;
rightKerningGroup = A;
unicode = 0041;
},
{
glyphname = Aacute;
lastChange = "2015-12-01 13:13:40 +0000";
layers = (
{
layerId = "48F9CBD8-FA9F-4F3E-B644-8148CA6A9069";
name = Bold;
paths = (
{
closed = 1;
nodes = (
"259 0 LINE",
"259 44 LINE",
"237 44 LINE SMOOTH",
"214 44 OFFCURVE",
"185 57 OFFCURVE",
"199 94 CURVE SMOOTH",
"362 525 LINE",
"520 93 LINE SMOOTH",
"532 60 OFFCURVE",
"523 44 OFFCURVE",
"487 44 CURVE SMOOTH",
"465 44 LINE",
"465 0 LINE",
"804 0 LINE",
"804 44 LINE",
"781 44 LINE SMOOTH",
"760 44 OFFCURVE",
"739 52 OFFCURVE",
"728 79 CURVE SMOOTH",
"465 725 LINE",
"327 678 LINE",
"89 82 LINE SMOOTH",
"78 55 OFFCURVE",
"47 44 OFFCURVE",
"21 44 CURVE SMOOTH",
"4 44 LINE",
"4 0 LINE"
);
},
{
closed = 1;
nodes = (
"542 181 LINE",
"542 244 LINE",
"202 244 LINE",
"202 181 LINE"
);
},
{
closed = 1;
nodes = (
"478 872 LINE SMOOTH",
"514 893 OFFCURVE",
"535 914 OFFCURVE",
"535 941 CURVE SMOOTH",
"535 964 OFFCURVE",
"518 991 OFFCURVE",
"476 991 CURVE SMOOTH",
"439 991 OFFCURVE",
"411 960 OFFCURVE",
"405 952 CURVE",
"280 820 LINE",
"312 775 LINE"
);
}
);
width = 808;
}
);
leftKerningGroup = A;
note = Aacute;
rightKerningGroup = A;
unicode = 00C1;
},
{
glyphname = Abreve;
lastChange = "2015-12-01 13:13:40 +0000";
layers = (
{
layerId = "48F9CBD8-FA9F-4F3E-B644-8148CA6A9069";
name = Bold;
paths = (
{
closed = 1;
nodes = (
"259 0 LINE",
"259 44 LINE",
"237 44 LINE SMOOTH",
"214 44 OFFCURVE",
"185 57 OFFCURVE",
"199 94 CURVE SMOOTH",
"362 525 LINE",
"520 93 LINE SMOOTH",
"532 60 OFFCURVE",
"523 44 OFFCURVE",
"487 44 CURVE SMOOTH",
"465 44 LINE",
"465 0 LINE",
"804 0 LINE",
"804 44 LINE",
"781 44 LINE SMOOTH",
"760 44 OFFCURVE",
"739 52 OFFCURVE",
"728 79 CURVE SMOOTH",
"465 725 LINE",
"327 678 LINE",
"89 82 LINE SMOOTH",
"78 55 OFFCURVE",
"47 44 OFFCURVE",
"21 44 CURVE SMOOTH",
"4 44 LINE",
"4 0 LINE"
);
},
{
closed = 1;
nodes = (
"542 181 LINE",
"542 244 LINE",
"202 244 LINE",
"202 181 LINE"
);
},
{
closed = 1;
nodes = (
"544 777 OFFCURVE",
"573 860 OFFCURVE",
"573 931 CURVE",
"530 931 LINE",
"527 900 OFFCURVE",
"504 852 OFFCURVE",
"406 852 CURVE SMOOTH",
"309 852 OFFCURVE",
"283 900 OFFCURVE",
"280 931 CURVE",
"237 931 LINE",
"238 855 OFFCURVE",
"267 777 OFFCURVE",
"406 777 CURVE SMOOTH"
);
}
);
width = 808;
}
);
leftKerningGroup = A;
note = Abreve;
rightKerningGroup = A;
unicode = 0102;
},
{
glyphname = Abreveacute;
lastChange = "2015-12-01 13:13:41 +0000";
layers = (
{
layerId = "48F9CBD8-FA9F-4F3E-B644-8148CA6A9069";
name = Bold;
paths = (
{
closed = 1;
nodes = (
"259 0 LINE",
"259 44 LINE",
"237 44 LINE SMOOTH",
"214 44 OFFCURVE",
"185 57 OFFCURVE",
"199 94 CURVE SMOOTH",
"362 525 LINE",
"520 93 LINE SMOOTH",
"532 60 OFFCURVE",
"523 44 OFFCURVE",
"487 44 CURVE SMOOTH",
"465 44 LINE",
"465 0 LINE",
"804 0 LINE",
"804 44 LINE",
"781 44 LINE SMOOTH",
"760 44 OFFCURVE",
"739 52 OFFCURVE",
"728 79 CURVE SMOOTH",
"465 725 LINE",
"327 678 LINE",
"89 82 LINE SMOOTH",
"78 55 OFFCURVE",
"47 44 OFFCURVE",
"21 44 CURVE SMOOTH",
"4 44 LINE",
"4 0 LINE"
);
},
{
closed = 1;
nodes = (
"542 181 LINE",
"542 244 LINE",
"202 244 LINE",
"202 181 LINE"
);
},
{
closed = 1;
nodes = (
"544 776 OFFCURVE",
"572 859 OFFCURVE",
"573 930 CURVE",
"530 930 LINE",
"527 899 OFFCURVE",
"502 851 OFFCURVE",
"405 851 CURVE SMOOTH",
"307 851 OFFCURVE",
"282 899 OFFCURVE",
"280 930 CURVE",
"237 930 LINE",
"238 853 OFFCURVE",
"266 776 OFFCURVE",
"405 776 CURVE SMOOTH"
);
},
{
closed = 1;
nodes = (
"508 974 LINE SMOOTH",
"545 992 OFFCURVE",
"576 1018 OFFCURVE",
"576 1047 CURVE SMOOTH",
"576 1071 OFFCURVE",
"557 1100 OFFCURVE",
"518 1100 CURVE SMOOTH",
"483 1100 OFFCURVE",
"456 1071 OFFCURVE",
"441 1052 CURVE SMOOTH",
"364 958 LINE",
"394 919 LINE"
);
}
);
width = 808;
}
);
leftKerningGroup = A;
note = Abreveacute;
rightKerningGroup = A;
unicode = 1EAE;
},
{
glyphname = Abrevedotbelow;
lastChange = "2015-12-01 13:13:42 +0000";
layers = (
{
layerId = "48F9CBD8-FA9F-4F3E-B644-8148CA6A9069";
name = Bold;
paths = (
{
closed = 1;
nodes = (
"259 0 LINE",
"259 44 LINE",
"237 44 LINE SMOOTH",
"214 44 OFFCURVE",
"185 57 OFFCURVE",
"199 94 CURVE SMOOTH",
"362 525 LINE",
"520 93 LINE SMOOTH",
"532 60 OFFCURVE",
"523 44 OFFCURVE",
"487 44 CURVE SMOOTH",
"465 44 LINE",
"465 0 LINE",
"804 0 LINE",
"804 44 LINE",
"781 44 LINE SMOOTH",
"760 44 OFFCURVE",
"739 52 OFFCURVE",
"728 79 CURVE SMOOTH",
"465 725 LINE",
"327 678 LINE",
"89 82 LINE SMOOTH",
"78 55 OFFCURVE",
"47 44 OFFCURVE",
"21 44 CURVE SMOOTH",
"4 44 LINE",
"4 0 LINE"
);
},
{
closed = 1;
nodes = (
"445 -205 OFFCURVE",
"472 -174 OFFCURVE",
"472 -135 CURVE SMOOTH",
"472 -96 OFFCURVE",
"445 -64 OFFCURVE",
"402 -64 CURVE SMOOTH",
"359 -64 OFFCURVE",
"332 -96 OFFCURVE",
"332 -135 CURVE SMOOTH",
"332 -174 OFFCURVE",
"359 -205 OFFCURVE",
"402 -205 CURVE SMOOTH"
);
},
{
closed = 1;
nodes = (
"542 181 LINE",
"542 244 LINE",
"202 244 LINE",
"202 181 LINE"
);
},
{
closed = 1;
nodes = (
"543 776 OFFCURVE",
"572 859 OFFCURVE",
"572 930 CURVE",
"529 930 LINE",
"526 899 OFFCURVE",
"503 851 OFFCURVE",
"405 851 CURVE SMOOTH",
"308 851 OFFCURVE",
"282 899 OFFCURVE",
"279 930 CURVE",
"236 930 LINE",
"237 854 OFFCURVE",
"266 776 OFFCURVE",
"405 776 CURVE SMOOTH"
);
}
);
width = 808;
}
);
leftKerningGroup = A;
note = Abrevedotbelow;
rightKerningGroup = A;
unicode = 1EB6;
},
{
glyphname = Abrevegrave;
lastChange = "2015-12-01 13:13:41 +0000";
layers = (
{
layerId = "48F9CBD8-FA9F-4F3E-B644-8148CA6A9069";
name = Bold;
paths = (
{
closed = 1;
nodes = (
"259 0 LINE",
"259 44 LINE",
"237 44 LINE SMOOTH",
"214 44 OFFCURVE",
"185 57 OFFCURVE",
"199 94 CURVE SMOOTH",
"362 525 LINE",
"520 93 LINE SMOOTH",
"532 60 OFFCURVE",
"523 44 OFFCURVE",
"487 44 CURVE SMOOTH",
"465 44 LINE",
"465 0 LINE",
"804 0 LINE",
"804 44 LINE",
"781 44 LINE SMOOTH",
"760 44 OFFCURVE",
"739 52 OFFCURVE",
"728 79 CURVE SMOOTH",
"465 725 LINE",
"327 678 LINE",
"89 82 LINE SMOOTH",
"78 55 OFFCURVE",
"47 44 OFFCURVE",
"21 44 CURVE SMOOTH",
"4 44 LINE",
"4 0 LINE"
);
},
{
closed = 1;
nodes = (
"542 181 LINE",
"542 244 LINE",
"202 244 LINE",
"202 181 LINE"
);
},
{
closed = 1;
nodes = (
"544 776 OFFCURVE",
"572 859 OFFCURVE",
"573 930 CURVE",
"530 930 LINE",
"527 899 OFFCURVE",
"502 851 OFFCURVE",
"405 851 CURVE SMOOTH",
"307 851 OFFCURVE",
"282 899 OFFCURVE",
"280 930 CURVE",
"237 930 LINE",
"238 853 OFFCURVE",
"266 776 OFFCURVE",
"405 776 CURVE SMOOTH"
);
},
{
closed = 1;
nodes = (
"446 956 LINE",
"363 1054 LINE SMOOTH",
"348 1071 OFFCURVE",
"323 1100 OFFCURVE",
"291 1100 CURVE SMOOTH",
"248 1100 OFFCURVE",
"233 1067 OFFCURVE",
"233 1046 CURVE SMOOTH",
"233 1019 OFFCURVE",
"257 995 OFFCURVE",
"296 976 CURVE SMOOTH",
"415 917 LINE"
);
}
);
width = 808;
}
);
leftKerningGroup = A;
note = Abrevegrave;
rightKerningGroup = A;
unicode = 1EB0;
},
{
glyphname = Abrevehookabove;
lastChange = "2015-12-01 13:13:43 +0000";
layers = (
{
layerId = "48F9CBD8-FA9F-4F3E-B644-8148CA6A9069";
name = Bold;
paths = (
{
closed = 1;
nodes = (
"259 0 LINE",
"259 44 LINE",
"237 44 LINE SMOOTH",
"214 44 OFFCURVE",
"185 57 OFFCURVE",
"199 94 CURVE SMOOTH",
"362 525 LINE",
"520 93 LINE SMOOTH",
"532 60 OFFCURVE",
"523 44 OFFCURVE",
"487 44 CURVE SMOOTH",
"465 44 LINE",
"465 0 LINE",
"804 0 LINE",
"804 44 LINE",
"781 44 LINE SMOOTH",
"760 44 OFFCURVE",
"739 52 OFFCURVE",
"728 79 CURVE SMOOTH",
"465 725 LINE",
"327 678 LINE",
"89 82 LINE SMOOTH",
"78 55 OFFCURVE",
"47 44 OFFCURVE",
"21 44 CURVE SMOOTH",
"4 44 LINE",
"4 0 LINE"
);
},
{
closed = 1;
nodes = (
"542 181 LINE",
"542 244 LINE",
"202 244 LINE",
"202 181 LINE"
);
},
{
closed = 1;
nodes = (
"544 776 OFFCURVE",
"572 859 OFFCURVE",
"573 930 CURVE",
"530 930 LINE",
"527 899 OFFCURVE",
"502 851 OFFCURVE",
"405 851 CURVE SMOOTH",
"307 851 OFFCURVE",
"282 899 OFFCURVE",
"280 930 CURVE",
"237 930 LINE",
"238 853 OFFCURVE",
"266 776 OFFCURVE",
"405 776 CURVE SMOOTH"
);
},
{
closed = 1;
nodes = (
"444 940 LINE",
"431 942 OFFCURVE",
"418 945 OFFCURVE",
"418 965 CURVE SMOOTH",
"418 1004 OFFCURVE",
"518 1011 OFFCURVE",
"518 1069 CURVE SMOOTH",
"518 1113 OFFCURVE",
"468 1134 OFFCURVE",
"414 1134 CURVE SMOOTH",
"343 1134 OFFCURVE",
"314 1103 OFFCURVE",
"314 1081 CURVE SMOOTH",
"314 1059 OFFCURVE",
"331 1050 OFFCURVE",
"346 1050 CURVE SMOOTH",
"362 1050 OFFCURVE",
"376 1059 OFFCURVE",
"377 1074 CURVE SMOOTH",
"379 1097 OFFCURVE",
"397 1106 OFFCURVE",
"414 1106 CURVE SMOOTH",
"434 1106 OFFCURVE",
"443 1090 OFFCURVE",
"443 1076 CURVE SMOOTH",
"443 1022 OFFCURVE",
"360 1012 OFFCURVE",
"360 965 CURVE SMOOTH",
"360 936 OFFCURVE",
"394 918 OFFCURVE",
"436 918 CURVE"
);
}
);
width = 808;
}
);
leftKerningGroup = A;
note = Abrevehookabove;
rightKerningGroup = A;
unicode = 1EB2;
},
{
glyphname = Abrevetilde;
lastChange = "2015-12-01 13:13:43 +0000";
layers = (
{
layerId = "48F9CBD8-FA9F-4F3E-B644-8148CA6A9069";
name = Bold;
paths = (
{
closed = 1;
nodes = (
"259 0 LINE",
"259 44 LINE",
"237 44 LINE SMOOTH",
"214 44 OFFCURVE",
"185 57 OFFCURVE",
"199 94 CURVE SMOOTH",
"362 525 LINE",
"520 93 LINE SMOOTH",
"532 60 OFFCURVE",
"523 44 OFFCURVE",
"487 44 CURVE SMOOTH",
"465 44 LINE",
"465 0 LINE",
"804 0 LINE",
"804 44 LINE",
"781 44 LINE SMOOTH",
"760 44 OFFCURVE",
"739 52 OFFCURVE",
"728 79 CURVE SMOOTH",
"465 725 LINE",
"327 678 LINE",
"89 82 LINE SMOOTH",
"78 55 OFFCURVE",
"47 44 OFFCURVE",
"21 44 CURVE SMOOTH",
"4 44 LINE",
"4 0 LINE"
);
},
{
closed = 1;
nodes = (
"542 181 LINE",
"542 244 LINE",
"202 244 LINE",
"202 181 LINE"
);
},
{
closed = 1;
nodes = (
"544 776 OFFCURVE",
"572 859 OFFCURVE",
"573 930 CURVE",
"530 930 LINE",
"527 899 OFFCURVE",
"502 851 OFFCURVE",
"405 851 CURVE SMOOTH",
"307 851 OFFCURVE",
"282 899 OFFCURVE",
"280 930 CURVE",
"237 930 LINE",
"238 853 OFFCURVE",
"266 776 OFFCURVE",
"405 776 CURVE SMOOTH"
);
},
{
closed = 1;
nodes = (
"267 1021 OFFCURVE",
"281 1038 OFFCURVE",
"313 1038 CURVE SMOOTH",
"366 1038 OFFCURVE",
"414 992 OFFCURVE",
"466 992 CURVE SMOOTH",
"532 992 OFFCURVE",
"562 1068 OFFCURVE",
"576 1114 CURVE",
"550 1131 LINE",
"532 1091 OFFCURVE",
"519 1073 OFFCURVE",
"487 1073 CURVE SMOOTH",
"434 1073 OFFCURVE",
"386 1119 OFFCURVE",
"334 1119 CURVE SMOOTH",
"268 1119 OFFCURVE",
"238 1044 OFFCURVE",
"223 998 CURVE",
"250 981 LINE"
);
}
);
width = 808;
}
);
leftKerningGroup = A;
note = Abrevetilde;
rightKerningGroup = A;
unicode = 1EB4;
},
{
glyphname = Acaron;
lastChange = "2015-12-01 13:13:42 +0000";
layers = (
{
layerId = "48F9CBD8-FA9F-4F3E-B644-8148CA6A9069";
name = Bold;
paths = (
{
closed = 1;
nodes = (
"259 0 LINE",
"259 44 LINE",
"237 44 LINE SMOOTH",
"214 44 OFFCURVE",
"185 57 OFFCURVE",
"199 94 CURVE SMOOTH",
"362 525 LINE",
"520 93 LINE SMOOTH",
"532 60 OFFCURVE",
"523 44 OFFCURVE",
"487 44 CURVE SMOOTH",
"465 44 LINE",
"465 0 LINE",
"804 0 LINE",
"804 44 LINE",
"781 44 LINE SMOOTH",
"760 44 OFFCURVE",
"739 52 OFFCURVE",
"728 79 CURVE SMOOTH",
"465 725 LINE",
"327 678 LINE",
"89 82 LINE SMOOTH",
"78 55 OFFCURVE",
"47 44 OFFCURVE",
"21 44 CURVE SMOOTH",
"4 44 LINE",
"4 0 LINE"
);
},
{
closed = 1;
nodes = (
"542 181 LINE",
"542 244 LINE",
"202 244 LINE",
"202 181 LINE"
);
},
{
closed = 1;
nodes = (
"451 776 LINE",
"609 950 LINE",
"581 978 LINE",
"447 878 LINE SMOOTH",
"432 866 OFFCURVE",
"418 859 OFFCURVE",
"407 859 CURVE SMOOTH",
"396 859 OFFCURVE",
"382 866 OFFCURVE",
"367 878 CURVE",
"232 978 LINE",
"205 950 LINE",
"363 776 LINE"
);
}
);
width = 808;
}
);
leftKerningGroup = A;
note = Acaron;
rightKerningGroup = A;
unicode = 01CD;
},
{
glyphname = Acircumflex;
lastChange = "2015-12-01 13:13:42 +0000";
layers = (
{
layerId = "48F9CBD8-FA9F-4F3E-B644-8148CA6A9069";
name = Bold;
paths = (
{
closed = 1;
nodes = (
"259 0 LINE",
"259 44 LINE",
"237 44 LINE SMOOTH",
"214 44 OFFCURVE",
"185 57 OFFCURVE",
"199 94 CURVE SMOOTH",
"362 525 LINE",
"520 93 LINE SMOOTH",
"532 60 OFFCURVE",
"523 44 OFFCURVE",
"487 44 CURVE SMOOTH",
"465 44 LINE",
"465 0 LINE",
"804 0 LINE",
"804 44 LINE",
"781 44 LINE SMOOTH",
"760 44 OFFCURVE",
"739 52 OFFCURVE",
"728 79 CURVE SMOOTH",
"465 725 LINE",
"327 678 LINE",
"89 82 LINE SMOOTH",
"78 55 OFFCURVE",
"47 44 OFFCURVE",
"21 44 CURVE SMOOTH",
"4 44 LINE",
"4 0 LINE"
);
},
{
closed = 1;
nodes = (
"542 181 LINE",
"542 244 LINE",
"202 244 LINE",
"202 181 LINE"
);
},
{
closed = 1;
nodes = (
"367 876 LINE",
"382 888 OFFCURVE",
"396 895 OFFCURVE",
"407 895 CURVE SMOOTH",
"418 895 OFFCURVE",
"432 888 OFFCURVE",
"447 876 CURVE SMOOTH",
"581 776 LINE",
"609 804 LINE",
"451 978 LINE",
"363 978 LINE",
"205 804 LINE",
"232 776 LINE"
);
}
);
width = 808;
}
);
leftKerningGroup = A;
note = Acircumflex;
rightKerningGroup = A;
unicode = 00C2;
},
{
glyphname = Acircumflexacute;
lastChange = "2015-12-01 13:13:42 +0000";
layers = (
{
layerId = "48F9CBD8-FA9F-4F3E-B644-8148CA6A9069";
name = Bold;
paths = (
{
closed = 1;
nodes = (
"259 0 LINE",
"259 44 LINE",
"237 44 LINE SMOOTH",
"214 44 OFFCURVE",
"185 57 OFFCURVE",
"199 94 CURVE SMOOTH",
"362 525 LINE",
"520 93 LINE SMOOTH",
"532 60 OFFCURVE",
"523 44 OFFCURVE",
"487 44 CURVE SMOOTH",
"465 44 LINE",
"465 0 LINE",
"804 0 LINE",
"804 44 LINE",
"781 44 LINE SMOOTH",
"760 44 OFFCURVE",
"739 52 OFFCURVE",
"728 79 CURVE SMOOTH",
"465 725 LINE",
"327 678 LINE",
"89 82 LINE SMOOTH",
"78 55 OFFCURVE",
"47 44 OFFCURVE",
"21 44 CURVE SMOOTH",
"4 44 LINE",
"4 0 LINE"
);
},
{
closed = 1;
nodes = (
"542 181 LINE",
"542 244 LINE",
"202 244 LINE",
"202 181 LINE"
);
},
{
closed = 1;
nodes = (
"371 873 LINE SMOOTH",
"386 885 OFFCURVE",
"400 894 OFFCURVE",
"411 894 CURVE SMOOTH",
"422 894 OFFCURVE",
"436 885 OFFCURVE",
"451 873 CURVE SMOOTH",
"580 775 LINE",
"605 804 LINE",
"455 978 LINE",
"367 978 LINE",
"217 804 LINE",
"242 775 LINE"
);
},
{
closed = 1;
nodes = (
"671 969 LINE SMOOTH",
"708 987 OFFCURVE",
"739 1013 OFFCURVE",
"739 1042 CURVE SMOOTH",
"739 1066 OFFCURVE",
"720 1095 OFFCURVE",
"681 1095 CURVE SMOOTH",
"646 1095 OFFCURVE",
"619 1066 OFFCURVE",
"604 1047 CURVE SMOOTH",
"527 953 LINE",
"557 914 LINE"
);
}
);
width = 808;
}
);
leftKerningGroup = A;
note = Acircumflexacute;
rightKerningGroup = A;
unicode = 1EA4;
},
{
glyphname = Acircumflexdotbelow;
lastChange = "2015-12-01 13:13:41 +0000";
layers = (
{
layerId = "48F9CBD8-FA9F-4F3E-B644-8148CA6A9069";
name = Bold;
paths = (
{
closed = 1;
nodes = (
"259 0 LINE",
"259 44 LINE",
"237 44 LINE SMOOTH",
"214 44 OFFCURVE",
"185 57 OFFCURVE",
"199 94 CURVE SMOOTH",
"362 525 LINE",
"520 93 LINE SMOOTH",
"532 60 OFFCURVE",
"523 44 OFFCURVE",
"487 44 CURVE SMOOTH",
"465 44 LINE",
"465 0 LINE",
"804 0 LINE",
"804 44 LINE",
"781 44 LINE SMOOTH",
"760 44 OFFCURVE",
"739 52 OFFCURVE",
"728 79 CURVE SMOOTH",
"465 725 LINE",
"327 678 LINE",
"89 82 LINE SMOOTH",
"78 55 OFFCURVE",
"47 44 OFFCURVE",
"21 44 CURVE SMOOTH",
"4 44 LINE",
"4 0 LINE"
);
},
{
closed = 1;
nodes = (
"454 -205 OFFCURVE",
"481 -174 OFFCURVE",
"481 -135 CURVE SMOOTH",
"481 -96 OFFCURVE",
"454 -64 OFFCURVE",
"411 -64 CURVE SMOOTH",
"368 -64 OFFCURVE",
"341 -96 OFFCURVE",
"341 -135 CURVE SMOOTH",
"341 -174 OFFCURVE",
"368 -205 OFFCURVE",
"411 -205 CURVE SMOOTH"
);
},
{
closed = 1;
nodes = (
"542 181 LINE",
"542 244 LINE",
"202 244 LINE",
"202 181 LINE"
);
},
{
closed = 1;
nodes = (
"369 875 LINE",
"384 887 OFFCURVE",
"398 894 OFFCURVE",
"409 894 CURVE SMOOTH",
"420 894 OFFCURVE",
"434 887 OFFCURVE",
"449 875 CURVE SMOOTH",
"583 775 LINE",
"611 803 LINE",
"453 977 LINE",
"365 977 LINE",
"207 803 LINE",
"234 775 LINE"
);
}
);
width = 808;
}
);
leftKerningGroup = A;
note = Acircumflexdotbelow;
rightKerningGroup = A;
unicode = 1EAC;
},
{
glyphname = Acircumflexgrave;
lastChange = "2015-12-01 13:13:42 +0000";
layers = (
{
layerId = "48F9CBD8-FA9F-4F3E-B644-8148CA6A9069";
name = Bold;
paths = (
{
closed = 1;
nodes = (
"259 0 LINE",
"259 44 LINE",
"237 44 LINE SMOOTH",
"214 44 OFFCURVE",
"185 57 OFFCURVE",
"199 94 CURVE SMOOTH",
"362 525 LINE",
"520 93 LINE SMOOTH",
"532 60 OFFCURVE",
"523 44 OFFCURVE",
"487 44 CURVE SMOOTH",
"465 44 LINE",
"465 0 LINE",
"804 0 LINE",
"804 44 LINE",
"781 44 LINE SMOOTH",
"760 44 OFFCURVE",
"739 52 OFFCURVE",
"728 79 CURVE SMOOTH",
"465 725 LINE",
"327 678 LINE",
"89 82 LINE SMOOTH",
"78 55 OFFCURVE",
"47 44 OFFCURVE",
"21 44 CURVE SMOOTH",
"4 44 LINE",
"4 0 LINE"
);
},
{
closed = 1;
nodes = (
"542 181 LINE",
"542 244 LINE",
"202 244 LINE",
"202 181 LINE"
);
},
{
closed = 1;
nodes = (
"296 953 LINE",
"214 1051 LINE SMOOTH",
"200 1068 OFFCURVE",
"175 1096 OFFCURVE",
"142 1096 CURVE SMOOTH",
"100 1096 OFFCURVE",
"84 1064 OFFCURVE",
"84 1043 CURVE SMOOTH",
"84 1016 OFFCURVE",
"108 992 OFFCURVE",
"147 973 CURVE SMOOTH",
"266 914 LINE"
);
},
{
closed = 1;
nodes = (
"371 873 LINE SMOOTH",
"386 885 OFFCURVE",
"400 894 OFFCURVE",
"411 894 CURVE SMOOTH",
"422 894 OFFCURVE",
"436 885 OFFCURVE",
"451 873 CURVE SMOOTH",
"580 775 LINE",
"605 804 LINE",
"455 978 LINE",
"367 978 LINE",
"217 804 LINE",
"242 775 LINE"
);
}
);
width = 808;
}
);
leftKerningGroup = A;
note = Acircumflexgrave;
rightKerningGroup = A;
unicode = 1EA6;
},
{
glyphname = Acircumflexhookabove;
lastChange = "2015-12-01 13:13:43 +0000";
layers = (
{
layerId = "48F9CBD8-FA9F-4F3E-B644-8148CA6A9069";
name = Bold;
paths = (
{
closed = 1;
nodes = (
"259 0 LINE",
"259 44 LINE",
"237 44 LINE SMOOTH",
"214 44 OFFCURVE",
"185 57 OFFCURVE",
"199 94 CURVE SMOOTH",
"362 525 LINE",
"520 93 LINE SMOOTH",
"532 60 OFFCURVE",
"523 44 OFFCURVE",
"487 44 CURVE SMOOTH",
"465 44 LINE",
"465 0 LINE",
"804 0 LINE",
"804 44 LINE",
"781 44 LINE SMOOTH",
"760 44 OFFCURVE",
"739 52 OFFCURVE",
"728 79 CURVE SMOOTH",
"465 725 LINE",
"327 678 LINE",
"89 82 LINE SMOOTH",
"78 55 OFFCURVE",
"47 44 OFFCURVE",
"21 44 CURVE SMOOTH",
"4 44 LINE",
"4 0 LINE"
);
},
{
closed = 1;
nodes = (
"542 181 LINE",
"542 244 LINE",
"202 244 LINE",
"202 181 LINE"
);
},
{
closed = 1;
nodes = (
"371 873 LINE SMOOTH",
"386 885 OFFCURVE",
"400 894 OFFCURVE",
"411 894 CURVE SMOOTH",
"422 894 OFFCURVE",
"436 885 OFFCURVE",
"451 873 CURVE SMOOTH",
"580 775 LINE",
"605 804 LINE",
"455 978 LINE",
"367 978 LINE",
"217 804 LINE",
"242 775 LINE"
);
},
{
closed = 1;
nodes = (
"617 936 LINE",
"604 938 OFFCURVE",
"591 941 OFFCURVE",
"591 960 CURVE SMOOTH",
"591 1000 OFFCURVE",
"691 1007 OFFCURVE",
"691 1065 CURVE SMOOTH",
"691 1109 OFFCURVE",
"641 1130 OFFCURVE",
"587 1130 CURVE SMOOTH",
"516 1130 OFFCURVE",
"487 1099 OFFCURVE",
"487 1076 CURVE SMOOTH",
"487 1055 OFFCURVE",
"503 1045 OFFCURVE",
"519 1045 CURVE SMOOTH",
"560 1045 OFFCURVE",
"542 1101 OFFCURVE",
"587 1101 CURVE SMOOTH",
"607 1101 OFFCURVE",
"616 1085 OFFCURVE",
"616 1072 CURVE SMOOTH",
"616 1018 OFFCURVE",
"533 1007 OFFCURVE",
"533 961 CURVE SMOOTH",
"533 931 OFFCURVE",
"566 914 OFFCURVE",
"609 914 CURVE"
);
}
);
width = 808;
}
);
leftKerningGroup = A;
note = Acircumflexhookabove;
rightKerningGroup = A;
unicode = 1EA8;
},
{
glyphname = Acircumflextilde;
lastChange = "2015-12-01 13:13:42 +0000";
layers = (
{
layerId = "48F9CBD8-FA9F-4F3E-B644-8148CA6A9069";
name = Bold;
paths = (
{
closed = 1;
nodes = (
"259 0 LINE",
"259 44 LINE",
"237 44 LINE SMOOTH",
"214 44 OFFCURVE",
"185 57 OFFCURVE",
"199 94 CURVE SMOOTH",
"362 525 LINE",
"520 93 LINE SMOOTH",
"532 60 OFFCURVE",
"523 44 OFFCURVE",
"487 44 CURVE SMOOTH",
"465 44 LINE",
"465 0 LINE",
"804 0 LINE",
"804 44 LINE",
"781 44 LINE SMOOTH",
"760 44 OFFCURVE",
"739 52 OFFCURVE",
"728 79 CURVE SMOOTH",
"465 725 LINE",
"327 678 LINE",
"89 82 LINE SMOOTH",
"78 55 OFFCURVE",
"47 44 OFFCURVE",
"21 44 CURVE SMOOTH",
"4 44 LINE",
"4 0 LINE"
);
},
{
closed = 1;
nodes = (
"542 181 LINE",
"542 244 LINE",
"202 244 LINE",
"202 181 LINE"
);
},
{
closed = 1;
nodes = (
"371 873 LINE SMOOTH",
"386 885 OFFCURVE",
"400 894 OFFCURVE",
"411 894 CURVE SMOOTH",
"422 894 OFFCURVE",
"436 885 OFFCURVE",
"451 873 CURVE SMOOTH",
"580 775 LINE",
"605 804 LINE",
"455 978 LINE",
"367 978 LINE",
"217 804 LINE",
"242 775 LINE"
);
},
{
closed = 1;
nodes = (
"266 1033 OFFCURVE",
"282 1051 OFFCURVE",
"316 1051 CURVE SMOOTH",
"374 1051 OFFCURVE",
"426 1005 OFFCURVE",
"482 1005 CURVE SMOOTH",
"553 1005 OFFCURVE",
"586 1081 OFFCURVE",
"602 1126 CURVE",
"573 1144 LINE",
"554 1103 OFFCURVE",
"540 1086 OFFCURVE",
"505 1086 CURVE SMOOTH",
"448 1086 OFFCURVE",
"395 1131 OFFCURVE",
"339 1131 CURVE SMOOTH",
"267 1131 OFFCURVE",
"235 1056 OFFCURVE",
"219 1011 CURVE",
"248 993 LINE"
);
}
);
width = 808;
}
);
leftKerningGroup = A;
note = Acircumflextilde;
rightKerningGroup = A;
unicode = 1EAA;
},
{
glyphname = Adieresis;
lastChange = "2015-12-01 13:13:43 +0000";
layers = (
{
layerId = "48F9CBD8-FA9F-4F3E-B644-8148CA6A9069";
name = Bold;
paths = (
{
closed = 1;
nodes = (
"259 0 LINE",
"259 44 LINE",
"237 44 LINE SMOOTH",
"214 44 OFFCURVE",
"185 57 OFFCURVE",
"199 94 CURVE SMOOTH",
"362 525 LINE",
"520 93 LINE SMOOTH",
"532 60 OFFCURVE",
"523 44 OFFCURVE",
"487 44 CURVE SMOOTH",
"465 44 LINE",
"465 0 LINE",
"804 0 LINE",
"804 44 LINE",
"781 44 LINE SMOOTH",
"760 44 OFFCURVE",
"739 52 OFFCURVE",
"728 79 CURVE SMOOTH",
"465 725 LINE",
"327 678 LINE",
"89 82 LINE SMOOTH",
"78 55 OFFCURVE",
"47 44 OFFCURVE",
"21 44 CURVE SMOOTH",
"4 44 LINE",
"4 0 LINE"
);
},
{
closed = 1;
nodes = (
"542 181 LINE",
"542 244 LINE",
"202 244 LINE",
"202 181 LINE"
);
},
{
closed = 1;
nodes = (
"311 776 OFFCURVE",
"338 806 OFFCURVE",
"338 845 CURVE SMOOTH",
"338 885 OFFCURVE",
"311 916 OFFCURVE",
"267 916 CURVE SMOOTH",
"224 916 OFFCURVE",
"198 885 OFFCURVE",
"198 845 CURVE SMOOTH",
"198 806 OFFCURVE",
"224 776 OFFCURVE",
"267 776 CURVE SMOOTH"
);
},
{
closed = 1;
nodes = (
"553 776 OFFCURVE",
"580 806 OFFCURVE",
"580 845 CURVE SMOOTH",
"580 885 OFFCURVE",
"553 916 OFFCURVE",
"510 916 CURVE SMOOTH",
"465 916 OFFCURVE",
"439 885 OFFCURVE",
"439 845 CURVE SMOOTH",
"439 806 OFFCURVE",
"465 776 OFFCURVE",
"510 776 CURVE SMOOTH"
);
}
);
width = 808;
}
);
leftKerningGroup = A;
note = Adieresis;
rightKerningGroup = A;
unicode = 00C4;
},
{
glyphname = Adotbelow;
lastChange = "2015-12-01 13:13:42 +0000";
layers = (
{
layerId = "48F9CBD8-FA9F-4F3E-B644-8148CA6A9069";
name = Bold;
paths = (
{
closed = 1;
nodes = (
"259 0 LINE",
"259 44 LINE",
"237 44 LINE SMOOTH",
"214 44 OFFCURVE",
"185 57 OFFCURVE",
"199 94 CURVE SMOOTH",
"362 525 LINE",
"520 93 LINE SMOOTH",
"532 60 OFFCURVE",
"523 44 OFFCURVE",
"487 44 CURVE SMOOTH",
"465 44 LINE",
"465 0 LINE",
"804 0 LINE",
"804 44 LINE",
"781 44 LINE SMOOTH",
"760 44 OFFCURVE",
"739 52 OFFCURVE",
"728 79 CURVE SMOOTH",
"465 725 LINE",
"327 678 LINE",
"89 82 LINE SMOOTH",
"78 55 OFFCURVE",
"47 44 OFFCURVE",
"21 44 CURVE SMOOTH",
"4 44 LINE",
"4 0 LINE"
);
},
{
closed = 1;
nodes = (
"451 -205 OFFCURVE",
"478 -174 OFFCURVE",
"478 -135 CURVE SMOOTH",
"478 -96 OFFCURVE",
"451 -64 OFFCURVE",
"408 -64 CURVE SMOOTH",
"365 -64 OFFCURVE",
"338 -96 OFFCURVE",
"338 -135 CURVE SMOOTH",
"338 -174 OFFCURVE",
"365 -205 OFFCURVE",
"408 -205 CURVE SMOOTH"
);
},
{
closed = 1;
nodes = (
"542 181 LINE",
"542 244 LINE",
"202 244 LINE",
"202 181 LINE"
);
}
);
width = 808;
}
);
leftKerningGroup = A;
note = Adotbelow;
rightKerningGroup = A;
unicode = 1EA0;
},
{
glyphname = Agrave;
lastChange = "2015-12-01 13:13:41 +0000";
layers = (
{
layerId = "48F9CBD8-FA9F-4F3E-B644-8148CA6A9069";
name = Bold;
paths = (
{
closed = 1;
nodes = (
"259 0 LINE",
"259 44 LINE",
"237 44 LINE SMOOTH",
"214 44 OFFCURVE",
"185 57 OFFCURVE",
"199 94 CURVE SMOOTH",
"362 525 LINE",
"520 93 LINE SMOOTH",
"532 60 OFFCURVE",
"523 44 OFFCURVE",
"487 44 CURVE SMOOTH",
"465 44 LINE",
"465 0 LINE",
"804 0 LINE",
"804 44 LINE",
"781 44 LINE SMOOTH",
"760 44 OFFCURVE",
"739 52 OFFCURVE",
"728 79 CURVE SMOOTH",
"465 725 LINE",
"327 678 LINE",
"89 82 LINE SMOOTH",
"78 55 OFFCURVE",
"47 44 OFFCURVE",
"21 44 CURVE SMOOTH",
"4 44 LINE",
"4 0 LINE"
);
},
{
closed = 1;
nodes = (
"542 181 LINE",
"542 244 LINE",
"202 244 LINE",
"202 181 LINE"
);
},
{
closed = 1;
nodes = (
"536 820 LINE",
"412 952 LINE",
"405 960 OFFCURVE",
"377 991 OFFCURVE",
"340 991 CURVE SMOOTH",
"298 991 OFFCURVE",
"282 964 OFFCURVE",
"282 942 CURVE SMOOTH",
"282 914 OFFCURVE",
"302 893 OFFCURVE",
"337 872 CURVE SMOOTH",
"504 775 LINE"
);
}
);
width = 808;
}
);
leftKerningGroup = A;
note = Agrave;
rightKerningGroup = A;
unicode = 00C0;
},
{
glyphname = Ahookabove;
lastChange = "2015-12-01 13:13:43 +0000";
layers = (
{
layerId = "48F9CBD8-FA9F-4F3E-B644-8148CA6A9069";
name = Bold;
paths = (
{
closed = 1;
nodes = (
"259 0 LINE",
"259 44 LINE",
"237 44 LINE SMOOTH",
"214 44 OFFCURVE",
"185 57 OFFCURVE",
"199 94 CURVE SMOOTH",
"362 525 LINE",
"520 93 LINE SMOOTH",
"532 60 OFFCURVE",
"523 44 OFFCURVE",
"487 44 CURVE SMOOTH",
"465 44 LINE",
"465 0 LINE",
"804 0 LINE",
"804 44 LINE",
"781 44 LINE SMOOTH",
"760 44 OFFCURVE",
"739 52 OFFCURVE",
"728 79 CURVE SMOOTH",
"465 725 LINE",
"327 678 LINE",
"89 82 LINE SMOOTH",
"78 55 OFFCURVE",
"47 44 OFFCURVE",
"21 44 CURVE SMOOTH",
"4 44 LINE",
"4 0 LINE"
);
},
{
closed = 1;
nodes = (
"542 181 LINE",
"542 244 LINE",
"202 244 LINE",
"202 181 LINE"
);
},
{
closed = 1;
nodes = (
"464 801 LINE",
"450 803 OFFCURVE",
"434 807 OFFCURVE",
"434 828 CURVE SMOOTH",
"434 874 OFFCURVE",
"549 882 OFFCURVE",
"549 950 CURVE SMOOTH",
"549 1001 OFFCURVE",
"494 1026 OFFCURVE",
"431 1026 CURVE SMOOTH",
"345 1026 OFFCURVE",
"315 989 OFFCURVE",
"315 962 CURVE SMOOTH",
"315 937 OFFCURVE",
"333 926 OFFCURVE",
"351 926 CURVE SMOOTH",
"373 926 OFFCURVE",
"387 941 OFFCURVE",
"388 957 CURVE SMOOTH",
"389 984 OFFCURVE",
"413 991 OFFCURVE",
"430 991 CURVE SMOOTH",
"452 991 OFFCURVE",
"463 974 OFFCURVE",
"463 957 CURVE SMOOTH",
"463 895 OFFCURVE",
"368 883 OFFCURVE",
"368 830 CURVE SMOOTH",
"368 796 OFFCURVE",
"406 776 OFFCURVE",
"455 776 CURVE"
);
}
);
width = 808;
}
);
leftKerningGroup = A;
note = Ahookabove;
rightKerningGroup = A;
unicode = 1EA2;
},
{
glyphname = Amacron;
lastChange = "2015-12-01 13:13:41 +0000";
layers = (
{
layerId = "48F9CBD8-FA9F-4F3E-B644-8148CA6A9069";
name = Bold;
paths = (
{
closed = 1;
nodes = (
"259 0 LINE",
"259 44 LINE",
"237 44 LINE SMOOTH",
"214 44 OFFCURVE",
"185 57 OFFCURVE",
"199 94 CURVE SMOOTH",
"362 525 LINE",
"520 93 LINE SMOOTH",
"532 60 OFFCURVE",
"523 44 OFFCURVE",
"487 44 CURVE SMOOTH",
"465 44 LINE",
"465 0 LINE",
"804 0 LINE",
"804 44 LINE",
"781 44 LINE SMOOTH",
"760 44 OFFCURVE",
"739 52 OFFCURVE",
"728 79 CURVE SMOOTH",
"465 725 LINE",
"327 678 LINE",
"89 82 LINE SMOOTH",
"78 55 OFFCURVE",
"47 44 OFFCURVE",
"21 44 CURVE SMOOTH",
"4 44 LINE",
"4 0 LINE"
);
},
{
closed = 1;
nodes = (
"542 181 LINE",
"542 244 LINE",
"202 244 LINE",
"202 181 LINE"
);
},
{
closed = 1;
nodes = (
"615 776 LINE",
"615 845 LINE",
"205 845 LINE",
"205 776 LINE"
);
}
);
width = 808;
}
);
leftKerningGroup = A;
note = Amacron;
rightKerningGroup = A;
unicode = 0100;
},
{
glyphname = Aogonek;
lastChange = "2015-12-01 13:13:42 +0000";
layers = (
{
layerId = "48F9CBD8-FA9F-4F3E-B644-8148CA6A9069";
name = Bold;
paths = (
{
closed = 1;
nodes = (
"259 0 LINE",
"259 44 LINE",
"237 44 LINE SMOOTH",
"214 44 OFFCURVE",
"185 57 OFFCURVE",
"199 94 CURVE SMOOTH",
"362 525 LINE",
"520 93 LINE SMOOTH",
"532 60 OFFCURVE",
"523 44 OFFCURVE",
"487 44 CURVE SMOOTH",
"465 44 LINE",
"465 0 LINE",
"804 0 LINE",
"804 44 LINE",
"781 44 LINE SMOOTH",
"760 44 OFFCURVE",
"739 52 OFFCURVE",
"728 79 CURVE SMOOTH",
"465 725 LINE",
"327 678 LINE",
"89 82 LINE SMOOTH",
"78 55 OFFCURVE",
"47 44 OFFCURVE",
"21 44 CURVE SMOOTH",
"4 44 LINE",
"4 0 LINE"
);
},
{
closed = 1;
nodes = (
"542 181 LINE",
"542 244 LINE",
"202 244 LINE",
"202 181 LINE"
);
},
{
closed = 1;
nodes = (
"765 -234 OFFCURVE",
"806 -221 OFFCURVE",
"842 -192 CURVE",
"828 -166 LINE",
"814 -173 OFFCURVE",
"793 -179 OFFCURVE",
"778 -179 CURVE SMOOTH",
"744 -179 OFFCURVE",
"719 -159 OFFCURVE",
"718 -117 CURVE",
"718 -76 OFFCURVE",
"741 -32 OFFCURVE",
"795 11 CURVE",
"733 11 LINE",
"668 -23 OFFCURVE",
"613 -76 OFFCURVE",
"613 -135 CURVE SMOOTH",
"613 -172 OFFCURVE",
"634 -234 OFFCURVE",
"734 -234 CURVE SMOOTH"
);
}
);
width = 808;
}
);
leftKerningGroup = A;
note = Aogonek;
rightKerningGroup = A;
unicode = 0104;
},
{
glyphname = Aring;
lastChange = "2015-12-01 13:13:42 +0000";
layers = (
{
layerId = "48F9CBD8-FA9F-4F3E-B644-8148CA6A9069";
name = Bold;
paths = (
{
closed = 1;
nodes = (
"259 0 LINE",
"259 44 LINE",
"237 44 LINE SMOOTH",
"214 44 OFFCURVE",
"185 57 OFFCURVE",
"199 94 CURVE SMOOTH",
"362 525 LINE",
"520 93 LINE SMOOTH",
"532 60 OFFCURVE",
"523 44 OFFCURVE",
"487 44 CURVE SMOOTH",
"465 44 LINE",
"465 0 LINE",
"804 0 LINE",
"804 44 LINE",
"781 44 LINE SMOOTH",
"760 44 OFFCURVE",
"739 52 OFFCURVE",
"728 79 CURVE SMOOTH",
"465 725 LINE",
"327 678 LINE",
"89 82 LINE SMOOTH",
"78 55 OFFCURVE",
"47 44 OFFCURVE",
"21 44 CURVE SMOOTH",
"4 44 LINE",
"4 0 LINE"
);
},
{
closed = 1;
nodes = (
"542 181 LINE",
"542 244 LINE",
"202 244 LINE",
"202 181 LINE"
);
},
{
closed = 1;
nodes = (
"475 741 OFFCURVE",
"521 785 OFFCURVE",
"521 850 CURVE SMOOTH",
"521 915 OFFCURVE",
"475 959 OFFCURVE",
"405 959 CURVE SMOOTH",
"335 959 OFFCURVE",
"288 915 OFFCURVE",
"288 850 CURVE SMOOTH",
"288 785 OFFCURVE",
"335 741 OFFCURVE",
"405 741 CURVE SMOOTH"
);
},
{
closed = 1;
nodes = (
"376 798 OFFCURVE",
"352 819 OFFCURVE",
"352 850 CURVE SMOOTH",
"352 881 OFFCURVE",
"376 901 OFFCURVE",
"405 901 CURVE SMOOTH",
"434 901 OFFCURVE",
"458 881 OFFCURVE",
"458 850 CURVE SMOOTH",
"458 819 OFFCURVE",
"434 798 OFFCURVE",
"405 798 CURVE SMOOTH"
);
}
);
width = 808;
}
);
leftKerningGroup = A;
note = Aring;
rightKerningGroup = A;
unicode = 00C5;
},
{
glyphname = Aringacute;
lastChange = "2015-12-01 13:13:41 +0000";
layers = (
{
layerId = "48F9CBD8-FA9F-4F3E-B644-8148CA6A9069";
name = Bold;
paths = (
{
closed = 1;
nodes = (
"259 0 LINE",
"259 44 LINE",
"237 44 LINE SMOOTH",
"214 44 OFFCURVE",
"185 57 OFFCURVE",
"199 94 CURVE SMOOTH",
"362 525 LINE",
"520 93 LINE SMOOTH",
"532 60 OFFCURVE",
"523 44 OFFCURVE",
"487 44 CURVE SMOOTH",
"465 44 LINE",
"465 0 LINE",
"804 0 LINE",
"804 44 LINE",
"781 44 LINE SMOOTH",
"760 44 OFFCURVE",
"739 52 OFFCURVE",
"728 79 CURVE SMOOTH",
"465 725 LINE",
"327 678 LINE",
"89 82 LINE SMOOTH",
"78 55 OFFCURVE",
"47 44 OFFCURVE",
"21 44 CURVE SMOOTH",
"4 44 LINE",
"4 0 LINE"
);
},
{
closed = 1;
nodes = (
"542 181 LINE",
"542 244 LINE",
"202 244 LINE",
"202 181 LINE"
);
},
{
closed = 1;
nodes = (
"475 741 OFFCURVE",
"521 785 OFFCURVE",
"521 850 CURVE SMOOTH",
"521 915 OFFCURVE",
"475 959 OFFCURVE",
"405 959 CURVE SMOOTH",
"335 959 OFFCURVE",
"288 915 OFFCURVE",
"288 850 CURVE SMOOTH",
"288 785 OFFCURVE",
"335 741 OFFCURVE",
"405 741 CURVE SMOOTH"
);
},
{
closed = 1;
nodes = (
"376 798 OFFCURVE",
"352 819 OFFCURVE",
"352 850 CURVE SMOOTH",
"352 881 OFFCURVE",
"376 901 OFFCURVE",
"405 901 CURVE SMOOTH",
"434 901 OFFCURVE",
"458 881 OFFCURVE",
"458 850 CURVE SMOOTH",
"458 819 OFFCURVE",
"434 798 OFFCURVE",
"405 798 CURVE SMOOTH"
);
},
{
closed = 1;
nodes = (
"478 1075 LINE SMOOTH",
"514 1096 OFFCURVE",
"535 1117 OFFCURVE",
"535 1144 CURVE SMOOTH",
"535 1167 OFFCURVE",
"518 1194 OFFCURVE",
"476 1194 CURVE SMOOTH",
"439 1194 OFFCURVE",
"411 1163 OFFCURVE",
"405 1155 CURVE",
"280 1023 LINE",
"312 978 LINE"
);
}
);
width = 808;
}
);
leftKerningGroup = A;
note = Aringacute;
rightKerningGroup = A;
unicode = 01FA;
},
{
glyphname = Atilde;
lastChange = "2015-12-01 13:13:41 +0000";
layers = (
{
layerId = "48F9CBD8-FA9F-4F3E-B644-8148CA6A9069";
name = Bold;
paths = (
{
closed = 1;
nodes = (
"259 0 LINE",
"259 44 LINE",
"237 44 LINE SMOOTH",
"214 44 OFFCURVE",
"185 57 OFFCURVE",
"199 94 CURVE SMOOTH",
"362 525 LINE",
"520 93 LINE SMOOTH",
"532 60 OFFCURVE",
"523 44 OFFCURVE",
"487 44 CURVE SMOOTH",
"465 44 LINE",
"465 0 LINE",
"804 0 LINE",
"804 44 LINE",
"781 44 LINE SMOOTH",
"760 44 OFFCURVE",
"739 52 OFFCURVE",
"728 79 CURVE SMOOTH",
"465 725 LINE",
"327 678 LINE",
"89 82 LINE SMOOTH",
"78 55 OFFCURVE",
"47 44 OFFCURVE",
"21 44 CURVE SMOOTH",
"4 44 LINE",
"4 0 LINE"
);
},
{
closed = 1;
nodes = (
"542 181 LINE",
"542 244 LINE",
"202 244 LINE",
"202 181 LINE"
);
},
{
closed = 1;
nodes = (
"258 812 OFFCURVE",
"275 829 OFFCURVE",
"312 829 CURVE SMOOTH",
"376 829 OFFCURVE",
"433 783 OFFCURVE",
"495 783 CURVE SMOOTH",
"574 783 OFFCURVE",
"610 859 OFFCURVE",
"627 905 CURVE",
"596 922 LINE",
"574 882 OFFCURVE",
"558 864 OFFCURVE",
"520 864 CURVE SMOOTH",
"457 864 OFFCURVE",
"400 910 OFFCURVE",
"338 910 CURVE SMOOTH",
"259 910 OFFCURVE",
"223 835 OFFCURVE",
"205 789 CURVE",
"237 772 LINE"
);
}
);
width = 808;
}
);
leftKerningGroup = A;
note = Atilde;
rightKerningGroup = A;
unicode = 00C3;
},
{
glyphname = AE;
lastChange = "2015-12-01 13:13:43 +0000";
layers = (
{
layerId = "48F9CBD8-FA9F-4F3E-B644-8148CA6A9069";
name = Bold;
paths = (
{
closed = 1;
nodes = (
"271 0 LINE",
"271 44 LINE",
"248 44 LINE SMOOTH",
"238 44 OFFCURVE",
"204 52 OFFCURVE",
"204 74 CURVE SMOOTH",
"204 79 OFFCURVE",
"206 85 OFFCURVE",
"210 92 CURVE SMOOTH",
"259 181 LINE",
"475 181 LINE",
"475 83 LINE SMOOTH",
"475 57 OFFCURVE",
"458 44 OFFCURVE",
"421 44 CURVE SMOOTH",
"391 44 LINE",
"391 0 LINE",
"996 0 LINE",
"1017 198 LINE",
"973 198 LINE",
"962 127 OFFCURVE",
"941 62 OFFCURVE",
"869 62 CURVE SMOOTH",
"661 62 LINE",
"661 331 LINE",
"790 331 LINE SMOOTH",
"835 331 OFFCURVE",
"840 286 OFFCURVE",
"844 242 CURVE",
"880 242 LINE",
"880 483 LINE",
"844 483 LINE",
"840 439 OFFCURVE",
"835 394 OFFCURVE",
"790 394 CURVE SMOOTH",
"661 394 LINE",
"661 637 LINE",
"837 637 LINE SMOOTH",
"937 637 OFFCURVE",
"949 542 OFFCURVE",
"953 502 CURVE",
"997 502 LINE",
"997 700 LINE",
"375 700 LINE",
"375 656 LINE",
"408 656 LINE SMOOTH",
"420 656 OFFCURVE",
"424 649 OFFCURVE",
"424 641 CURVE SMOOTH",
"424 636 OFFCURVE",
"422 630 OFFCURVE",
"420 626 CURVE",
"103 87 LINE SMOOTH",
"88 61 OFFCURVE",
"62 44 OFFCURVE",
"32 44 CURVE SMOOTH",
"16 44 LINE",
"16 0 LINE"
);
},
{
closed = 1;
nodes = (
"475 556 LINE",
"475 244 LINE",
"295 244 LINE"
);
}
);
width = 1048;
}
);
leftKerningGroup = A;
note = AE;
unicode = 00C6;
},
{
glyphname = AEacute;
lastChange = "2015-12-01 13:13:41 +0000";
layers = (
{
layerId = "48F9CBD8-FA9F-4F3E-B644-8148CA6A9069";
name = Bold;
paths = (
{
closed = 1;
nodes = (
"271 0 LINE",
"271 44 LINE",
"248 44 LINE SMOOTH",
"238 44 OFFCURVE",
"204 52 OFFCURVE",
"204 74 CURVE SMOOTH",
"204 79 OFFCURVE",
"206 85 OFFCURVE",
"210 92 CURVE SMOOTH",
"259 181 LINE",
"475 181 LINE",
"475 83 LINE SMOOTH",
"475 57 OFFCURVE",
"458 44 OFFCURVE",
"421 44 CURVE SMOOTH",
"391 44 LINE",
"391 0 LINE",
"996 0 LINE",
"1017 198 LINE",
"973 198 LINE",
"962 127 OFFCURVE",
"941 62 OFFCURVE",
"869 62 CURVE SMOOTH",
"661 62 LINE",
"661 331 LINE",
"790 331 LINE SMOOTH",
"835 331 OFFCURVE",
"840 286 OFFCURVE",
"844 242 CURVE",
"880 242 LINE",
"880 483 LINE",
"844 483 LINE",
"840 439 OFFCURVE",
"835 394 OFFCURVE",
"790 394 CURVE SMOOTH",
"661 394 LINE",
"661 637 LINE",
"837 637 LINE SMOOTH",
"937 637 OFFCURVE",
"949 542 OFFCURVE",
"953 502 CURVE",
"997 502 LINE",
"997 700 LINE",
"375 700 LINE",
"375 656 LINE",
"408 656 LINE SMOOTH",
"420 656 OFFCURVE",
"424 649 OFFCURVE",
"424 641 CURVE SMOOTH",
"424 636 OFFCURVE",
"422 630 OFFCURVE",
"420 626 CURVE",
"103 87 LINE SMOOTH",
"88 61 OFFCURVE",
"62 44 OFFCURVE",
"32 44 CURVE SMOOTH",
"16 44 LINE",
"16 0 LINE"
);
},
{
closed = 1;
nodes = (
"475 556 LINE",
"475 244 LINE",
"295 244 LINE"
);
},
{
closed = 1;
nodes = (
"782 872 LINE SMOOTH",
"818 893 OFFCURVE",
"839 914 OFFCURVE",
"839 941 CURVE SMOOTH",
"839 964 OFFCURVE",
"822 991 OFFCURVE",
"780 991 CURVE SMOOTH",
"743 991 OFFCURVE",
"715 960 OFFCURVE",
"709 952 CURVE",
"584 820 LINE",
"616 775 LINE"
);
}
);
width = 1048;
}
);
leftKerningGroup = A;
note = AEacute;
unicode = 01FC;
},
{
glyphname = B;
lastChange = "2015-12-01 13:13:43 +0000";
layers = (
{
layerId = "48F9CBD8-FA9F-4F3E-B644-8148CA6A9069";
name = Bold;
paths = (
{
closed = 1;
nodes = (
"414 0 LINE SMOOTH",
"596 0 OFFCURVE",
"663 77 OFFCURVE",
"663 194 CURVE SMOOTH",
"663 260 OFFCURVE",
"625 346 OFFCURVE",
"488 370 CURVE",
"578 391 OFFCURVE",
"624 461 OFFCURVE",
"624 535 CURVE SMOOTH",
"624 641 OFFCURVE",
"558 700 OFFCURVE",
"376 700 CURVE SMOOTH",
"12 700 LINE",
"12 656 LINE",
"44 656 LINE SMOOTH",
"82 656 OFFCURVE",
"99 643 OFFCURVE",
"99 617 CURVE SMOOTH",
"99 83 LINE SMOOTH",
"99 57 OFFCURVE",
"82 44 OFFCURVE",
"44 44 CURVE SMOOTH",
"12 44 LINE",
"12 0 LINE"
);
},
{
closed = 1;
nodes = (
"285 336 LINE",
"347 336 LINE SMOOTH",
"431 336 OFFCURVE",
"478 293 OFFCURVE",
"478 203 CURVE SMOOTH",
"478 113 OFFCURVE",
"437 62 OFFCURVE",
"361 62 CURVE SMOOTH",
"285 62 LINE"
);
},
{
closed = 1;
nodes = (
"285 637 LINE",
"333 637 LINE SMOOTH",
"401 637 OFFCURVE",
"437 602 OFFCURVE",
"437 525 CURVE SMOOTH",
"437 449 OFFCURVE",
"406 398 OFFCURVE",
"340 398 CURVE SMOOTH",
"285 398 LINE"
);
}
);
width = 685;
}
);
note = B;
unicode = 0042;
},
{
glyphname = C;
lastChange = "2015-12-01 13:13:37 +0000";
layers = (
{
layerId = "48F9CBD8-FA9F-4F3E-B644-8148CA6A9069";
name = Bold;
paths = (
{
closed = 1;
nodes = (
"567 -10 OFFCURVE",
"670 73 OFFCURVE",
"694 175 CURVE",
"632 175 LINE",
"589 81 OFFCURVE",
"501 55 OFFCURVE",
"420 55 CURVE SMOOTH",
"292 55 OFFCURVE",
"222 164 OFFCURVE",
"222 350 CURVE SMOOTH",
"222 535 OFFCURVE",
"306 645 OFFCURVE",
"437 645 CURVE SMOOTH",
"521 645 OFFCURVE",
"614 606 OFFCURVE",
"629 491 CURVE",
"680 491 LINE",
"680 705 LINE",
"621 705 LINE",
"621 659 LINE SMOOTH",
"621 652 OFFCURVE",
"617 650 OFFCURVE",
"613 650 CURVE SMOOTH",
"609 650 OFFCURVE",
"605 652 OFFCURVE",
"604 653 CURVE",
"562 680 OFFCURVE",
"495 710 OFFCURVE",
"394 710 CURVE SMOOTH",
"153 710 OFFCURVE",
"33 564 OFFCURVE",
"33 350 CURVE SMOOTH",
"33 135 OFFCURVE",
"151 -10 OFFCURVE",
"397 -10 CURVE SMOOTH"
);
}
);
width = 726;
}
);
leftKerningGroup = C;
note = C;
unicode = 0043;
},
{
glyphname = Cacute;
lastChange = "2015-12-01 13:13:42 +0000";
layers = (
{
layerId = "48F9CBD8-FA9F-4F3E-B644-8148CA6A9069";
name = Bold;
paths = (
{
closed = 1;
nodes = (
"567 -10 OFFCURVE",
"670 73 OFFCURVE",
"694 175 CURVE",
"632 175 LINE",
"589 81 OFFCURVE",
"501 55 OFFCURVE",
"420 55 CURVE SMOOTH",
"292 55 OFFCURVE",
"222 164 OFFCURVE",
"222 350 CURVE SMOOTH",
"222 535 OFFCURVE",
"306 645 OFFCURVE",
"437 645 CURVE SMOOTH",
"521 645 OFFCURVE",
"614 606 OFFCURVE",
"629 491 CURVE",
"680 491 LINE",
"680 705 LINE",
"621 705 LINE",
"621 659 LINE SMOOTH",
"621 652 OFFCURVE",
"617 650 OFFCURVE",
"613 650 CURVE SMOOTH",
"609 650 OFFCURVE",
"605 652 OFFCURVE",
"604 653 CURVE",
"562 680 OFFCURVE",
"495 710 OFFCURVE",
"394 710 CURVE SMOOTH",
"153 710 OFFCURVE",
"33 564 OFFCURVE",
"33 350 CURVE SMOOTH",
"33 135 OFFCURVE",
"151 -10 OFFCURVE",
"397 -10 CURVE SMOOTH"
);
},
{
closed = 1;
nodes = (
"518 872 LINE SMOOTH",
"554 893 OFFCURVE",
"575 914 OFFCURVE",
"575 941 CURVE SMOOTH",
"575 964 OFFCURVE",
"558 991 OFFCURVE",
"516 991 CURVE SMOOTH",
"479 991 OFFCURVE",
"451 960 OFFCURVE",
"445 952 CURVE",
"320 820 LINE",
"352 775 LINE"
);
}
);
width = 726;
}
);
leftKerningGroup = C;
note = Cacute;
unicode = 0106;
},
{
glyphname = Ccaron;
lastChange = "2015-12-01 13:13:43 +0000";
layers = (
{
layerId = "48F9CBD8-FA9F-4F3E-B644-8148CA6A9069";
name = Bold;
paths = (
{
closed = 1;
nodes = (
"567 -10 OFFCURVE",
"670 73 OFFCURVE",
"694 175 CURVE",
"632 175 LINE",
"589 81 OFFCURVE",
"501 55 OFFCURVE",
"420 55 CURVE SMOOTH",
"292 55 OFFCURVE",
"222 164 OFFCURVE",
"222 350 CURVE SMOOTH",
"222 535 OFFCURVE",
"306 645 OFFCURVE",
"437 645 CURVE SMOOTH",
"521 645 OFFCURVE",
"614 606 OFFCURVE",
"629 491 CURVE",
"680 491 LINE",
"680 705 LINE",
"621 705 LINE",
"621 659 LINE SMOOTH",
"621 652 OFFCURVE",
"617 650 OFFCURVE",
"613 650 CURVE SMOOTH",
"609 650 OFFCURVE",
"605 652 OFFCURVE",
"604 653 CURVE",
"562 680 OFFCURVE",
"495 710 OFFCURVE",
"394 710 CURVE SMOOTH",
"153 710 OFFCURVE",
"33 564 OFFCURVE",
"33 350 CURVE SMOOTH",
"33 135 OFFCURVE",
"151 -10 OFFCURVE",
"397 -10 CURVE SMOOTH"
);
},
{
closed = 1;
nodes = (
"462 776 LINE",
"620 950 LINE",
"592 978 LINE",
"458 878 LINE SMOOTH",
"443 866 OFFCURVE",
"429 859 OFFCURVE",
"418 859 CURVE SMOOTH",
"407 859 OFFCURVE",
"393 866 OFFCURVE",
"378 878 CURVE",
"243 978 LINE",
"216 950 LINE",
"374 776 LINE"
);
}
);
width = 726;
}
);
leftKerningGroup = C;
note = Ccaron;
unicode = 010C;
},
{
glyphname = Ccedilla;
lastChange = "2015-12-01 13:13:41 +0000";
layers = (
{
layerId = "48F9CBD8-FA9F-4F3E-B644-8148CA6A9069";
name = Bold;
paths = (
{
closed = 1;
nodes = (
"567 -10 OFFCURVE",
"670 73 OFFCURVE",
"694 175 CURVE",
"632 175 LINE",
"589 81 OFFCURVE",
"501 55 OFFCURVE",
"420 55 CURVE SMOOTH",
"292 55 OFFCURVE",
"222 164 OFFCURVE",
"222 350 CURVE SMOOTH",
"222 535 OFFCURVE",
"306 645 OFFCURVE",
"437 645 CURVE SMOOTH",
"521 645 OFFCURVE",
"614 606 OFFCURVE",
"629 491 CURVE",
"680 491 LINE",
"680 705 LINE",
"621 705 LINE",
"621 659 LINE SMOOTH",
"621 652 OFFCURVE",
"617 650 OFFCURVE",
"613 650 CURVE SMOOTH",
"609 650 OFFCURVE",
"605 652 OFFCURVE",
"604 653 CURVE",
"562 680 OFFCURVE",
"495 710 OFFCURVE",
"394 710 CURVE SMOOTH",
"153 710 OFFCURVE",
"33 564 OFFCURVE",
"33 350 CURVE SMOOTH",
"33 135 OFFCURVE",
"151 -10 OFFCURVE",
"397 -10 CURVE SMOOTH"
);
},
{
closed = 1;
nodes = (
"384 -256 OFFCURVE",
"505 -246 OFFCURVE",
"505 -139 CURVE SMOOTH",
"505 -67 OFFCURVE",
"424 -46 OFFCURVE",
"388 -42 CURVE",
"432 26 LINE",
"368 26 LINE",
"300 -80 LINE",
"308 -92 LINE",
"330 -93 OFFCURVE",
"394 -104 OFFCURVE",
"394 -148 CURVE SMOOTH",
"394 -197 OFFCURVE",
"344 -214 OFFCURVE",
"283 -214 CURVE SMOOTH",
"278 -214 OFFCURVE",
"272 -214 OFFCURVE",
"267 -213 CURVE",
"267 -252 LINE",
"287 -255 OFFCURVE",
"301 -256 OFFCURVE",
"325 -256 CURVE SMOOTH"
);
}
);
width = 726;
}
);
leftKerningGroup = C;
note = Ccedilla;
unicode = 00C7;
},
{
glyphname = Ccircumflex;
lastChange = "2015-12-01 13:13:41 +0000";
layers = (
{
layerId = "48F9CBD8-FA9F-4F3E-B644-8148CA6A9069";
name = Bold;
paths = (
{
closed = 1;
nodes = (
"567 -10 OFFCURVE",
"670 73 OFFCURVE",
"694 175 CURVE",
"632 175 LINE",
"589 81 OFFCURVE",
"501 55 OFFCURVE",
"420 55 CURVE SMOOTH",
"292 55 OFFCURVE",
"222 164 OFFCURVE",
"222 350 CURVE SMOOTH",
"222 535 OFFCURVE",
"306 645 OFFCURVE",
"437 645 CURVE SMOOTH",
"521 645 OFFCURVE",
"614 606 OFFCURVE",
"629 491 CURVE",
"680 491 LINE",
"680 705 LINE",
"621 705 LINE",
"621 659 LINE SMOOTH",
"621 652 OFFCURVE",
"617 650 OFFCURVE",
"613 650 CURVE SMOOTH",
"609 650 OFFCURVE",
"605 652 OFFCURVE",
"604 653 CURVE",
"562 680 OFFCURVE",
"495 710 OFFCURVE",
"394 710 CURVE SMOOTH",
"153 710 OFFCURVE",
"33 564 OFFCURVE",
"33 350 CURVE SMOOTH",
"33 135 OFFCURVE",
"151 -10 OFFCURVE",
"397 -10 CURVE SMOOTH"
);
},
{
closed = 1;
nodes = (
"369 876 LINE",
"384 888 OFFCURVE",
"398 895 OFFCURVE",
"409 895 CURVE SMOOTH",
"420 895 OFFCURVE",
"434 888 OFFCURVE",
"449 876 CURVE SMOOTH",
"583 776 LINE",
"611 804 LINE",
"453 978 LINE",
"365 978 LINE",
"207 804 LINE",
"234 776 LINE"
);
}
);
width = 726;
}
);
leftKerningGroup = C;
note = Ccircumflex;
unicode = 0108;
},
{
glyphname = Cdotaccent;
lastChange = "2015-12-01 13:13:41 +0000";
layers = (
{
layerId = "48F9CBD8-FA9F-4F3E-B644-8148CA6A9069";
name = Bold;
paths = (
{
closed = 1;
nodes = (
"567 -10 OFFCURVE",
"670 73 OFFCURVE",
"694 175 CURVE",
"632 175 LINE",
"589 81 OFFCURVE",
"501 55 OFFCURVE",
"420 55 CURVE SMOOTH",
"292 55 OFFCURVE",
"222 164 OFFCURVE",
"222 350 CURVE SMOOTH",
"222 535 OFFCURVE",
"306 645 OFFCURVE",
"437 645 CURVE SMOOTH",
"521 645 OFFCURVE",
"614 606 OFFCURVE",
"629 491 CURVE",
"680 491 LINE",
"680 705 LINE",
"621 705 LINE",
"621 659 LINE SMOOTH",
"621 652 OFFCURVE",
"617 650 OFFCURVE",
"613 650 CURVE SMOOTH",
"609 650 OFFCURVE",
"605 652 OFFCURVE",
"604 653 CURVE",
"562 680 OFFCURVE",
"495 710 OFFCURVE",
"394 710 CURVE SMOOTH",
"153 710 OFFCURVE",
"33 564 OFFCURVE",
"33 350 CURVE SMOOTH",
"33 135 OFFCURVE",
"151 -10 OFFCURVE",
"397 -10 CURVE SMOOTH"
);
},
{
closed = 1;
nodes = (
"468 773 OFFCURVE",
"495 803 OFFCURVE",
"495 842 CURVE SMOOTH",
"495 881 OFFCURVE",
"468 912 OFFCURVE",
"425 912 CURVE SMOOTH",
"382 912 OFFCURVE",
"356 881 OFFCURVE",
"356 842 CURVE SMOOTH",
"356 803 OFFCURVE",
"382 773 OFFCURVE",
"425 773 CURVE SMOOTH"
);
}
);
width = 726;
}
);
leftKerningGroup = C;
note = Cdotaccent;
unicode = 010A;
},
{
glyphname = D;
lastChange = "2015-12-01 13:13:41 +0000";
layers = (
{
layerId = "48F9CBD8-FA9F-4F3E-B644-8148CA6A9069";
name = Bold;
paths = (
{
closed = 1;
nodes = (
"370 0 LINE SMOOTH",
"618 0 OFFCURVE",
"728 115 OFFCURVE",
"728 350 CURVE SMOOTH",
"728 582 OFFCURVE",
"619 700 OFFCURVE",
"371 700 CURVE SMOOTH",
"11 700 LINE",
"11 656 LINE",
"43 656 LINE SMOOTH",
"81 656 OFFCURVE",
"98 643 OFFCURVE",
"98 617 CURVE SMOOTH",
"98 83 LINE SMOOTH",
"98 57 OFFCURVE",
"81 44 OFFCURVE",
"43 44 CURVE SMOOTH",
"11 44 LINE",
"11 0 LINE"
);
},
{
closed = 1;
nodes = (
"284 638 LINE",
"370 638 LINE SMOOTH",
"479 638 OFFCURVE",
"539 539 OFFCURVE",
"539 350 CURVE SMOOTH",
"539 158 OFFCURVE",
"476 62 OFFCURVE",
"368 62 CURVE SMOOTH",
"284 62 LINE"
);
}
);
width = 769;
}
);
note = D;
rightKerningGroup = D;
unicode = 0044;
},
{
glyphname = Eth;
lastChange = "2015-12-01 13:16:34 +0000";
layers = (
{
layerId = "48F9CBD8-FA9F-4F3E-B644-8148CA6A9069";
name = Bold;
paths = (
{
closed = 1;
nodes = (
"370 0 LINE SMOOTH",
"618 0 OFFCURVE",
"728 115 OFFCURVE",
"728 350 CURVE SMOOTH",
"728 582 OFFCURVE",
"619 700 OFFCURVE",
"371 700 CURVE SMOOTH",
"11 700 LINE",
"11 656 LINE",
"43 656 LINE SMOOTH",
"81 656 OFFCURVE",
"98 643 OFFCURVE",
"98 617 CURVE SMOOTH",
"98 83 LINE SMOOTH",
"98 57 OFFCURVE",
"81 44 OFFCURVE",
"43 44 CURVE SMOOTH",
"11 44 LINE",
"11 0 LINE"
);
},
{
closed = 1;
nodes = (
"284 638 LINE",
"370 638 LINE SMOOTH",
"479 638 OFFCURVE",
"539 539 OFFCURVE",
"539 350 CURVE SMOOTH",
"539 158 OFFCURVE",
"476 62 OFFCURVE",
"368 62 CURVE SMOOTH",
"284 62 LINE"
);
},
{
closed = 1;
nodes = (
"473 298 LINE",
"473 376 LINE",
"15 376 LINE",
"15 298 LINE"
);
}
);
width = 769;
}
);
note = Eth;
rightKerningGroup = D;
unicode = 00D0;
},
{
glyphname = Dcaron;
lastChange = "2015-12-01 13:13:41 +0000";
layers = (
{
layerId = "48F9CBD8-FA9F-4F3E-B644-8148CA6A9069";
name = Bold;
paths = (
{
closed = 1;
nodes = (
"370 0 LINE SMOOTH",
"618 0 OFFCURVE",
"728 115 OFFCURVE",
"728 350 CURVE SMOOTH",
"728 582 OFFCURVE",
"619 700 OFFCURVE",
"371 700 CURVE SMOOTH",
"11 700 LINE",
"11 656 LINE",
"43 656 LINE SMOOTH",
"81 656 OFFCURVE",
"98 643 OFFCURVE",
"98 617 CURVE SMOOTH",
"98 83 LINE SMOOTH",
"98 57 OFFCURVE",
"81 44 OFFCURVE",
"43 44 CURVE SMOOTH",
"11 44 LINE",
"11 0 LINE"
);
},
{
closed = 1;
nodes = (
"284 638 LINE",
"370 638 LINE SMOOTH",
"479 638 OFFCURVE",
"539 539 OFFCURVE",
"539 350 CURVE SMOOTH",
"539 158 OFFCURVE",
"476 62 OFFCURVE",
"368 62 CURVE SMOOTH",
"284 62 LINE"
);
},
{
closed = 1;
nodes = (
"394 779 LINE",
"552 953 LINE",
"524 981 LINE",
"390 881 LINE SMOOTH",
"375 869 OFFCURVE",
"361 862 OFFCURVE",
"350 862 CURVE SMOOTH",
"339 862 OFFCURVE",
"325 869 OFFCURVE",
"310 881 CURVE",
"175 981 LINE",
"148 953 LINE",
"306 779 LINE"
);
}
);
width = 769;
}
);
note = Dcaron;
rightKerningGroup = D;
unicode = 010E;
},
{
glyphname = Dcroat;
lastChange = "2015-12-01 13:16:38 +0000";
layers = (
{
layerId = "48F9CBD8-FA9F-4F3E-B644-8148CA6A9069";
name = Bold;
paths = (
{
closed = 1;
nodes = (
"370 0 LINE SMOOTH",
"618 0 OFFCURVE",
"728 115 OFFCURVE",
"728 350 CURVE SMOOTH",
"728 582 OFFCURVE",
"619 700 OFFCURVE",
"371 700 CURVE SMOOTH",
"11 700 LINE",
"11 656 LINE",
"43 656 LINE SMOOTH",
"81 656 OFFCURVE",
"98 643 OFFCURVE",
"98 617 CURVE SMOOTH",
"98 83 LINE SMOOTH",
"98 57 OFFCURVE",
"81 44 OFFCURVE",
"43 44 CURVE SMOOTH",
"11 44 LINE",
"11 0 LINE"
);
},
{
closed = 1;
nodes = (
"284 638 LINE",
"370 638 LINE SMOOTH",
"479 638 OFFCURVE",
"539 539 OFFCURVE",
"539 350 CURVE SMOOTH",
"539 158 OFFCURVE",
"476 62 OFFCURVE",
"368 62 CURVE SMOOTH",
"284 62 LINE"
);
},
{
closed = 1;
nodes = (
"473 298 LINE",
"473 376 LINE",
"15 376 LINE",
"15 298 LINE"
);
}
);
width = 769;
}
);
note = Dcroat;
rightKerningGroup = D;
unicode = 0110;
},
{
glyphname = Ddotbelow;
lastChange = "2015-12-01 13:13:41 +0000";
layers = (
{
layerId = "48F9CBD8-FA9F-4F3E-B644-8148CA6A9069";
name = Bold;
paths = (
{
closed = 1;
nodes = (
"370 0 LINE SMOOTH",
"618 0 OFFCURVE",
"728 115 OFFCURVE",
"728 350 CURVE SMOOTH",
"728 582 OFFCURVE",
"619 700 OFFCURVE",
"371 700 CURVE SMOOTH",
"11 700 LINE",
"11 656 LINE",
"43 656 LINE SMOOTH",
"81 656 OFFCURVE",
"98 643 OFFCURVE",
"98 617 CURVE SMOOTH",
"98 83 LINE SMOOTH",
"98 57 OFFCURVE",
"81 44 OFFCURVE",
"43 44 CURVE SMOOTH",
"11 44 LINE",
"11 0 LINE"
);
},
{
closed = 1;
nodes = (
"422 -205 OFFCURVE",
"449 -174 OFFCURVE",
"449 -135 CURVE SMOOTH",
"449 -96 OFFCURVE",
"422 -64 OFFCURVE",
"379 -64 CURVE SMOOTH",
"336 -64 OFFCURVE",
"309 -96 OFFCURVE",
"309 -135 CURVE SMOOTH",
"309 -174 OFFCURVE",
"336 -205 OFFCURVE",
"379 -205 CURVE SMOOTH"
);
},
{
closed = 1;
nodes = (
"284 638 LINE",
"370 638 LINE SMOOTH",
"479 638 OFFCURVE",
"539 539 OFFCURVE",
"539 350 CURVE SMOOTH",
"539 158 OFFCURVE",
"476 62 OFFCURVE",
"368 62 CURVE SMOOTH",
"284 62 LINE"
);
}
);
width = 769;
}
);
note = Ddotbelow;
rightKerningGroup = D;
unicode = 1E0C;
},
{
glyphname = Dlinebelow;
lastChange = "2015-12-01 13:13:43 +0000";
layers = (
{
layerId = "48F9CBD8-FA9F-4F3E-B644-8148CA6A9069";
name = Bold;
paths = (
{
closed = 1;
nodes = (
"370 0 LINE SMOOTH",
"618 0 OFFCURVE",
"728 115 OFFCURVE",
"728 350 CURVE SMOOTH",
"728 582 OFFCURVE",
"619 700 OFFCURVE",
"371 700 CURVE SMOOTH",
"11 700 LINE",
"11 656 LINE",
"43 656 LINE SMOOTH",
"81 656 OFFCURVE",
"98 643 OFFCURVE",
"98 617 CURVE SMOOTH",
"98 83 LINE SMOOTH",
"98 57 OFFCURVE",
"81 44 OFFCURVE",
"43 44 CURVE SMOOTH",
"11 44 LINE",
"11 0 LINE"
);
},
{
closed = 1;
nodes = (
"568 -126 LINE",
"568 -66 LINE",
"158 -66 LINE",
"158 -126 LINE"
);
},
{
closed = 1;
nodes = (
"284 638 LINE",
"370 638 LINE SMOOTH",
"479 638 OFFCURVE",
"539 539 OFFCURVE",
"539 350 CURVE SMOOTH",
"539 158 OFFCURVE",
"476 62 OFFCURVE",
"368 62 CURVE SMOOTH",
"284 62 LINE"
);
}
);
width = 769;
}
);
note = Dlinebelow;
rightKerningGroup = D;
unicode = 1E0E;
},
{
glyphname = E;
lastChange = "2015-12-01 13:13:42 +0000";
layers = (
{
layerId = "48F9CBD8-FA9F-4F3E-B644-8148CA6A9069";
name = Bold;
paths = (
{
closed = 1;
nodes = (
"622 0 LINE",
"643 198 LINE",
"598 198 LINE",
"588 127 OFFCURVE",
"567 62 OFFCURVE",
"495 62 CURVE SMOOTH",
"283 62 LINE",
"283 637 LINE",
"468 637 LINE SMOOTH",
"562 637 OFFCURVE",
"575 539 OFFCURVE",
"578 502 CURVE",
"623 502 LINE",
"623 700 LINE",
"11 700 LINE",
"11 656 LINE",
"42 656 LINE SMOOTH",
"81 656 OFFCURVE",
"97 643 OFFCURVE",
"97 617 CURVE SMOOTH",
"97 83 LINE SMOOTH",
"97 57 OFFCURVE",
"81 44 OFFCURVE",
"42 44 CURVE SMOOTH",
"11 44 LINE",
"11 0 LINE"
);
},
{
closed = 1;
nodes = (
"505 242 LINE",
"505 483 LINE",
"469 483 LINE",
"465 439 OFFCURVE",
"460 394 OFFCURVE",
"415 394 CURVE SMOOTH",
"209 394 LINE",
"209 331 LINE",
"415 331 LINE SMOOTH",
"460 331 OFFCURVE",
"465 286 OFFCURVE",
"469 242 CURVE"
);
}
);
width = 674;
}
);
note = E;
unicode = 0045;
},
{
glyphname = Eacute;
lastChange = "2015-12-01 13:13:42 +0000";
layers = (
{
layerId = "48F9CBD8-FA9F-4F3E-B644-8148CA6A9069";
name = Bold;
paths = (
{
closed = 1;
nodes = (
"622 0 LINE",
"643 198 LINE",
"598 198 LINE",
"588 127 OFFCURVE",
"567 62 OFFCURVE",
"495 62 CURVE SMOOTH",
"283 62 LINE",
"283 637 LINE",
"468 637 LINE SMOOTH",
"562 637 OFFCURVE",
"575 539 OFFCURVE",
"578 502 CURVE",
"623 502 LINE",
"623 700 LINE",
"11 700 LINE",
"11 656 LINE",
"42 656 LINE SMOOTH",
"81 656 OFFCURVE",
"97 643 OFFCURVE",
"97 617 CURVE SMOOTH",
"97 83 LINE SMOOTH",
"97 57 OFFCURVE",
"81 44 OFFCURVE",
"42 44 CURVE SMOOTH",
"11 44 LINE",
"11 0 LINE"
);
},
{
closed = 1;
nodes = (
"505 242 LINE",
"505 483 LINE",
"469 483 LINE",
"465 439 OFFCURVE",
"460 394 OFFCURVE",
"415 394 CURVE SMOOTH",
"209 394 LINE",
"209 331 LINE",
"415 331 LINE SMOOTH",
"460 331 OFFCURVE",
"465 286 OFFCURVE",
"469 242 CURVE"
);
},
{
closed = 1;
nodes = (
"462 872 LINE SMOOTH",
"498 893 OFFCURVE",
"519 914 OFFCURVE",
"519 941 CURVE SMOOTH",
"519 964 OFFCURVE",
"502 991 OFFCURVE",
"460 991 CURVE SMOOTH",
"423 991 OFFCURVE",
"395 960 OFFCURVE",
"389 952 CURVE",
"264 820 LINE",
"296 775 LINE"
);
}
);
width = 674;
}
);
note = Eacute;
unicode = 00C9;
},
{
glyphname = Ebreve;
lastChange = "2015-12-01 13:13:42 +0000";
layers = (
{
layerId = "48F9CBD8-FA9F-4F3E-B644-8148CA6A9069";
name = Bold;
paths = (
{
closed = 1;
nodes = (
"622 0 LINE",
"643 198 LINE",
"598 198 LINE",
"588 127 OFFCURVE",
"567 62 OFFCURVE",
"495 62 CURVE SMOOTH",
"283 62 LINE",
"283 637 LINE",
"468 637 LINE SMOOTH",
"562 637 OFFCURVE",
"575 539 OFFCURVE",
"578 502 CURVE",
"623 502 LINE",
"623 700 LINE",
"11 700 LINE",
"11 656 LINE",
"42 656 LINE SMOOTH",
"81 656 OFFCURVE",
"97 643 OFFCURVE",
"97 617 CURVE SMOOTH",
"97 83 LINE SMOOTH",
"97 57 OFFCURVE",
"81 44 OFFCURVE",
"42 44 CURVE SMOOTH",
"11 44 LINE",
"11 0 LINE"
);
},
{
closed = 1;
nodes = (
"505 242 LINE",
"505 483 LINE",
"469 483 LINE",
"465 439 OFFCURVE",
"460 394 OFFCURVE",
"415 394 CURVE SMOOTH",
"209 394 LINE",
"209 331 LINE",
"415 331 LINE SMOOTH",
"460 331 OFFCURVE",
"465 286 OFFCURVE",
"469 242 CURVE"
);
},
{
closed = 1;
nodes = (
"523 777 OFFCURVE",
"552 860 OFFCURVE",
"552 931 CURVE",
"509 931 LINE",
"506 900 OFFCURVE",
"483 852 OFFCURVE",
"385 852 CURVE SMOOTH",
"288 852 OFFCURVE",
"262 900 OFFCURVE",
"259 931 CURVE",
"216 931 LINE",
"217 855 OFFCURVE",
"246 777 OFFCURVE",
"385 777 CURVE SMOOTH"
);
}
);
width = 674;
}
);
note = Ebreve;
unicode = 0114;
},
{
glyphname = Ecaron;
lastChange = "2015-12-01 13:13:41 +0000";
layers = (
{
layerId = "48F9CBD8-FA9F-4F3E-B644-8148CA6A9069";
name = Bold;
paths = (
{
closed = 1;
nodes = (
"622 0 LINE",
"643 198 LINE",
"598 198 LINE",
"588 127 OFFCURVE",
"567 62 OFFCURVE",
"495 62 CURVE SMOOTH",
"283 62 LINE",
"283 637 LINE",
"468 637 LINE SMOOTH",
"562 637 OFFCURVE",
"575 539 OFFCURVE",
"578 502 CURVE",
"623 502 LINE",
"623 700 LINE",
"11 700 LINE",
"11 656 LINE",
"42 656 LINE SMOOTH",
"81 656 OFFCURVE",
"97 643 OFFCURVE",
"97 617 CURVE SMOOTH",
"97 83 LINE SMOOTH",
"97 57 OFFCURVE",
"81 44 OFFCURVE",
"42 44 CURVE SMOOTH",
"11 44 LINE",
"11 0 LINE"
);
},
{
closed = 1;
nodes = (
"505 242 LINE",
"505 483 LINE",
"469 483 LINE",
"465 439 OFFCURVE",
"460 394 OFFCURVE",
"415 394 CURVE SMOOTH",
"209 394 LINE",
"209 331 LINE",
"415 331 LINE SMOOTH",
"460 331 OFFCURVE",
"465 286 OFFCURVE",
"469 242 CURVE"
);
},
{
closed = 1;
nodes = (
"425 776 LINE",
"583 950 LINE",
"555 978 LINE",
"421 878 LINE SMOOTH",
"406 866 OFFCURVE",
"392 859 OFFCURVE",
"381 859 CURVE SMOOTH",
"370 859 OFFCURVE",
"356 866 OFFCURVE",
"341 878 CURVE",
"206 978 LINE",
"179 950 LINE",
"337 776 LINE"
);
}
);
width = 674;
}
);
note = Ecaron;
unicode = 011A;
},
{
glyphname = Ecircumflex;
lastChange = "2015-12-01 13:13:41 +0000";
layers = (
{
layerId = "48F9CBD8-FA9F-4F3E-B644-8148CA6A9069";
name = Bold;
paths = (
{
closed = 1;
nodes = (
"622 0 LINE",
"643 198 LINE",
"598 198 LINE",
"588 127 OFFCURVE",
"567 62 OFFCURVE",
"495 62 CURVE SMOOTH",
"283 62 LINE",
"283 637 LINE",
"468 637 LINE SMOOTH",
"562 637 OFFCURVE",
"575 539 OFFCURVE",
"578 502 CURVE",
"623 502 LINE",
"623 700 LINE",
"11 700 LINE",
"11 656 LINE",
"42 656 LINE SMOOTH",
"81 656 OFFCURVE",
"97 643 OFFCURVE",
"97 617 CURVE SMOOTH",
"97 83 LINE SMOOTH",
"97 57 OFFCURVE",
"81 44 OFFCURVE",
"42 44 CURVE SMOOTH",
"11 44 LINE",
"11 0 LINE"
);
},
{
closed = 1;
nodes = (
"505 242 LINE",
"505 483 LINE",
"469 483 LINE",
"465 439 OFFCURVE",
"460 394 OFFCURVE",
"415 394 CURVE SMOOTH",
"209 394 LINE",
"209 331 LINE",
"415 331 LINE SMOOTH",
"460 331 OFFCURVE",
"465 286 OFFCURVE",
"469 242 CURVE"
);
},
{
closed = 1;
nodes = (
"335 876 LINE",
"350 888 OFFCURVE",
"364 895 OFFCURVE",
"375 895 CURVE SMOOTH",
"386 895 OFFCURVE",
"400 888 OFFCURVE",
"415 876 CURVE SMOOTH",
"549 776 LINE",
"577 804 LINE",
"419 978 LINE",
"331 978 LINE",
"173 804 LINE",
"200 776 LINE"
);
}
);
width = 674;
}
);
note = Ecircumflex;
unicode = 00CA;
},
{
glyphname = Ecircumflexacute;
lastChange = "2015-12-01 13:13:42 +0000";
layers = (
{
layerId = "48F9CBD8-FA9F-4F3E-B644-8148CA6A9069";
name = Bold;
paths = (
{
closed = 1;
nodes = (
"622 0 LINE",
"643 198 LINE",
"598 198 LINE",
"588 127 OFFCURVE",
"567 62 OFFCURVE",
"495 62 CURVE SMOOTH",
"283 62 LINE",
"283 637 LINE",
"468 637 LINE SMOOTH",
"562 637 OFFCURVE",
"575 539 OFFCURVE",
"578 502 CURVE",
"623 502 LINE",
"623 700 LINE",
"11 700 LINE",
"11 656 LINE",
"42 656 LINE SMOOTH",
"81 656 OFFCURVE",
"97 643 OFFCURVE",
"97 617 CURVE SMOOTH",
"97 83 LINE SMOOTH",
"97 57 OFFCURVE",
"81 44 OFFCURVE",
"42 44 CURVE SMOOTH",
"11 44 LINE",
"11 0 LINE"
);
},
{
closed = 1;
nodes = (
"505 242 LINE",
"505 483 LINE",
"469 483 LINE",
"465 439 OFFCURVE",
"460 394 OFFCURVE",
"415 394 CURVE SMOOTH",
"209 394 LINE",
"209 331 LINE",
"415 331 LINE SMOOTH",
"460 331 OFFCURVE",
"465 286 OFFCURVE",
"469 242 CURVE"
);
},
{
closed = 1;
nodes = (
"312 873 LINE SMOOTH",
"327 885 OFFCURVE",
"341 894 OFFCURVE",
"352 894 CURVE SMOOTH",
"363 894 OFFCURVE",
"377 885 OFFCURVE",
"392 873 CURVE SMOOTH",
"521 775 LINE",
"546 804 LINE",
"396 978 LINE",
"308 978 LINE",
"158 804 LINE",
"183 775 LINE"
);
},
{
closed = 1;
nodes = (
"612 969 LINE SMOOTH",
"649 987 OFFCURVE",
"680 1013 OFFCURVE",
"680 1042 CURVE SMOOTH",
"680 1066 OFFCURVE",
"661 1095 OFFCURVE",
"622 1095 CURVE SMOOTH",
"587 1095 OFFCURVE",
"560 1066 OFFCURVE",
"545 1047 CURVE SMOOTH",
"468 953 LINE",
"498 914 LINE"
);
}
);
width = 674;
}
);
note = Ecircumflexacute;
unicode = 1EBE;
},
{
glyphname = Ecircumflexdotbelow;
lastChange = "2015-12-01 13:13:41 +0000";
layers = (
{
layerId = "48F9CBD8-FA9F-4F3E-B644-8148CA6A9069";
name = Bold;
paths = (
{
closed = 1;
nodes = (
"622 0 LINE",
"643 198 LINE",
"598 198 LINE",
"588 127 OFFCURVE",
"567 62 OFFCURVE",
"495 62 CURVE SMOOTH",
"283 62 LINE",
"283 637 LINE",
"468 637 LINE SMOOTH",
"562 637 OFFCURVE",
"575 539 OFFCURVE",
"578 502 CURVE",
"623 502 LINE",
"623 700 LINE",
"11 700 LINE",
"11 656 LINE",
"42 656 LINE SMOOTH",
"81 656 OFFCURVE",
"97 643 OFFCURVE",
"97 617 CURVE SMOOTH",
"97 83 LINE SMOOTH",
"97 57 OFFCURVE",
"81 44 OFFCURVE",
"42 44 CURVE SMOOTH",
"11 44 LINE",
"11 0 LINE"
);
},
{
closed = 1;
nodes = (
"398 -205 OFFCURVE",
"425 -174 OFFCURVE",
"425 -135 CURVE SMOOTH",
"425 -96 OFFCURVE",
"398 -64 OFFCURVE",
"355 -64 CURVE SMOOTH",
"312 -64 OFFCURVE",
"285 -96 OFFCURVE",
"285 -135 CURVE SMOOTH",
"285 -174 OFFCURVE",
"312 -205 OFFCURVE",
"355 -205 CURVE SMOOTH"
);
},
{
closed = 1;
nodes = (
"505 242 LINE",
"505 483 LINE",
"469 483 LINE",
"465 439 OFFCURVE",
"460 394 OFFCURVE",
"415 394 CURVE SMOOTH",
"209 394 LINE",
"209 331 LINE",
"415 331 LINE SMOOTH",
"460 331 OFFCURVE",
"465 286 OFFCURVE",
"469 242 CURVE"
);
},
{
closed = 1;
nodes = (
"310 876 LINE",
"325 888 OFFCURVE",
"339 895 OFFCURVE",
"350 895 CURVE SMOOTH",
"361 895 OFFCURVE",
"375 888 OFFCURVE",
"390 876 CURVE SMOOTH",
"524 776 LINE",
"552 804 LINE",
"394 978 LINE",
"306 978 LINE",
"148 804 LINE",
"175 776 LINE"
);
}
);
width = 674;
}
);
note = Ecircumflexdotbelow;
unicode = 1EC6;
},
{
glyphname = Ecircumflexgrave;
lastChange = "2015-12-01 13:13:42 +0000";
layers = (
{
layerId = "48F9CBD8-FA9F-4F3E-B644-8148CA6A9069";
name = Bold;
paths = (
{
closed = 1;
nodes = (
"622 0 LINE",
"643 198 LINE",
"598 198 LINE",
"588 127 OFFCURVE",
"567 62 OFFCURVE",
"495 62 CURVE SMOOTH",
"283 62 LINE",
"283 637 LINE",
"468 637 LINE SMOOTH",
"562 637 OFFCURVE",
"575 539 OFFCURVE",
"578 502 CURVE",
"623 502 LINE",
"623 700 LINE",
"11 700 LINE",
"11 656 LINE",
"42 656 LINE SMOOTH",
"81 656 OFFCURVE",
"97 643 OFFCURVE",
"97 617 CURVE SMOOTH",
"97 83 LINE SMOOTH",
"97 57 OFFCURVE",
"81 44 OFFCURVE",
"42 44 CURVE SMOOTH",
"11 44 LINE",
"11 0 LINE"
);
},
{
closed = 1;
nodes = (
"505 242 LINE",
"505 483 LINE",
"469 483 LINE",
"465 439 OFFCURVE",
"460 394 OFFCURVE",
"415 394 CURVE SMOOTH",
"209 394 LINE",
"209 331 LINE",
"415 331 LINE SMOOTH",
"460 331 OFFCURVE",
"465 286 OFFCURVE",
"469 242 CURVE"
);
},
{
closed = 1;
nodes = (
"237 953 LINE",
"155 1051 LINE SMOOTH",
"141 1068 OFFCURVE",
"116 1096 OFFCURVE",
"83 1096 CURVE SMOOTH",
"41 1096 OFFCURVE",
"25 1064 OFFCURVE",
"25 1043 CURVE SMOOTH",
"25 1016 OFFCURVE",
"49 992 OFFCURVE",
"88 973 CURVE SMOOTH",
"207 914 LINE"
);
},
{
closed = 1;
nodes = (
"312 873 LINE SMOOTH",
"327 885 OFFCURVE",
"341 894 OFFCURVE",
"352 894 CURVE SMOOTH",
"363 894 OFFCURVE",
"377 885 OFFCURVE",
"392 873 CURVE SMOOTH",
"521 775 LINE",
"546 804 LINE",
"396 978 LINE",
"308 978 LINE",
"158 804 LINE",
"183 775 LINE"
);
}
);
width = 674;
}
);
note = Ecircumflexgrave;
unicode = 1EC0;
},
{
glyphname = Ecircumflexhookabove;
lastChange = "2015-12-01 13:13:42 +0000";
layers = (
{
layerId = "48F9CBD8-FA9F-4F3E-B644-8148CA6A9069";
name = Bold;
paths = (
{
closed = 1;
nodes = (
"622 0 LINE",
"643 198 LINE",
"598 198 LINE",
"588 127 OFFCURVE",
"567 62 OFFCURVE",
"495 62 CURVE SMOOTH",
"283 62 LINE",
"283 637 LINE",
"468 637 LINE SMOOTH",
"562 637 OFFCURVE",
"575 539 OFFCURVE",
"578 502 CURVE",
"623 502 LINE",
"623 700 LINE",
"11 700 LINE",
"11 656 LINE",
"42 656 LINE SMOOTH",
"81 656 OFFCURVE",
"97 643 OFFCURVE",
"97 617 CURVE SMOOTH",
"97 83 LINE SMOOTH",
"97 57 OFFCURVE",
"81 44 OFFCURVE",
"42 44 CURVE SMOOTH",
"11 44 LINE",
"11 0 LINE"
);
},
{
closed = 1;
nodes = (
"505 242 LINE",
"505 483 LINE",
"469 483 LINE",
"465 439 OFFCURVE",
"460 394 OFFCURVE",
"415 394 CURVE SMOOTH",
"209 394 LINE",
"209 331 LINE",
"415 331 LINE SMOOTH",
"460 331 OFFCURVE",
"465 286 OFFCURVE",
"469 242 CURVE"
);
},
{
closed = 1;
nodes = (
"312 874 LINE SMOOTH",
"327 886 OFFCURVE",
"341 895 OFFCURVE",
"352 895 CURVE SMOOTH",
"363 895 OFFCURVE",
"377 886 OFFCURVE",
"392 874 CURVE SMOOTH",
"521 776 LINE",
"546 805 LINE",
"396 979 LINE",
"308 979 LINE",
"158 805 LINE",
"183 776 LINE"
);
},
{
closed = 1;
nodes = (
"558 937 LINE",
"545 939 OFFCURVE",
"532 942 OFFCURVE",
"532 961 CURVE SMOOTH",
"532 1001 OFFCURVE",
"632 1008 OFFCURVE",
"632 1066 CURVE SMOOTH",
"632 1110 OFFCURVE",
"582 1131 OFFCURVE",
"528 1131 CURVE SMOOTH",
"457 1131 OFFCURVE",
"428 1100 OFFCURVE",
"428 1077 CURVE SMOOTH",
"428 1056 OFFCURVE",
"444 1046 OFFCURVE",
"460 1046 CURVE SMOOTH",
"501 1046 OFFCURVE",
"483 1102 OFFCURVE",
"528 1102 CURVE SMOOTH",
"548 1102 OFFCURVE",
"557 1086 OFFCURVE",
"557 1073 CURVE SMOOTH",
"557 1019 OFFCURVE",
"474 1008 OFFCURVE",
"474 962 CURVE SMOOTH",
"474 932 OFFCURVE",
"507 915 OFFCURVE",
"550 915 CURVE"
);
}
);
width = 674;
}
);
note = Ecircumflexhookabove;
unicode = 1EC2;
},
{
glyphname = Ecircumflextilde;
lastChange = "2015-12-01 13:13:42 +0000";
layers = (
{
layerId = "48F9CBD8-FA9F-4F3E-B644-8148CA6A9069";
name = Bold;
paths = (
{
closed = 1;
nodes = (
"622 0 LINE",
"643 198 LINE",
"598 198 LINE",
"588 127 OFFCURVE",
"567 62 OFFCURVE",
"495 62 CURVE SMOOTH",
"283 62 LINE",
"283 637 LINE",
"468 637 LINE SMOOTH",
"562 637 OFFCURVE",
"575 539 OFFCURVE",
"578 502 CURVE",
"623 502 LINE",
"623 700 LINE",
"11 700 LINE",
"11 656 LINE",
"42 656 LINE SMOOTH",
"81 656 OFFCURVE",
"97 643 OFFCURVE",
"97 617 CURVE SMOOTH",
"97 83 LINE SMOOTH",
"97 57 OFFCURVE",
"81 44 OFFCURVE",
"42 44 CURVE SMOOTH",
"11 44 LINE",
"11 0 LINE"
);
},
{
closed = 1;
nodes = (
"505 242 LINE",
"505 483 LINE",
"469 483 LINE",
"465 439 OFFCURVE",
"460 394 OFFCURVE",
"415 394 CURVE SMOOTH",
"209 394 LINE",
"209 331 LINE",
"415 331 LINE SMOOTH",
"460 331 OFFCURVE",
"465 286 OFFCURVE",
"469 242 CURVE"
);
},
{
closed = 1;
nodes = (
"312 874 LINE SMOOTH",
"327 886 OFFCURVE",
"341 895 OFFCURVE",
"352 895 CURVE SMOOTH",
"363 895 OFFCURVE",
"377 886 OFFCURVE",
"392 874 CURVE SMOOTH",
"521 776 LINE",
"546 805 LINE",
"396 979 LINE",
"308 979 LINE",
"158 805 LINE",
"183 776 LINE"
);
},
{
closed = 1;
nodes = (
"207 1034 OFFCURVE",
"223 1052 OFFCURVE",
"257 1052 CURVE SMOOTH",
"315 1052 OFFCURVE",
"367 1006 OFFCURVE",
"423 1006 CURVE SMOOTH",
"494 1006 OFFCURVE",
"527 1082 OFFCURVE",
"543 1127 CURVE",
"514 1145 LINE",
"495 1104 OFFCURVE",
"481 1087 OFFCURVE",
"446 1087 CURVE SMOOTH",
"389 1087 OFFCURVE",
"336 1132 OFFCURVE",
"280 1132 CURVE SMOOTH",
"208 1132 OFFCURVE",
"176 1057 OFFCURVE",
"160 1012 CURVE",
"189 994 LINE"
);
}
);
width = 674;
}
);
note = Ecircumflextilde;
unicode = 1EC4;
},
{
glyphname = Edieresis;
lastChange = "2015-12-01 13:13:42 +0000";
layers = (
{
layerId = "48F9CBD8-FA9F-4F3E-B644-8148CA6A9069";
name = Bold;
paths = (
{
closed = 1;
nodes = (
"622 0 LINE",
"643 198 LINE",
"598 198 LINE",
"588 127 OFFCURVE",
"567 62 OFFCURVE",
"495 62 CURVE SMOOTH",
"283 62 LINE",
"283 637 LINE",
"468 637 LINE SMOOTH",
"562 637 OFFCURVE",
"575 539 OFFCURVE",
"578 502 CURVE",
"623 502 LINE",
"623 700 LINE",
"11 700 LINE",
"11 656 LINE",
"42 656 LINE SMOOTH",
"81 656 OFFCURVE",
"97 643 OFFCURVE",
"97 617 CURVE SMOOTH",
"97 83 LINE SMOOTH",
"97 57 OFFCURVE",
"81 44 OFFCURVE",
"42 44 CURVE SMOOTH",
"11 44 LINE",
"11 0 LINE"
);
},
{
closed = 1;
nodes = (
"505 242 LINE",
"505 483 LINE",
"469 483 LINE",
"465 439 OFFCURVE",
"460 394 OFFCURVE",
"415 394 CURVE SMOOTH",
"209 394 LINE",
"209 331 LINE",
"415 331 LINE SMOOTH",
"460 331 OFFCURVE",
"465 286 OFFCURVE",
"469 242 CURVE"
);
},
{
closed = 1;
nodes = (
"311 776 OFFCURVE",
"338 806 OFFCURVE",
"338 845 CURVE SMOOTH",
"338 885 OFFCURVE",
"311 916 OFFCURVE",
"267 916 CURVE SMOOTH",
"224 916 OFFCURVE",
"198 885 OFFCURVE",
"198 845 CURVE SMOOTH",
"198 806 OFFCURVE",
"224 776 OFFCURVE",
"267 776 CURVE SMOOTH"
);
},
{
closed = 1;
nodes = (
"553 776 OFFCURVE",
"580 806 OFFCURVE",
"580 845 CURVE SMOOTH",
"580 885 OFFCURVE",
"553 916 OFFCURVE",
"510 916 CURVE SMOOTH",
"465 916 OFFCURVE",
"439 885 OFFCURVE",
"439 845 CURVE SMOOTH",
"439 806 OFFCURVE",
"465 776 OFFCURVE",
"510 776 CURVE SMOOTH"
);
}
);
width = 674;
}
);
note = Edieresis;
unicode = 00CB;
},
{
glyphname = Edotaccent;
lastChange = "2015-12-01 13:13:42 +0000";
layers = (
{
layerId = "48F9CBD8-FA9F-4F3E-B644-8148CA6A9069";
name = Bold;
paths = (
{
closed = 1;
nodes = (
"622 0 LINE",
"643 198 LINE",
"598 198 LINE",
"588 127 OFFCURVE",
"567 62 OFFCURVE",
"495 62 CURVE SMOOTH",
"283 62 LINE",
"283 637 LINE",
"468 637 LINE SMOOTH",
"562 637 OFFCURVE",
"575 539 OFFCURVE",
"578 502 CURVE",
"623 502 LINE",
"623 700 LINE",
"11 700 LINE",
"11 656 LINE",
"42 656 LINE SMOOTH",
"81 656 OFFCURVE",
"97 643 OFFCURVE",
"97 617 CURVE SMOOTH",
"97 83 LINE SMOOTH",
"97 57 OFFCURVE",
"81 44 OFFCURVE",
"42 44 CURVE SMOOTH",
"11 44 LINE",
"11 0 LINE"
);
},
{
closed = 1;
nodes = (
"505 242 LINE",
"505 483 LINE",
"469 483 LINE",
"465 439 OFFCURVE",
"460 394 OFFCURVE",
"415 394 CURVE SMOOTH",
"209 394 LINE",
"209 331 LINE",
"415 331 LINE SMOOTH",
"460 331 OFFCURVE",
"465 286 OFFCURVE",
"469 242 CURVE"
);
},
{
closed = 1;
nodes = (
"431 773 OFFCURVE",
"458 803 OFFCURVE",
"458 842 CURVE SMOOTH",
"458 881 OFFCURVE",
"431 912 OFFCURVE",
"388 912 CURVE SMOOTH",
"345 912 OFFCURVE",
"319 881 OFFCURVE",
"319 842 CURVE SMOOTH",
"319 803 OFFCURVE",
"345 773 OFFCURVE",
"388 773 CURVE SMOOTH"
);
}
);
width = 674;
}
);
note = Edotaccent;
unicode = 0116;
},
{
glyphname = Edotbelow;
lastChange = "2015-12-01 13:13:42 +0000";
layers = (
{
layerId = "48F9CBD8-FA9F-4F3E-B644-8148CA6A9069";
name = Bold;
paths = (
{
closed = 1;
nodes = (
"622 0 LINE",
"643 198 LINE",
"598 198 LINE",
"588 127 OFFCURVE",
"567 62 OFFCURVE",
"495 62 CURVE SMOOTH",
"283 62 LINE",
"283 637 LINE",
"468 637 LINE SMOOTH",
"562 637 OFFCURVE",
"575 539 OFFCURVE",
"578 502 CURVE",
"623 502 LINE",
"623 700 LINE",
"11 700 LINE",
"11 656 LINE",
"42 656 LINE SMOOTH",
"81 656 OFFCURVE",
"97 643 OFFCURVE",
"97 617 CURVE SMOOTH",
"97 83 LINE SMOOTH",
"97 57 OFFCURVE",
"81 44 OFFCURVE",
"42 44 CURVE SMOOTH",
"11 44 LINE",
"11 0 LINE"
);
},
{
closed = 1;
nodes = (
"383 -205 OFFCURVE",
"410 -174 OFFCURVE",
"410 -135 CURVE SMOOTH",
"410 -96 OFFCURVE",
"383 -64 OFFCURVE",
"340 -64 CURVE SMOOTH",
"297 -64 OFFCURVE",
"270 -96 OFFCURVE",
"270 -135 CURVE SMOOTH",
"270 -174 OFFCURVE",
"297 -205 OFFCURVE",
"340 -205 CURVE SMOOTH"
);
},
{
closed = 1;
nodes = (
"505 242 LINE",
"505 483 LINE",
"469 483 LINE",
"465 439 OFFCURVE",
"460 394 OFFCURVE",
"415 394 CURVE SMOOTH",
"209 394 LINE",
"209 331 LINE",
"415 331 LINE SMOOTH",
"460 331 OFFCURVE",
"465 286 OFFCURVE",
"469 242 CURVE"
);
}
);
width = 674;
}
);
note = Edotbelow;
unicode = 1EB8;
},
{
glyphname = Egrave;
lastChange = "2015-12-01 13:13:41 +0000";
layers = (
{
layerId = "48F9CBD8-FA9F-4F3E-B644-8148CA6A9069";
name = Bold;
paths = (
{
closed = 1;
nodes = (
"622 0 LINE",
"643 198 LINE",
"598 198 LINE",
"588 127 OFFCURVE",
"567 62 OFFCURVE",
"495 62 CURVE SMOOTH",
"283 62 LINE",
"283 637 LINE",
"468 637 LINE SMOOTH",
"562 637 OFFCURVE",
"575 539 OFFCURVE",
"578 502 CURVE",
"623 502 LINE",
"623 700 LINE",
"11 700 LINE",
"11 656 LINE",
"42 656 LINE SMOOTH",
"81 656 OFFCURVE",
"97 643 OFFCURVE",
"97 617 CURVE SMOOTH",
"97 83 LINE SMOOTH",
"97 57 OFFCURVE",
"81 44 OFFCURVE",
"42 44 CURVE SMOOTH",
"11 44 LINE",
"11 0 LINE"
);
},
{
closed = 1;
nodes = (
"505 242 LINE",
"505 483 LINE",
"469 483 LINE",
"465 439 OFFCURVE",
"460 394 OFFCURVE",
"415 394 CURVE SMOOTH",
"209 394 LINE",
"209 331 LINE",
"415 331 LINE SMOOTH",
"460 331 OFFCURVE",
"465 286 OFFCURVE",
"469 242 CURVE"
);
},
{
closed = 1;
nodes = (
"504 820 LINE",
"380 952 LINE",
"373 960 OFFCURVE",
"345 991 OFFCURVE",
"308 991 CURVE SMOOTH",
"266 991 OFFCURVE",
"250 964 OFFCURVE",
"250 942 CURVE SMOOTH",
"250 914 OFFCURVE",
"270 893 OFFCURVE",
"305 872 CURVE SMOOTH",
"472 775 LINE"
);
}
);
width = 674;
}
);
note = Egrave;
unicode = 00C8;
},
{
glyphname = Ehookabove;
lastChange = "2015-12-01 13:13:42 +0000";
layers = (
{
layerId = "48F9CBD8-FA9F-4F3E-B644-8148CA6A9069";
name = Bold;
paths = (
{
closed = 1;
nodes = (
"622 0 LINE",
"643 198 LINE",
"598 198 LINE",
"588 127 OFFCURVE",
"567 62 OFFCURVE",
"495 62 CURVE SMOOTH",
"283 62 LINE",
"283 637 LINE",
"468 637 LINE SMOOTH",
"562 637 OFFCURVE",
"575 539 OFFCURVE",
"578 502 CURVE",
"623 502 LINE",
"623 700 LINE",
"11 700 LINE",
"11 656 LINE",
"42 656 LINE SMOOTH",
"81 656 OFFCURVE",
"97 643 OFFCURVE",
"97 617 CURVE SMOOTH",
"97 83 LINE SMOOTH",
"97 57 OFFCURVE",
"81 44 OFFCURVE",
"42 44 CURVE SMOOTH",
"11 44 LINE",
"11 0 LINE"
);
},
{
closed = 1;
nodes = (
"505 242 LINE",
"505 483 LINE",
"469 483 LINE",
"465 439 OFFCURVE",
"460 394 OFFCURVE",
"415 394 CURVE SMOOTH",
"209 394 LINE",
"209 331 LINE",
"415 331 LINE SMOOTH",
"460 331 OFFCURVE",
"465 286 OFFCURVE",
"469 242 CURVE"
);
},
{
closed = 1;
nodes = (
"414 801 LINE",
"400 803 OFFCURVE",
"384 807 OFFCURVE",
"384 828 CURVE SMOOTH",
"384 874 OFFCURVE",
"499 882 OFFCURVE",
"499 950 CURVE SMOOTH",
"499 1001 OFFCURVE",
"444 1026 OFFCURVE",
"381 1026 CURVE SMOOTH",
"295 1026 OFFCURVE",
"265 989 OFFCURVE",
"265 962 CURVE SMOOTH",
"265 937 OFFCURVE",
"283 926 OFFCURVE",
"301 926 CURVE SMOOTH",
"323 926 OFFCURVE",
"337 941 OFFCURVE",
"338 957 CURVE SMOOTH",
"339 984 OFFCURVE",
"363 991 OFFCURVE",
"380 991 CURVE SMOOTH",
"402 991 OFFCURVE",
"413 974 OFFCURVE",
"413 957 CURVE SMOOTH",
"413 895 OFFCURVE",
"318 883 OFFCURVE",
"318 830 CURVE SMOOTH",
"318 796 OFFCURVE",
"356 776 OFFCURVE",
"405 776 CURVE"
);
}
);
width = 674;
}
);
note = Ehookabove;
unicode = 1EBA;
},
{
glyphname = Emacron;
lastChange = "2015-12-01 13:13:40 +0000";
layers = (
{
layerId = "48F9CBD8-FA9F-4F3E-B644-8148CA6A9069";
name = Bold;
paths = (
{
closed = 1;
nodes = (
"622 0 LINE",
"643 198 LINE",
"598 198 LINE",
"588 127 OFFCURVE",
"567 62 OFFCURVE",
"495 62 CURVE SMOOTH",
"283 62 LINE",
"283 637 LINE",
"468 637 LINE SMOOTH",
"562 637 OFFCURVE",
"575 539 OFFCURVE",
"578 502 CURVE",
"623 502 LINE",
"623 700 LINE",
"11 700 LINE",
"11 656 LINE",
"42 656 LINE SMOOTH",
"81 656 OFFCURVE",
"97 643 OFFCURVE",
"97 617 CURVE SMOOTH",
"97 83 LINE SMOOTH",
"97 57 OFFCURVE",
"81 44 OFFCURVE",
"42 44 CURVE SMOOTH",
"11 44 LINE",
"11 0 LINE"
);
},
{
closed = 1;
nodes = (
"505 242 LINE",
"505 483 LINE",
"469 483 LINE",
"465 439 OFFCURVE",
"460 394 OFFCURVE",
"415 394 CURVE SMOOTH",
"209 394 LINE",
"209 331 LINE",
"415 331 LINE SMOOTH",
"460 331 OFFCURVE",
"465 286 OFFCURVE",
"469 242 CURVE"
);
},
{
closed = 1;
nodes = (
"582 776 LINE",
"582 845 LINE",
"172 845 LINE",
"172 776 LINE"
);
}
);
width = 674;
}
);
note = Emacron;
unicode = 0112;
},
{
glyphname = Eogonek;
lastChange = "2015-12-01 13:13:42 +0000";
layers = (
{
layerId = "48F9CBD8-FA9F-4F3E-B644-8148CA6A9069";
name = Bold;
paths = (
{
closed = 1;
nodes = (
"622 0 LINE",
"643 198 LINE",
"598 198 LINE",
"588 127 OFFCURVE",
"567 62 OFFCURVE",
"495 62 CURVE SMOOTH",
"283 62 LINE",
"283 637 LINE",
"468 637 LINE SMOOTH",
"562 637 OFFCURVE",
"575 539 OFFCURVE",
"578 502 CURVE",
"623 502 LINE",
"623 700 LINE",
"11 700 LINE",
"11 656 LINE",
"42 656 LINE SMOOTH",
"81 656 OFFCURVE",
"97 643 OFFCURVE",
"97 617 CURVE SMOOTH",
"97 83 LINE SMOOTH",
"97 57 OFFCURVE",
"81 44 OFFCURVE",
"42 44 CURVE SMOOTH",
"11 44 LINE",
"11 0 LINE"
);
},
{
closed = 1;
nodes = (
"562 -234 OFFCURVE",
"603 -221 OFFCURVE",
"639 -192 CURVE",
"625 -166 LINE",
"611 -173 OFFCURVE",
"590 -179 OFFCURVE",
"575 -179 CURVE SMOOTH",
"541 -179 OFFCURVE",
"516 -159 OFFCURVE",
"515 -117 CURVE",
"515 -76 OFFCURVE",
"538 -32 OFFCURVE",
"592 11 CURVE",
"530 11 LINE",
"465 -23 OFFCURVE",
"410 -76 OFFCURVE",
"410 -135 CURVE SMOOTH",
"410 -172 OFFCURVE",
"431 -234 OFFCURVE",
"531 -234 CURVE SMOOTH"
);
},
{
closed = 1;
nodes = (
"505 242 LINE",
"505 483 LINE",
"469 483 LINE",
"465 439 OFFCURVE",
"460 394 OFFCURVE",
"415 394 CURVE SMOOTH",
"209 394 LINE",
"209 331 LINE",
"415 331 LINE SMOOTH",
"460 331 OFFCURVE",
"465 286 OFFCURVE",
"469 242 CURVE"
);
}
);
width = 674;
}
);
note = Eogonek;
unicode = 0118;
},
{
glyphname = Etilde;
lastChange = "2015-12-01 13:13:41 +0000";
layers = (
{
layerId = "48F9CBD8-FA9F-4F3E-B644-8148CA6A9069";
name = Bold;
paths = (
{
closed = 1;
nodes = (
"622 0 LINE",
"643 198 LINE",
"598 198 LINE",
"588 127 OFFCURVE",
"567 62 OFFCURVE",
"495 62 CURVE SMOOTH",
"283 62 LINE",
"283 637 LINE",
"468 637 LINE SMOOTH",
"562 637 OFFCURVE",
"575 539 OFFCURVE",
"578 502 CURVE",
"623 502 LINE",
"623 700 LINE",
"11 700 LINE",
"11 656 LINE",
"42 656 LINE SMOOTH",
"81 656 OFFCURVE",
"97 643 OFFCURVE",
"97 617 CURVE SMOOTH",
"97 83 LINE SMOOTH",
"97 57 OFFCURVE",
"81 44 OFFCURVE",
"42 44 CURVE SMOOTH",
"11 44 LINE",
"11 0 LINE"
);
},
{
closed = 1;
nodes = (
"505 242 LINE",
"505 483 LINE",
"469 483 LINE",
"465 439 OFFCURVE",
"460 394 OFFCURVE",
"415 394 CURVE SMOOTH",
"209 394 LINE",
"209 331 LINE",
"415 331 LINE SMOOTH",
"460 331 OFFCURVE",
"465 286 OFFCURVE",
"469 242 CURVE"
);
},
{
closed = 1;
nodes = (
"215 812 OFFCURVE",
"232 829 OFFCURVE",
"269 829 CURVE SMOOTH",
"333 829 OFFCURVE",
"390 783 OFFCURVE",
"452 783 CURVE SMOOTH",
"531 783 OFFCURVE",
"567 859 OFFCURVE",
"584 905 CURVE",
"553 922 LINE",
"531 882 OFFCURVE",
"515 864 OFFCURVE",
"477 864 CURVE SMOOTH",
"414 864 OFFCURVE",
"357 910 OFFCURVE",
"295 910 CURVE SMOOTH",
"216 910 OFFCURVE",
"180 835 OFFCURVE",
"162 789 CURVE",
"194 772 LINE"
);
}
);
width = 674;
}
);
note = Etilde;
unicode = 1EBC;
},
{
glyphname = F;
lastChange = "2015-12-01 13:13:41 +0000";
layers = (
{
layerId = "48F9CBD8-FA9F-4F3E-B644-8148CA6A9069";
name = Bold;
paths = (
{
closed = 1;
nodes = (
"370 0 LINE",
"370 44 LINE",
"339 44 LINE SMOOTH",
"301 44 OFFCURVE",
"284 57 OFFCURVE",
"284 83 CURVE SMOOTH",
"284 637 LINE",
"469 637 LINE SMOOTH",
"563 637 OFFCURVE",
"575 539 OFFCURVE",
"579 502 CURVE",
"624 502 LINE",
"624 700 LINE",
"12 700 LINE",
"12 656 LINE",
"43 656 LINE SMOOTH",
"81 656 OFFCURVE",
"98 643 OFFCURVE",
"98 617 CURVE SMOOTH",
"98 83 LINE SMOOTH",
"98 57 OFFCURVE",
"81 44 OFFCURVE",
"43 44 CURVE SMOOTH",
"12 44 LINE",
"12 0 LINE"
);
},
{
closed = 1;
nodes = (
"505 207 LINE",
"505 447 LINE",
"469 447 LINE",
"465 404 OFFCURVE",
"459 358 OFFCURVE",
"414 358 CURVE SMOOTH",
"212 358 LINE",
"212 296 LINE",
"414 296 LINE SMOOTH",
"459 296 OFFCURVE",
"465 250 OFFCURVE",
"469 207 CURVE"
);
}
);
width = 665;
}
);
note = F;
unicode = 0046;
},
{
glyphname = G;
lastChange = "2015-12-01 13:13:37 +0000";
layers = (
{
layerId = "48F9CBD8-FA9F-4F3E-B644-8148CA6A9069";
name = Bold;
paths = (
{
closed = 1;
nodes = (
"505 -10 OFFCURVE",
"595 1 OFFCURVE",
"702 65 CURVE",
"702 255 LINE SMOOTH",
"702 306 OFFCURVE",
"719 320 OFFCURVE",
"769 320 CURVE",
"769 348 LINE",
"442 348 LINE",
"442 313 LINE",
"455 313 LINE SMOOTH",
"509 313 OFFCURVE",
"523 288 OFFCURVE",
"523 263 CURVE SMOOTH",
"523 73 LINE",
"491 59 OFFCURVE",
"453 55 OFFCURVE",
"420 55 CURVE SMOOTH",
"292 55 OFFCURVE",
"222 164 OFFCURVE",
"222 350 CURVE SMOOTH",
"222 535 OFFCURVE",
"310 645 OFFCURVE",
"441 645 CURVE SMOOTH",
"525 645 OFFCURVE",
"623 606 OFFCURVE",
"638 491 CURVE",
"689 491 LINE",
"689 705 LINE",
"630 705 LINE",
"630 659 LINE SMOOTH",
"630 653 OFFCURVE",
"626 650 OFFCURVE",
"621 650 CURVE SMOOTH",
"617 650 OFFCURVE",
"614 652 OFFCURVE",
"612 653 CURVE",
"568 684 OFFCURVE",
"492 710 OFFCURVE",
"398 710 CURVE SMOOTH",
"157 710 OFFCURVE",
"33 564 OFFCURVE",
"33 350 CURVE SMOOTH",
"33 135 OFFCURVE",
"151 -10 OFFCURVE",
"397 -10 CURVE SMOOTH"
);
}
);
width = 775;
}
);
leftKerningGroup = G;
note = G;
unicode = 0047;
},
{
glyphname = Gbreve;
lastChange = "2015-12-01 13:13:40 +0000";
layers = (
{
layerId = "48F9CBD8-FA9F-4F3E-B644-8148CA6A9069";
name = Bold;
paths = (
{
closed = 1;
nodes = (
"505 -10 OFFCURVE",
"595 1 OFFCURVE",
"702 65 CURVE",
"702 255 LINE SMOOTH",
"702 306 OFFCURVE",
"719 320 OFFCURVE",
"769 320 CURVE",
"769 348 LINE",
"442 348 LINE",
"442 313 LINE",
"455 313 LINE SMOOTH",
"509 313 OFFCURVE",
"523 288 OFFCURVE",
"523 263 CURVE SMOOTH",
"523 73 LINE",
"491 59 OFFCURVE",
"453 55 OFFCURVE",
"420 55 CURVE SMOOTH",
"292 55 OFFCURVE",
"222 164 OFFCURVE",
"222 350 CURVE SMOOTH",
"222 535 OFFCURVE",
"310 645 OFFCURVE",
"441 645 CURVE SMOOTH",
"525 645 OFFCURVE",
"623 606 OFFCURVE",
"638 491 CURVE",
"689 491 LINE",
"689 705 LINE",
"630 705 LINE",
"630 659 LINE SMOOTH",
"630 653 OFFCURVE",
"626 650 OFFCURVE",
"621 650 CURVE SMOOTH",
"617 650 OFFCURVE",
"614 652 OFFCURVE",
"612 653 CURVE",
"568 684 OFFCURVE",
"492 710 OFFCURVE",
"398 710 CURVE SMOOTH",
"157 710 OFFCURVE",
"33 564 OFFCURVE",
"33 350 CURVE SMOOTH",
"33 135 OFFCURVE",
"151 -10 OFFCURVE",
"397 -10 CURVE SMOOTH"
);
},
{
closed = 1;
nodes = (
"542 780 OFFCURVE",
"571 863 OFFCURVE",
"571 934 CURVE",
"528 934 LINE",
"525 903 OFFCURVE",
"502 855 OFFCURVE",
"404 855 CURVE SMOOTH",
"307 855 OFFCURVE",
"281 903 OFFCURVE",
"278 934 CURVE",
"235 934 LINE",
"236 858 OFFCURVE",
"265 780 OFFCURVE",
"404 780 CURVE SMOOTH"
);
}
);
width = 775;
}
);
leftKerningGroup = G;
note = Gbreve;
unicode = 011E;
},
{
glyphname = Gcaron;
lastChange = "2015-12-01 13:13:41 +0000";
layers = (
{
layerId = "48F9CBD8-FA9F-4F3E-B644-8148CA6A9069";
name = Bold;
paths = (
{
closed = 1;
nodes = (
"505 -10 OFFCURVE",
"595 1 OFFCURVE",
"702 65 CURVE",
"702 255 LINE SMOOTH",
"702 306 OFFCURVE",
"719 320 OFFCURVE",
"769 320 CURVE",
"769 348 LINE",
"442 348 LINE",
"442 313 LINE",
"455 313 LINE SMOOTH",
"509 313 OFFCURVE",
"523 288 OFFCURVE",
"523 263 CURVE SMOOTH",
"523 73 LINE",
"491 59 OFFCURVE",
"453 55 OFFCURVE",
"420 55 CURVE SMOOTH",
"292 55 OFFCURVE",
"222 164 OFFCURVE",
"222 350 CURVE SMOOTH",
"222 535 OFFCURVE",
"310 645 OFFCURVE",
"441 645 CURVE SMOOTH",
"525 645 OFFCURVE",
"623 606 OFFCURVE",
"638 491 CURVE",
"689 491 LINE",
"689 705 LINE",
"630 705 LINE",
"630 659 LINE SMOOTH",
"630 653 OFFCURVE",
"626 650 OFFCURVE",
"621 650 CURVE SMOOTH",
"617 650 OFFCURVE",
"614 652 OFFCURVE",
"612 653 CURVE",
"568 684 OFFCURVE",
"492 710 OFFCURVE",
"398 710 CURVE SMOOTH",
"157 710 OFFCURVE",
"33 564 OFFCURVE",
"33 350 CURVE SMOOTH",
"33 135 OFFCURVE",
"151 -10 OFFCURVE",
"397 -10 CURVE SMOOTH"
);
},
{
closed = 1;
nodes = (
"469 776 LINE",
"627 950 LINE",
"599 978 LINE",
"465 878 LINE SMOOTH",
"450 866 OFFCURVE",
"436 859 OFFCURVE",
"425 859 CURVE SMOOTH",
"414 859 OFFCURVE",
"400 866 OFFCURVE",
"385 878 CURVE",
"250 978 LINE",
"223 950 LINE",
"381 776 LINE"
);
}
);
width = 775;
}
);
leftKerningGroup = G;
note = Gcaron;
unicode = 01E6;
},
{
glyphname = Gcircumflex;
lastChange = "2015-12-01 13:13:43 +0000";
layers = (
{
layerId = "48F9CBD8-FA9F-4F3E-B644-8148CA6A9069";
name = Bold;
paths = (
{
closed = 1;
nodes = (
"505 -10 OFFCURVE",
"595 1 OFFCURVE",
"702 65 CURVE",
"702 255 LINE SMOOTH",
"702 306 OFFCURVE",
"719 320 OFFCURVE",
"769 320 CURVE",
"769 348 LINE",
"442 348 LINE",
"442 313 LINE",
"455 313 LINE SMOOTH",
"509 313 OFFCURVE",
"523 288 OFFCURVE",
"523 263 CURVE SMOOTH",
"523 73 LINE",
"491 59 OFFCURVE",
"453 55 OFFCURVE",
"420 55 CURVE SMOOTH",
"292 55 OFFCURVE",
"222 164 OFFCURVE",
"222 350 CURVE SMOOTH",
"222 535 OFFCURVE",
"310 645 OFFCURVE",
"441 645 CURVE SMOOTH",
"525 645 OFFCURVE",
"623 606 OFFCURVE",
"638 491 CURVE",
"689 491 LINE",
"689 705 LINE",
"630 705 LINE",
"630 659 LINE SMOOTH",
"630 653 OFFCURVE",
"626 650 OFFCURVE",
"621 650 CURVE SMOOTH",
"617 650 OFFCURVE",
"614 652 OFFCURVE",
"612 653 CURVE",
"568 684 OFFCURVE",
"492 710 OFFCURVE",
"398 710 CURVE SMOOTH",
"157 710 OFFCURVE",
"33 564 OFFCURVE",
"33 350 CURVE SMOOTH",
"33 135 OFFCURVE",
"151 -10 OFFCURVE",
"397 -10 CURVE SMOOTH"
);
},
{
closed = 1;
nodes = (
"375 879 LINE",
"390 891 OFFCURVE",
"404 898 OFFCURVE",
"415 898 CURVE SMOOTH",
"426 898 OFFCURVE",
"440 891 OFFCURVE",
"455 879 CURVE SMOOTH",
"589 779 LINE",
"617 807 LINE",
"459 981 LINE",
"371 981 LINE",
"213 807 LINE",
"240 779 LINE"
);
}
);
width = 775;
}
);
leftKerningGroup = G;
note = Gcircumflex;
unicode = 011C;
},
{
glyphname = Gcommaaccent;
lastChange = "2015-12-01 13:13:42 +0000";
layers = (
{
layerId = "48F9CBD8-FA9F-4F3E-B644-8148CA6A9069";
name = Bold;
paths = (
{
closed = 1;
nodes = (
"505 -10 OFFCURVE",
"595 1 OFFCURVE",
"702 65 CURVE",
"702 255 LINE SMOOTH",
"702 306 OFFCURVE",
"719 320 OFFCURVE",
"769 320 CURVE",
"769 348 LINE",
"442 348 LINE",
"442 313 LINE",
"455 313 LINE SMOOTH",
"509 313 OFFCURVE",
"523 288 OFFCURVE",
"523 263 CURVE SMOOTH",
"523 73 LINE",
"491 59 OFFCURVE",
"453 55 OFFCURVE",
"420 55 CURVE SMOOTH",
"292 55 OFFCURVE",
"222 164 OFFCURVE",
"222 350 CURVE SMOOTH",
"222 535 OFFCURVE",
"310 645 OFFCURVE",
"441 645 CURVE SMOOTH",
"525 645 OFFCURVE",
"623 606 OFFCURVE",
"638 491 CURVE",
"689 491 LINE",
"689 705 LINE",
"630 705 LINE",
"630 659 LINE SMOOTH",
"630 653 OFFCURVE",
"626 650 OFFCURVE",
"621 650 CURVE SMOOTH",
"617 650 OFFCURVE",
"614 652 OFFCURVE",
"612 653 CURVE",
"568 684 OFFCURVE",
"492 710 OFFCURVE",
"398 710 CURVE SMOOTH",
"157 710 OFFCURVE",
"33 564 OFFCURVE",
"33 350 CURVE SMOOTH",
"33 135 OFFCURVE",
"151 -10 OFFCURVE",
"397 -10 CURVE SMOOTH"
);
},
{
closed = 1;
nodes = (
"423 -343 OFFCURVE",
"500 -260 OFFCURVE",
"500 -177 CURVE SMOOTH",
"500 -112 OFFCURVE",
"463 -75 OFFCURVE",
"416 -75 CURVE SMOOTH",
"371 -75 OFFCURVE",
"343 -105 OFFCURVE",
"343 -139 CURVE SMOOTH",
"343 -182 OFFCURVE",
"387 -199 OFFCURVE",
"387 -243 CURVE SMOOTH",
"387 -287 OFFCURVE",
"362 -326 OFFCURVE",
"328 -361 CURVE",
"356 -387 LINE"
);
}
);
width = 775;
}
);
leftKerningGroup = G;
note = Gcommaaccent;
unicode = 0122;
},
{
glyphname = Gdotaccent;
lastChange = "2015-12-01 13:13:41 +0000";
layers = (
{
layerId = "48F9CBD8-FA9F-4F3E-B644-8148CA6A9069";
name = Bold;
paths = (
{
closed = 1;
nodes = (
"505 -10 OFFCURVE",
"595 1 OFFCURVE",
"702 65 CURVE",
"702 255 LINE SMOOTH",
"702 306 OFFCURVE",
"719 320 OFFCURVE",
"769 320 CURVE",
"769 348 LINE",
"442 348 LINE",
"442 313 LINE",
"455 313 LINE SMOOTH",
"509 313 OFFCURVE",
"523 288 OFFCURVE",
"523 263 CURVE SMOOTH",
"523 73 LINE",
"491 59 OFFCURVE",
"453 55 OFFCURVE",
"420 55 CURVE SMOOTH",
"292 55 OFFCURVE",
"222 164 OFFCURVE",
"222 350 CURVE SMOOTH",
"222 535 OFFCURVE",
"310 645 OFFCURVE",
"441 645 CURVE SMOOTH",
"525 645 OFFCURVE",
"623 606 OFFCURVE",
"638 491 CURVE",
"689 491 LINE",
"689 705 LINE",
"630 705 LINE",
"630 659 LINE SMOOTH",
"630 653 OFFCURVE",
"626 650 OFFCURVE",
"621 650 CURVE SMOOTH",
"617 650 OFFCURVE",
"614 652 OFFCURVE",
"612 653 CURVE",
"568 684 OFFCURVE",
"492 710 OFFCURVE",
"398 710 CURVE SMOOTH",
"157 710 OFFCURVE",
"33 564 OFFCURVE",
"33 350 CURVE SMOOTH",
"33 135 OFFCURVE",
"151 -10 OFFCURVE",
"397 -10 CURVE SMOOTH"
);
},
{
closed = 1;
nodes = (
"464 776 OFFCURVE",
"491 806 OFFCURVE",
"491 845 CURVE SMOOTH",
"491 884 OFFCURVE",
"464 915 OFFCURVE",
"421 915 CURVE SMOOTH",
"378 915 OFFCURVE",
"352 884 OFFCURVE",
"352 845 CURVE SMOOTH",
"352 806 OFFCURVE",
"378 776 OFFCURVE",
"421 776 CURVE SMOOTH"
);
}
);
width = 775;
}
);
leftKerningGroup = G;
note = Gdotaccent;
unicode = 0120;
},
{
glyphname = Gmacron;
lastChange = "2015-12-01 13:13:41 +0000";
layers = (
{
layerId = "48F9CBD8-FA9F-4F3E-B644-8148CA6A9069";
name = Bold;
paths = (
{
closed = 1;
nodes = (
"505 -10 OFFCURVE",
"595 1 OFFCURVE",
"702 65 CURVE",
"702 255 LINE SMOOTH",
"702 306 OFFCURVE",
"719 320 OFFCURVE",
"769 320 CURVE",
"769 348 LINE",
"442 348 LINE",
"442 313 LINE",
"455 313 LINE SMOOTH",
"509 313 OFFCURVE",
"523 288 OFFCURVE",
"523 263 CURVE SMOOTH",
"523 73 LINE",
"491 59 OFFCURVE",
"453 55 OFFCURVE",
"420 55 CURVE SMOOTH",
"292 55 OFFCURVE",
"222 164 OFFCURVE",
"222 350 CURVE SMOOTH",
"222 535 OFFCURVE",
"310 645 OFFCURVE",
"441 645 CURVE SMOOTH",
"525 645 OFFCURVE",
"623 606 OFFCURVE",
"638 491 CURVE",
"689 491 LINE",
"689 705 LINE",
"630 705 LINE",
"630 659 LINE SMOOTH",
"630 653 OFFCURVE",
"626 650 OFFCURVE",
"621 650 CURVE SMOOTH",
"617 650 OFFCURVE",
"614 652 OFFCURVE",
"612 653 CURVE",
"568 684 OFFCURVE",
"492 710 OFFCURVE",
"398 710 CURVE SMOOTH",
"157 710 OFFCURVE",
"33 564 OFFCURVE",
"33 350 CURVE SMOOTH",
"33 135 OFFCURVE",
"151 -10 OFFCURVE",
"397 -10 CURVE SMOOTH"
);
},
{
closed = 1;
nodes = (
"596 800 LINE",
"596 869 LINE",
"186 869 LINE",
"186 800 LINE"
);
}
);
width = 775;
}
);
leftKerningGroup = G;
note = Gmacron;
unicode = 1E20;
},
{
glyphname = H;
lastChange = "2015-12-01 13:13:41 +0000";
layers = (
{
layerId = "48F9CBD8-FA9F-4F3E-B644-8148CA6A9069";
name = Bold;
paths = (
{
closed = 1;
nodes = (
"829 0 LINE",
"829 44 LINE",
"797 44 LINE SMOOTH",
"759 44 OFFCURVE",
"742 57 OFFCURVE",
"742 83 CURVE SMOOTH",
"742 617 LINE SMOOTH",
"742 643 OFFCURVE",
"759 656 OFFCURVE",
"797 656 CURVE SMOOTH",
"829 656 LINE",
"829 700 LINE",
"470 700 LINE",
"470 656 LINE",
"501 656 LINE SMOOTH",
"540 656 OFFCURVE",
"556 643 OFFCURVE",
"556 617 CURVE SMOOTH",
"556 83 LINE SMOOTH",
"556 57 OFFCURVE",
"540 44 OFFCURVE",
"501 44 CURVE SMOOTH",
"470 44 LINE",
"470 0 LINE"
);
},
{
closed = 1;
nodes = (
"371 0 LINE",
"371 44 LINE",
"339 44 LINE SMOOTH",
"301 44 OFFCURVE",
"285 57 OFFCURVE",
"285 83 CURVE SMOOTH",
"285 617 LINE SMOOTH",
"285 643 OFFCURVE",
"301 656 OFFCURVE",
"339 656 CURVE SMOOTH",
"371 656 LINE",
"371 700 LINE",
"12 700 LINE",
"12 656 LINE",
"44 656 LINE SMOOTH",
"82 656 OFFCURVE",
"99 643 OFFCURVE",
"99 617 CURVE SMOOTH",
"99 83 LINE SMOOTH",
"99 57 OFFCURVE",
"82 44 OFFCURVE",
"44 44 CURVE SMOOTH",
"12 44 LINE",
"12 0 LINE"
);
},
{
closed = 1;
nodes = (
"637 326 LINE",
"637 389 LINE",
"192 389 LINE",
"192 326 LINE"
);
}
);
width = 841;
}
);
note = H;
unicode = 0048;
},
{
glyphname = Hbar;
lastChange = "2015-12-01 13:13:43 +0000";
layers = (
{
layerId = "48F9CBD8-FA9F-4F3E-B644-8148CA6A9069";
name = Bold;
paths = (
{
closed = 1;
nodes = (
"829 0 LINE",
"829 44 LINE",
"797 44 LINE SMOOTH",
"759 44 OFFCURVE",
"742 57 OFFCURVE",
"742 83 CURVE SMOOTH",
"742 617 LINE SMOOTH",
"742 643 OFFCURVE",
"759 656 OFFCURVE",
"797 656 CURVE SMOOTH",
"829 656 LINE",
"829 700 LINE",
"470 700 LINE",
"470 656 LINE",
"501 656 LINE SMOOTH",
"540 656 OFFCURVE",
"556 643 OFFCURVE",
"556 617 CURVE SMOOTH",
"556 83 LINE SMOOTH",
"556 57 OFFCURVE",
"540 44 OFFCURVE",
"501 44 CURVE SMOOTH",
"470 44 LINE",
"470 0 LINE"
);
},
{
closed = 1;
nodes = (
"371 0 LINE",
"371 44 LINE",
"339 44 LINE SMOOTH",
"301 44 OFFCURVE",
"285 57 OFFCURVE",
"285 83 CURVE SMOOTH",
"285 617 LINE SMOOTH",
"285 643 OFFCURVE",
"301 656 OFFCURVE",
"339 656 CURVE SMOOTH",
"371 656 LINE",
"371 700 LINE",
"12 700 LINE",
"12 656 LINE",
"44 656 LINE SMOOTH",
"82 656 OFFCURVE",
"99 643 OFFCURVE",
"99 617 CURVE SMOOTH",
"99 83 LINE SMOOTH",
"99 57 OFFCURVE",
"82 44 OFFCURVE",
"44 44 CURVE SMOOTH",
"12 44 LINE",
"12 0 LINE"
);
},
{
closed = 1;
nodes = (
"637 326 LINE",
"637 389 LINE",
"192 389 LINE",
"192 326 LINE"
);
},
{
closed = 1;
nodes = (
"803 485 LINE",
"803 547 LINE",
"36 547 LINE",
"36 485 LINE"
);
}
);
width = 841;
}
);
note = Hbar;
unicode = 0126;
},
{
glyphname = Hbrevebelow;
lastChange = "2015-12-01 13:13:42 +0000";
layers = (
{
layerId = "48F9CBD8-FA9F-4F3E-B644-8148CA6A9069";
name = Bold;
paths = (
{
closed = 1;
nodes = (
"829 0 LINE",
"829 44 LINE",
"797 44 LINE SMOOTH",
"759 44 OFFCURVE",
"742 57 OFFCURVE",
"742 83 CURVE SMOOTH",
"742 617 LINE SMOOTH",
"742 643 OFFCURVE",
"759 656 OFFCURVE",
"797 656 CURVE SMOOTH",
"829 656 LINE",
"829 700 LINE",
"470 700 LINE",
"470 656 LINE",
"501 656 LINE SMOOTH",
"540 656 OFFCURVE",
"556 643 OFFCURVE",
"556 617 CURVE SMOOTH",
"556 83 LINE SMOOTH",
"556 57 OFFCURVE",
"540 44 OFFCURVE",
"501 44 CURVE SMOOTH",
"470 44 LINE",
"470 0 LINE"
);
},
{
closed = 1;
nodes = (
"554 -207 OFFCURVE",
"583 -124 OFFCURVE",
"583 -53 CURVE",
"540 -53 LINE",
"537 -84 OFFCURVE",
"514 -131 OFFCURVE",
"416 -131 CURVE SMOOTH",
"319 -131 OFFCURVE",
"293 -84 OFFCURVE",
"290 -53 CURVE",
"247 -53 LINE",
"248 -129 OFFCURVE",
"277 -207 OFFCURVE",
"416 -207 CURVE SMOOTH"
);
},
{
closed = 1;
nodes = (
"371 0 LINE",
"371 44 LINE",
"339 44 LINE SMOOTH",
"301 44 OFFCURVE",
"285 57 OFFCURVE",
"285 83 CURVE SMOOTH",
"285 617 LINE SMOOTH",
"285 643 OFFCURVE",
"301 656 OFFCURVE",
"339 656 CURVE SMOOTH",
"371 656 LINE",
"371 700 LINE",
"12 700 LINE",
"12 656 LINE",
"44 656 LINE SMOOTH",
"82 656 OFFCURVE",
"99 643 OFFCURVE",
"99 617 CURVE SMOOTH",
"99 83 LINE SMOOTH",
"99 57 OFFCURVE",
"82 44 OFFCURVE",
"44 44 CURVE SMOOTH",
"12 44 LINE",
"12 0 LINE"
);
},
{
closed = 1;
nodes = (
"637 326 LINE",
"637 389 LINE",
"192 389 LINE",
"192 326 LINE"
);
}
);
width = 841;
}
);
note = Hbrevebelow;
unicode = 1E2A;
},
{
glyphname = Hcircumflex;
lastChange = "2015-12-01 13:13:42 +0000";
layers = (
{
layerId = "48F9CBD8-FA9F-4F3E-B644-8148CA6A9069";
name = Bold;
paths = (
{
closed = 1;
nodes = (
"829 0 LINE",
"829 44 LINE",
"797 44 LINE SMOOTH",
"759 44 OFFCURVE",
"742 57 OFFCURVE",
"742 83 CURVE SMOOTH",
"742 617 LINE SMOOTH",
"742 643 OFFCURVE",
"759 656 OFFCURVE",
"797 656 CURVE SMOOTH",
"829 656 LINE",
"829 700 LINE",
"470 700 LINE",
"470 656 LINE",
"501 656 LINE SMOOTH",
"540 656 OFFCURVE",
"556 643 OFFCURVE",
"556 617 CURVE SMOOTH",
"556 83 LINE SMOOTH",
"556 57 OFFCURVE",
"540 44 OFFCURVE",
"501 44 CURVE SMOOTH",
"470 44 LINE",
"470 0 LINE"
);
},
{
closed = 1;
nodes = (
"371 0 LINE",
"371 44 LINE",
"339 44 LINE SMOOTH",
"301 44 OFFCURVE",
"285 57 OFFCURVE",
"285 83 CURVE SMOOTH",
"285 617 LINE SMOOTH",
"285 643 OFFCURVE",
"301 656 OFFCURVE",
"339 656 CURVE SMOOTH",
"371 656 LINE",
"371 700 LINE",
"12 700 LINE",
"12 656 LINE",
"44 656 LINE SMOOTH",
"82 656 OFFCURVE",
"99 643 OFFCURVE",
"99 617 CURVE SMOOTH",
"99 83 LINE SMOOTH",
"99 57 OFFCURVE",
"82 44 OFFCURVE",
"44 44 CURVE SMOOTH",
"12 44 LINE",
"12 0 LINE"
);
},
{
closed = 1;
nodes = (
"637 326 LINE",
"637 389 LINE",
"192 389 LINE",
"192 326 LINE"
);
},
{
closed = 1;
nodes = (
"380 876 LINE",
"395 888 OFFCURVE",
"409 895 OFFCURVE",
"420 895 CURVE SMOOTH",
"431 895 OFFCURVE",
"445 888 OFFCURVE",
"460 876 CURVE SMOOTH",
"594 776 LINE",
"622 804 LINE",
"464 978 LINE",
"376 978 LINE",
"218 804 LINE",
"245 776 LINE"
);
}
);
width = 841;
}
);
note = Hcircumflex;
unicode = 0124;
},
{
glyphname = Hdotbelow;
lastChange = "2015-12-01 13:13:41 +0000";
layers = (
{
layerId = "48F9CBD8-FA9F-4F3E-B644-8148CA6A9069";
name = Bold;
paths = (
{
closed = 1;
nodes = (
"829 0 LINE",
"829 44 LINE",
"797 44 LINE SMOOTH",
"759 44 OFFCURVE",
"742 57 OFFCURVE",
"742 83 CURVE SMOOTH",
"742 617 LINE SMOOTH",
"742 643 OFFCURVE",
"759 656 OFFCURVE",
"797 656 CURVE SMOOTH",
"829 656 LINE",
"829 700 LINE",
"470 700 LINE",
"470 656 LINE",
"501 656 LINE SMOOTH",
"540 656 OFFCURVE",
"556 643 OFFCURVE",
"556 617 CURVE SMOOTH",
"556 83 LINE SMOOTH",
"556 57 OFFCURVE",
"540 44 OFFCURVE",
"501 44 CURVE SMOOTH",
"470 44 LINE",
"470 0 LINE"
);
},
{
closed = 1;
nodes = (
"461 -205 OFFCURVE",
"488 -174 OFFCURVE",
"488 -135 CURVE SMOOTH",
"488 -96 OFFCURVE",
"461 -64 OFFCURVE",
"418 -64 CURVE SMOOTH",
"375 -64 OFFCURVE",
"348 -96 OFFCURVE",
"348 -135 CURVE SMOOTH",
"348 -174 OFFCURVE",
"375 -205 OFFCURVE",
"418 -205 CURVE SMOOTH"
);
},
{
closed = 1;
nodes = (
"371 0 LINE",
"371 44 LINE",
"339 44 LINE SMOOTH",
"301 44 OFFCURVE",
"285 57 OFFCURVE",
"285 83 CURVE SMOOTH",
"285 617 LINE SMOOTH",
"285 643 OFFCURVE",
"301 656 OFFCURVE",
"339 656 CURVE SMOOTH",
"371 656 LINE",
"371 700 LINE",
"12 700 LINE",
"12 656 LINE",
"44 656 LINE SMOOTH",
"82 656 OFFCURVE",
"99 643 OFFCURVE",
"99 617 CURVE SMOOTH",
"99 83 LINE SMOOTH",
"99 57 OFFCURVE",
"82 44 OFFCURVE",
"44 44 CURVE SMOOTH",
"12 44 LINE",
"12 0 LINE"
);
},
{
closed = 1;
nodes = (
"637 326 LINE",
"637 389 LINE",
"192 389 LINE",
"192 326 LINE"
);
}
);
width = 841;
}
);
note = Hdotbelow;
unicode = 1E24;
},
{
glyphname = I;
lastChange = "2015-12-01 13:13:37 +0000";
layers = (
{
layerId = "48F9CBD8-FA9F-4F3E-B644-8148CA6A9069";
name = Bold;
paths = (
{
closed = 1;
nodes = (
"376 0 LINE",
"376 44 LINE",
"345 44 LINE SMOOTH",
"307 44 OFFCURVE",
"290 57 OFFCURVE",
"290 83 CURVE SMOOTH",
"290 617 LINE SMOOTH",
"290 643 OFFCURVE",
"307 656 OFFCURVE",
"345 656 CURVE SMOOTH",
"376 656 LINE",
"376 700 LINE",
"18 700 LINE",
"18 656 LINE",
"49 656 LINE SMOOTH",
"87 656 OFFCURVE",
"104 643 OFFCURVE",
"104 617 CURVE SMOOTH",
"104 83 LINE SMOOTH",
"104 57 OFFCURVE",
"87 44 OFFCURVE",
"49 44 CURVE SMOOTH",
"18 44 LINE",
"18 0 LINE"
);
}
);
width = 394;
}
);
note = I;
unicode = 0049;
},
{
glyphname = IJ;
lastChange = "2015-12-01 13:13:43 +0000";
layers = (
{
layerId = "48F9CBD8-FA9F-4F3E-B644-8148CA6A9069";
name = Bold;
paths = (
{
closed = 1;
nodes = (
"608 -114 OFFCURVE",
"733 -40 OFFCURVE",
"733 132 CURVE SMOOTH",
"733 617 LINE SMOOTH",
"733 643 OFFCURVE",
"749 656 OFFCURVE",
"787 656 CURVE SMOOTH",
"819 656 LINE",
"819 700 LINE",
"460 700 LINE",
"460 656 LINE",
"492 656 LINE SMOOTH",
"530 656 OFFCURVE",
"547 643 OFFCURVE",
"547 617 CURVE SMOOTH",
"547 135 LINE SMOOTH",
"547 30 OFFCURVE",
"532 -55 OFFCURVE",
"429 -85 CURVE",
"435 -114 LINE"
);
},
{
closed = 1;
nodes = (
"376 0 LINE",
"376 44 LINE",
"345 44 LINE SMOOTH",
"307 44 OFFCURVE",
"290 57 OFFCURVE",
"290 83 CURVE SMOOTH",
"290 617 LINE SMOOTH",
"290 643 OFFCURVE",
"307 656 OFFCURVE",
"345 656 CURVE SMOOTH",
"376 656 LINE",
"376 700 LINE",
"18 700 LINE",
"18 656 LINE",
"49 656 LINE SMOOTH",
"87 656 OFFCURVE",
"104 643 OFFCURVE",
"104 617 CURVE SMOOTH",
"104 83 LINE SMOOTH",
"104 57 OFFCURVE",
"87 44 OFFCURVE",
"49 44 CURVE SMOOTH",
"18 44 LINE",
"18 0 LINE"
);
}
);
width = 837;
}
);
note = IJ;
rightKerningGroup = J;
unicode = 0132;
},
{
glyphname = Iacute;
lastChange = "2015-12-01 13:13:42 +0000";
layers = (
{
layerId = "48F9CBD8-FA9F-4F3E-B644-8148CA6A9069";
name = Bold;
paths = (
{
closed = 1;
nodes = (
"376 0 LINE",
"376 44 LINE",
"345 44 LINE SMOOTH",
"307 44 OFFCURVE",
"290 57 OFFCURVE",
"290 83 CURVE SMOOTH",
"290 617 LINE SMOOTH",
"290 643 OFFCURVE",
"307 656 OFFCURVE",
"345 656 CURVE SMOOTH",
"376 656 LINE",
"376 700 LINE",
"18 700 LINE",
"18 656 LINE",
"49 656 LINE SMOOTH",
"87 656 OFFCURVE",
"104 643 OFFCURVE",
"104 617 CURVE SMOOTH",
"104 83 LINE SMOOTH",
"104 57 OFFCURVE",
"87 44 OFFCURVE",
"49 44 CURVE SMOOTH",
"18 44 LINE",
"18 0 LINE"
);
},
{
closed = 1;
nodes = (
"268 872 LINE SMOOTH",
"304 893 OFFCURVE",
"325 914 OFFCURVE",
"325 941 CURVE SMOOTH",
"325 964 OFFCURVE",
"308 991 OFFCURVE",
"266 991 CURVE SMOOTH",
"229 991 OFFCURVE",
"201 960 OFFCURVE",
"195 952 CURVE",
"70 820 LINE",
"102 775 LINE"
);
}
);
width = 394;
}
);
note = Iacute;
unicode = 00CD;
},
{
glyphname = Ibreve;
lastChange = "2015-12-01 13:13:41 +0000";
layers = (
{
layerId = "48F9CBD8-FA9F-4F3E-B644-8148CA6A9069";
name = Bold;
paths = (
{
closed = 1;
nodes = (
"376 0 LINE",
"376 44 LINE",
"345 44 LINE SMOOTH",
"307 44 OFFCURVE",
"290 57 OFFCURVE",
"290 83 CURVE SMOOTH",
"290 617 LINE SMOOTH",
"290 643 OFFCURVE",
"307 656 OFFCURVE",
"345 656 CURVE SMOOTH",
"376 656 LINE",
"376 700 LINE",
"18 700 LINE",
"18 656 LINE",
"49 656 LINE SMOOTH",
"87 656 OFFCURVE",
"104 643 OFFCURVE",
"104 617 CURVE SMOOTH",
"104 83 LINE SMOOTH",
"104 57 OFFCURVE",
"87 44 OFFCURVE",
"49 44 CURVE SMOOTH",
"18 44 LINE",
"18 0 LINE"
);
},
{
closed = 1;
nodes = (
"335 777 OFFCURVE",
"364 860 OFFCURVE",
"364 931 CURVE",
"321 931 LINE",
"318 900 OFFCURVE",
"295 852 OFFCURVE",
"197 852 CURVE SMOOTH",
"100 852 OFFCURVE",
"74 900 OFFCURVE",
"71 931 CURVE",
"28 931 LINE",
"29 855 OFFCURVE",
"58 777 OFFCURVE",
"197 777 CURVE SMOOTH"
);
}
);
width = 394;
}
);
note = Ibreve;
unicode = 012C;
},
{
glyphname = Icaron;
lastChange = "2015-12-01 13:16:54 +0000";
layers = (
{
layerId = "48F9CBD8-FA9F-4F3E-B644-8148CA6A9069";
name = Bold;
paths = (
{
closed = 1;
nodes = (
"376 0 LINE",
"376 44 LINE",
"345 44 LINE SMOOTH",
"307 44 OFFCURVE",
"290 57 OFFCURVE",
"290 83 CURVE SMOOTH",
"290 617 LINE SMOOTH",
"290 643 OFFCURVE",
"307 656 OFFCURVE",
"345 656 CURVE SMOOTH",
"376 656 LINE",
"376 700 LINE",
"18 700 LINE",
"18 656 LINE",
"49 656 LINE SMOOTH",
"87 656 OFFCURVE",
"104 643 OFFCURVE",
"104 617 CURVE SMOOTH",
"104 83 LINE SMOOTH",
"104 57 OFFCURVE",
"87 44 OFFCURVE",
"49 44 CURVE SMOOTH",
"18 44 LINE",
"18 0 LINE"
);
},
{
closed = 1;
nodes = (
"241 776 LINE",
"399 950 LINE",
"371 978 LINE",
"237 878 LINE SMOOTH",
"222 866 OFFCURVE",
"208 859 OFFCURVE",
"197 859 CURVE SMOOTH",
"186 859 OFFCURVE",
"172 866 OFFCURVE",
"157 878 CURVE",
"22 978 LINE",
"-5 950 LINE",
"153 776 LINE"
);
}
);
width = 394;
}
);
note = Icaron;
unicode = 01CF;
},
{
glyphname = Icircumflex;
lastChange = "2015-12-01 13:13:41 +0000";
layers = (
{
layerId = "48F9CBD8-FA9F-4F3E-B644-8148CA6A9069";
name = Bold;
paths = (
{
closed = 1;
nodes = (
"376 0 LINE",
"376 44 LINE",
"345 44 LINE SMOOTH",
"307 44 OFFCURVE",
"290 57 OFFCURVE",
"290 83 CURVE SMOOTH",
"290 617 LINE SMOOTH",
"290 643 OFFCURVE",
"307 656 OFFCURVE",
"345 656 CURVE SMOOTH",
"376 656 LINE",
"376 700 LINE",
"18 700 LINE",
"18 656 LINE",
"49 656 LINE SMOOTH",
"87 656 OFFCURVE",
"104 643 OFFCURVE",
"104 617 CURVE SMOOTH",
"104 83 LINE SMOOTH",
"104 57 OFFCURVE",
"87 44 OFFCURVE",
"49 44 CURVE SMOOTH",
"18 44 LINE",
"18 0 LINE"
);
},
{
closed = 1;
nodes = (
"157 876 LINE",
"172 888 OFFCURVE",
"186 895 OFFCURVE",
"197 895 CURVE SMOOTH",
"208 895 OFFCURVE",
"222 888 OFFCURVE",
"237 876 CURVE SMOOTH",
"371 776 LINE",
"399 804 LINE",
"241 978 LINE",
"153 978 LINE",
"-5 804 LINE",
"22 776 LINE"
);
}
);
width = 394;
}
);
note = Icircumflex;
unicode = 00CE;
},
{
glyphname = Idieresis;
lastChange = "2015-12-01 13:13:40 +0000";
layers = (
{
layerId = "48F9CBD8-FA9F-4F3E-B644-8148CA6A9069";
name = Bold;
paths = (
{
closed = 1;
nodes = (
"376 0 LINE",
"376 44 LINE",
"345 44 LINE SMOOTH",
"307 44 OFFCURVE",
"290 57 OFFCURVE",
"290 83 CURVE SMOOTH",
"290 617 LINE SMOOTH",
"290 643 OFFCURVE",
"307 656 OFFCURVE",
"345 656 CURVE SMOOTH",
"376 656 LINE",
"376 700 LINE",
"18 700 LINE",
"18 656 LINE",
"49 656 LINE SMOOTH",
"87 656 OFFCURVE",
"104 643 OFFCURVE",
"104 617 CURVE SMOOTH",
"104 83 LINE SMOOTH",
"104 57 OFFCURVE",
"87 44 OFFCURVE",
"49 44 CURVE SMOOTH",
"18 44 LINE",
"18 0 LINE"
);
},
{
closed = 1;
nodes = (
"119 776 OFFCURVE",
"146 806 OFFCURVE",
"146 845 CURVE SMOOTH",
"146 885 OFFCURVE",
"119 916 OFFCURVE",
"75 916 CURVE SMOOTH",
"32 916 OFFCURVE",
"6 885 OFFCURVE",
"6 845 CURVE SMOOTH",
"6 806 OFFCURVE",
"32 776 OFFCURVE",
"75 776 CURVE SMOOTH"
);
},
{
closed = 1;
nodes = (
"361 776 OFFCURVE",
"388 806 OFFCURVE",
"388 845 CURVE SMOOTH",
"388 885 OFFCURVE",
"361 916 OFFCURVE",
"318 916 CURVE SMOOTH",
"273 916 OFFCURVE",
"247 885 OFFCURVE",
"247 845 CURVE SMOOTH",
"247 806 OFFCURVE",
"273 776 OFFCURVE",
"318 776 CURVE SMOOTH"
);
}
);
width = 394;
}
);
note = Idieresis;
unicode = 00CF;
},
{
glyphname = Idotaccent;
lastChange = "2015-12-01 13:13:41 +0000";
layers = (
{
layerId = "48F9CBD8-FA9F-4F3E-B644-8148CA6A9069";
name = Bold;
paths = (
{
closed = 1;
nodes = (
"376 0 LINE",
"376 44 LINE",
"345 44 LINE SMOOTH",
"307 44 OFFCURVE",
"290 57 OFFCURVE",
"290 83 CURVE SMOOTH",
"290 617 LINE SMOOTH",
"290 643 OFFCURVE",
"307 656 OFFCURVE",
"345 656 CURVE SMOOTH",
"376 656 LINE",
"376 700 LINE",
"18 700 LINE",
"18 656 LINE",
"49 656 LINE SMOOTH",
"87 656 OFFCURVE",
"104 643 OFFCURVE",
"104 617 CURVE SMOOTH",
"104 83 LINE SMOOTH",
"104 57 OFFCURVE",
"87 44 OFFCURVE",
"49 44 CURVE SMOOTH",
"18 44 LINE",
"18 0 LINE"
);
},
{
closed = 1;
nodes = (
"239 773 OFFCURVE",
"266 803 OFFCURVE",
"266 842 CURVE SMOOTH",
"266 881 OFFCURVE",
"239 912 OFFCURVE",
"196 912 CURVE SMOOTH",
"153 912 OFFCURVE",
"127 881 OFFCURVE",
"127 842 CURVE SMOOTH",
"127 803 OFFCURVE",
"153 773 OFFCURVE",
"196 773 CURVE SMOOTH"
);
}
);
width = 394;
}
);
note = Idotaccent;
unicode = 0130;
},
{
glyphname = Idotbelow;
lastChange = "2015-12-01 13:16:54 +0000";
layers = (
{
layerId = "48F9CBD8-FA9F-4F3E-B644-8148CA6A9069";
name = Bold;
paths = (
{
closed = 1;
nodes = (
"376 0 LINE",
"376 44 LINE",
"345 44 LINE SMOOTH",
"307 44 OFFCURVE",
"290 57 OFFCURVE",
"290 83 CURVE SMOOTH",
"290 617 LINE SMOOTH",
"290 643 OFFCURVE",
"307 656 OFFCURVE",
"345 656 CURVE SMOOTH",
"376 656 LINE",
"376 700 LINE",
"18 700 LINE",
"18 656 LINE",
"49 656 LINE SMOOTH",
"87 656 OFFCURVE",
"104 643 OFFCURVE",
"104 617 CURVE SMOOTH",
"104 83 LINE SMOOTH",
"104 57 OFFCURVE",
"87 44 OFFCURVE",
"49 44 CURVE SMOOTH",
"18 44 LINE",
"18 0 LINE"
);
},
{
closed = 1;
nodes = (
"240 -205 OFFCURVE",
"267 -174 OFFCURVE",
"267 -135 CURVE SMOOTH",
"267 -96 OFFCURVE",
"240 -64 OFFCURVE",
"197 -64 CURVE SMOOTH",
"154 -64 OFFCURVE",
"127 -96 OFFCURVE",
"127 -135 CURVE SMOOTH",
"127 -174 OFFCURVE",
"154 -205 OFFCURVE",
"197 -205 CURVE SMOOTH"
);
}
);
width = 394;
}
);
note = Idotbelow;
unicode = 1ECA;
},
{
glyphname = Igrave;
lastChange = "2015-12-01 13:13:41 +0000";
layers = (
{
layerId = "48F9CBD8-FA9F-4F3E-B644-8148CA6A9069";
name = Bold;
paths = (
{
closed = 1;
nodes = (
"376 0 LINE",
"376 44 LINE",
"345 44 LINE SMOOTH",
"307 44 OFFCURVE",
"290 57 OFFCURVE",
"290 83 CURVE SMOOTH",
"290 617 LINE SMOOTH",
"290 643 OFFCURVE",
"307 656 OFFCURVE",
"345 656 CURVE SMOOTH",
"376 656 LINE",
"376 700 LINE",
"18 700 LINE",
"18 656 LINE",
"49 656 LINE SMOOTH",
"87 656 OFFCURVE",
"104 643 OFFCURVE",
"104 617 CURVE SMOOTH",
"104 83 LINE SMOOTH",
"104 57 OFFCURVE",
"87 44 OFFCURVE",
"49 44 CURVE SMOOTH",
"18 44 LINE",
"18 0 LINE"
);
},
{
closed = 1;
nodes = (
"324 820 LINE",
"200 952 LINE",
"193 960 OFFCURVE",
"165 991 OFFCURVE",
"128 991 CURVE SMOOTH",
"86 991 OFFCURVE",
"70 964 OFFCURVE",
"70 942 CURVE SMOOTH",
"70 914 OFFCURVE",
"90 893 OFFCURVE",
"125 872 CURVE SMOOTH",
"292 775 LINE"
);
}
);
width = 394;
}
);
note = Igrave;
unicode = 00CC;
},
{
glyphname = Ihookabove;
lastChange = "2015-12-01 13:16:54 +0000";
layers = (
{
layerId = "48F9CBD8-FA9F-4F3E-B644-8148CA6A9069";
name = Bold;
paths = (
{
closed = 1;
nodes = (
"376 0 LINE",
"376 44 LINE",
"345 44 LINE SMOOTH",
"307 44 OFFCURVE",
"290 57 OFFCURVE",
"290 83 CURVE SMOOTH",
"290 617 LINE SMOOTH",
"290 643 OFFCURVE",
"307 656 OFFCURVE",
"345 656 CURVE SMOOTH",
"376 656 LINE",
"376 700 LINE",
"18 700 LINE",
"18 656 LINE",
"49 656 LINE SMOOTH",
"87 656 OFFCURVE",
"104 643 OFFCURVE",
"104 617 CURVE SMOOTH",
"104 83 LINE SMOOTH",
"104 57 OFFCURVE",
"87 44 OFFCURVE",
"49 44 CURVE SMOOTH",
"18 44 LINE",
"18 0 LINE"
);
},
{
closed = 1;
nodes = (
"230 801 LINE",
"216 803 OFFCURVE",
"200 807 OFFCURVE",
"200 828 CURVE SMOOTH",
"200 874 OFFCURVE",
"315 882 OFFCURVE",
"315 950 CURVE SMOOTH",
"315 1001 OFFCURVE",
"260 1026 OFFCURVE",
"197 1026 CURVE SMOOTH",
"111 1026 OFFCURVE",
"81 989 OFFCURVE",
"81 962 CURVE SMOOTH",
"81 937 OFFCURVE",
"99 926 OFFCURVE",
"117 926 CURVE SMOOTH",
"139 926 OFFCURVE",
"153 941 OFFCURVE",
"154 957 CURVE SMOOTH",
"155 984 OFFCURVE",
"179 991 OFFCURVE",
"196 991 CURVE SMOOTH",
"218 991 OFFCURVE",
"229 974 OFFCURVE",
"229 957 CURVE SMOOTH",
"229 895 OFFCURVE",
"134 883 OFFCURVE",
"134 830 CURVE SMOOTH",
"134 796 OFFCURVE",
"172 776 OFFCURVE",
"221 776 CURVE"
);
}
);
width = 394;
}
);
note = Ihookabove;
unicode = 1EC8;
},
{
glyphname = Imacron;
lastChange = "2015-12-01 13:17:00 +0000";
layers = (
{
layerId = "48F9CBD8-FA9F-4F3E-B644-8148CA6A9069";
name = Bold;
paths = (
{
closed = 1;
nodes = (
"376 0 LINE",
"376 44 LINE",
"345 44 LINE SMOOTH",
"307 44 OFFCURVE",
"290 57 OFFCURVE",
"290 83 CURVE SMOOTH",
"290 617 LINE SMOOTH",
"290 643 OFFCURVE",
"307 656 OFFCURVE",
"345 656 CURVE SMOOTH",
"376 656 LINE",
"376 700 LINE",
"18 700 LINE",
"18 656 LINE",
"49 656 LINE SMOOTH",
"87 656 OFFCURVE",
"104 643 OFFCURVE",
"104 617 CURVE SMOOTH",
"104 83 LINE SMOOTH",
"104 57 OFFCURVE",
"87 44 OFFCURVE",
"49 44 CURVE SMOOTH",
"18 44 LINE",
"18 0 LINE"
);
},
{
closed = 1;
nodes = (
"429 788 LINE",
"429 866 LINE",
"-29 866 LINE",
"-29 788 LINE"
);
}
);
width = 394;
}
);
note = Imacron;
unicode = 012A;
},
{
glyphname = Iogonek;
lastChange = "2015-12-01 13:13:41 +0000";
layers = (
{
layerId = "48F9CBD8-FA9F-4F3E-B644-8148CA6A9069";
name = Bold;
paths = (
{
closed = 1;
nodes = (
"376 0 LINE",
"376 44 LINE",
"345 44 LINE SMOOTH",
"307 44 OFFCURVE",
"290 57 OFFCURVE",
"290 83 CURVE SMOOTH",
"290 617 LINE SMOOTH",
"290 643 OFFCURVE",
"307 656 OFFCURVE",
"345 656 CURVE SMOOTH",
"376 656 LINE",
"376 700 LINE",
"18 700 LINE",
"18 656 LINE",
"49 656 LINE SMOOTH",
"87 656 OFFCURVE",
"104 643 OFFCURVE",
"104 617 CURVE SMOOTH",
"104 83 LINE SMOOTH",
"104 57 OFFCURVE",
"87 44 OFFCURVE",
"49 44 CURVE SMOOTH",
"18 44 LINE",
"18 0 LINE"
);
},
{
closed = 1;
nodes = (
"271 -234 OFFCURVE",
"312 -221 OFFCURVE",
"348 -192 CURVE",
"334 -166 LINE",
"320 -173 OFFCURVE",
"299 -179 OFFCURVE",
"284 -179 CURVE SMOOTH",
"250 -179 OFFCURVE",
"225 -159 OFFCURVE",
"224 -117 CURVE",
"224 -76 OFFCURVE",
"247 -32 OFFCURVE",
"301 11 CURVE",
"239 11 LINE",
"174 -23 OFFCURVE",
"119 -76 OFFCURVE",
"119 -135 CURVE SMOOTH",
"119 -172 OFFCURVE",
"140 -234 OFFCURVE",
"240 -234 CURVE SMOOTH"
);
}
);
width = 394;
}
);
note = Iogonek;
unicode = 012E;
},
{
glyphname = Itilde;
lastChange = "2015-12-01 13:13:41 +0000";
layers = (
{
layerId = "48F9CBD8-FA9F-4F3E-B644-8148CA6A9069";
name = Bold;
paths = (
{
closed = 1;
nodes = (
"376 0 LINE",
"376 44 LINE",
"345 44 LINE SMOOTH",
"307 44 OFFCURVE",
"290 57 OFFCURVE",
"290 83 CURVE SMOOTH",
"290 617 LINE SMOOTH",
"290 643 OFFCURVE",
"307 656 OFFCURVE",
"345 656 CURVE SMOOTH",
"376 656 LINE",
"376 700 LINE",
"18 700 LINE",
"18 656 LINE",
"49 656 LINE SMOOTH",
"87 656 OFFCURVE",
"104 643 OFFCURVE",
"104 617 CURVE SMOOTH",
"104 83 LINE SMOOTH",
"104 57 OFFCURVE",
"87 44 OFFCURVE",
"49 44 CURVE SMOOTH",
"18 44 LINE",
"18 0 LINE"
);
},
{
closed = 1;
nodes = (
"50 812 OFFCURVE",
"67 829 OFFCURVE",
"104 829 CURVE SMOOTH",
"168 829 OFFCURVE",
"225 783 OFFCURVE",
"287 783 CURVE SMOOTH",
"366 783 OFFCURVE",
"402 859 OFFCURVE",
"419 905 CURVE",
"388 922 LINE",
"366 882 OFFCURVE",
"350 864 OFFCURVE",
"312 864 CURVE SMOOTH",
"249 864 OFFCURVE",
"192 910 OFFCURVE",
"130 910 CURVE SMOOTH",
"51 910 OFFCURVE",
"15 835 OFFCURVE",
"-3 789 CURVE",
"29 772 LINE"
);
}
);
width = 394;
}
);
note = Itilde;
unicode = 0128;
},
{
glyphname = J;
lastChange = "2015-12-01 13:13:37 +0000";
layers = (
{
layerId = "48F9CBD8-FA9F-4F3E-B644-8148CA6A9069";
name = Bold;
paths = (
{
closed = 1;
nodes = (
"225 -114 OFFCURVE",
"350 -40 OFFCURVE",
"350 132 CURVE SMOOTH",
"350 617 LINE SMOOTH",
"350 643 OFFCURVE",
"366 656 OFFCURVE",
"404 656 CURVE SMOOTH",
"436 656 LINE",
"436 700 LINE",
"77 700 LINE",
"77 656 LINE",
"109 656 LINE SMOOTH",
"147 656 OFFCURVE",
"164 643 OFFCURVE",
"164 617 CURVE SMOOTH",
"164 135 LINE SMOOTH",
"164 30 OFFCURVE",
"149 -55 OFFCURVE",
"46 -85 CURVE",
"52 -114 LINE"
);
}
);
width = 454;
}
);
leftKerningGroup = J;
note = J;
rightKerningGroup = J;
unicode = 004A;
},
{
glyphname = Jcircumflex;
lastChange = "2015-12-01 13:13:41 +0000";
layers = (
{
layerId = "48F9CBD8-FA9F-4F3E-B644-8148CA6A9069";
name = Bold;
paths = (
{
closed = 1;
nodes = (
"225 -114 OFFCURVE",
"350 -40 OFFCURVE",
"350 132 CURVE SMOOTH",
"350 617 LINE SMOOTH",
"350 643 OFFCURVE",
"366 656 OFFCURVE",
"404 656 CURVE SMOOTH",
"436 656 LINE",
"436 700 LINE",
"77 700 LINE",
"77 656 LINE",
"109 656 LINE SMOOTH",
"147 656 OFFCURVE",
"164 643 OFFCURVE",
"164 617 CURVE SMOOTH",
"164 135 LINE SMOOTH",
"164 30 OFFCURVE",
"149 -55 OFFCURVE",
"46 -85 CURVE",
"52 -114 LINE"
);
},
{
closed = 1;
nodes = (
"212 879 LINE",
"227 891 OFFCURVE",
"241 898 OFFCURVE",
"252 898 CURVE SMOOTH",
"263 898 OFFCURVE",
"277 891 OFFCURVE",
"292 879 CURVE SMOOTH",
"426 779 LINE",
"454 807 LINE",
"296 981 LINE",
"208 981 LINE",
"50 807 LINE",
"77 779 LINE"
);
}
);
width = 454;
}
);
leftKerningGroup = J;
note = Jcircumflex;
rightKerningGroup = J;
unicode = 0134;
},
{
glyphname = K;
lastChange = "2015-12-01 13:13:43 +0000";
layers = (
{
layerId = "48F9CBD8-FA9F-4F3E-B644-8148CA6A9069";
name = Bold;
paths = (
{
closed = 1;
nodes = (
"371 0 LINE",
"371 44 LINE",
"339 44 LINE SMOOTH",
"301 44 OFFCURVE",
"285 57 OFFCURVE",
"285 83 CURVE SMOOTH",
"285 617 LINE SMOOTH",
"285 643 OFFCURVE",
"301 656 OFFCURVE",
"339 656 CURVE SMOOTH",
"371 656 LINE",
"371 700 LINE",
"12 700 LINE",
"12 656 LINE",
"44 656 LINE SMOOTH",
"82 656 OFFCURVE",
"99 643 OFFCURVE",
"99 617 CURVE SMOOTH",
"99 83 LINE SMOOTH",
"99 57 OFFCURVE",
"82 44 OFFCURVE",
"44 44 CURVE SMOOTH",
"12 44 LINE",
"12 0 LINE"
);
},
{
closed = 1;
nodes = (
"804 0 LINE",
"804 44 LINE",
"772 44 LINE SMOOTH",
"739 44 OFFCURVE",
"703 67 OFFCURVE",
"677 95 CURVE SMOOTH",
"394 402 LINE",
"274 298 LINE",
"554 0 LINE"
);
},
{
closed = 1;
nodes = (
"666 637 LINE SMOOTH",
"679 648 OFFCURVE",
"698 656 OFFCURVE",
"720 656 CURVE SMOOTH",
"748 656 LINE",
"748 700 LINE",
"501 700 LINE",
"501 656 LINE",
"517 656 LINE SMOOTH",
"543 656 OFFCURVE",
"553 648 OFFCURVE",
"553 638 CURVE SMOOTH",
"553 631 OFFCURVE",
"549 626 OFFCURVE",
"543 620 CURVE",
"275 382 LINE",
"275 286 LINE"
);
}
);
width = 811;
}
);
note = K;
rightKerningGroup = K;
unicode = 004B;
},
{
glyphname = Kcommaaccent;
lastChange = "2015-12-01 13:13:41 +0000";
layers = (
{
layerId = "48F9CBD8-FA9F-4F3E-B644-8148CA6A9069";
name = Bold;
paths = (
{
closed = 1;
nodes = (
"371 0 LINE",
"371 44 LINE",
"339 44 LINE SMOOTH",
"301 44 OFFCURVE",
"285 57 OFFCURVE",
"285 83 CURVE SMOOTH",
"285 617 LINE SMOOTH",
"285 643 OFFCURVE",
"301 656 OFFCURVE",
"339 656 CURVE SMOOTH",
"371 656 LINE",
"371 700 LINE",
"12 700 LINE",
"12 656 LINE",
"44 656 LINE SMOOTH",
"82 656 OFFCURVE",
"99 643 OFFCURVE",
"99 617 CURVE SMOOTH",
"99 83 LINE SMOOTH",
"99 57 OFFCURVE",
"82 44 OFFCURVE",
"44 44 CURVE SMOOTH",
"12 44 LINE",
"12 0 LINE"
);
},
{
closed = 1;
nodes = (
"426 -343 OFFCURVE",
"503 -260 OFFCURVE",
"503 -177 CURVE SMOOTH",
"503 -112 OFFCURVE",
"466 -75 OFFCURVE",
"419 -75 CURVE SMOOTH",
"374 -75 OFFCURVE",
"346 -105 OFFCURVE",
"346 -139 CURVE SMOOTH",
"346 -182 OFFCURVE",
"390 -199 OFFCURVE",
"390 -243 CURVE SMOOTH",
"390 -287 OFFCURVE",
"365 -326 OFFCURVE",
"331 -361 CURVE",
"359 -387 LINE"
);
},
{
closed = 1;
nodes = (
"804 0 LINE",
"804 44 LINE",
"772 44 LINE SMOOTH",
"739 44 OFFCURVE",
"703 67 OFFCURVE",
"677 95 CURVE SMOOTH",
"394 402 LINE",
"274 298 LINE",
"554 0 LINE"
);
},
{
closed = 1;
nodes = (
"666 637 LINE SMOOTH",
"679 648 OFFCURVE",
"698 656 OFFCURVE",
"720 656 CURVE SMOOTH",
"748 656 LINE",
"748 700 LINE",
"501 700 LINE",
"501 656 LINE",
"517 656 LINE SMOOTH",
"543 656 OFFCURVE",
"553 648 OFFCURVE",
"553 638 CURVE SMOOTH",
"553 631 OFFCURVE",
"549 626 OFFCURVE",
"543 620 CURVE",
"275 382 LINE",
"275 286 LINE"
);
}
);
width = 811;
}
);
note = Kcommaaccent;
rightKerningGroup = K;
unicode = 0136;
},
{
glyphname = L;
lastChange = "2015-12-01 13:13:37 +0000";
layers = (
{
layerId = "48F9CBD8-FA9F-4F3E-B644-8148CA6A9069";
name = Bold;
paths = (
{
closed = 1;
nodes = (
"652 0 LINE",
"673 214 LINE",
"625 214 LINE",
"618 172 OFFCURVE",
"590 62 OFFCURVE",
"521 62 CURVE SMOOTH",
"349 62 LINE SMOOTH",
"312 62 OFFCURVE",
"290 78 OFFCURVE",
"290 114 CURVE SMOOTH",
"290 617 LINE SMOOTH",
"290 643 OFFCURVE",
"307 656 OFFCURVE",
"345 656 CURVE SMOOTH",
"376 656 LINE",
"376 700 LINE",
"18 700 LINE",
"18 656 LINE",
"49 656 LINE SMOOTH",
"87 656 OFFCURVE",
"104 643 OFFCURVE",
"104 617 CURVE SMOOTH",
"104 83 LINE SMOOTH",
"104 57 OFFCURVE",
"87 44 OFFCURVE",
"49 44 CURVE SMOOTH",
"18 44 LINE",
"18 0 LINE"
);
}
);
width = 693;
}
);
note = L;
rightKerningGroup = L;
unicode = 004C;
},
{
glyphname = Lacute;
lastChange = "2015-12-01 13:13:42 +0000";
layers = (
{
layerId = "48F9CBD8-FA9F-4F3E-B644-8148CA6A9069";
name = Bold;
paths = (
{
closed = 1;
nodes = (
"652 0 LINE",
"673 214 LINE",
"625 214 LINE",
"618 172 OFFCURVE",
"590 62 OFFCURVE",
"521 62 CURVE SMOOTH",
"349 62 LINE SMOOTH",
"312 62 OFFCURVE",
"290 78 OFFCURVE",
"290 114 CURVE SMOOTH",
"290 617 LINE SMOOTH",
"290 643 OFFCURVE",
"307 656 OFFCURVE",
"345 656 CURVE SMOOTH",
"376 656 LINE",
"376 700 LINE",
"18 700 LINE",
"18 656 LINE",
"49 656 LINE SMOOTH",
"87 656 OFFCURVE",
"104 643 OFFCURVE",
"104 617 CURVE SMOOTH",
"104 83 LINE SMOOTH",
"104 57 OFFCURVE",
"87 44 OFFCURVE",
"49 44 CURVE SMOOTH",
"18 44 LINE",
"18 0 LINE"
);
},
{
closed = 1;
nodes = (
"295 872 LINE SMOOTH",
"331 893 OFFCURVE",
"352 914 OFFCURVE",
"352 941 CURVE SMOOTH",
"352 964 OFFCURVE",
"335 991 OFFCURVE",
"293 991 CURVE SMOOTH",
"256 991 OFFCURVE",
"228 960 OFFCURVE",
"222 952 CURVE",
"97 820 LINE",
"129 775 LINE"
);
}
);
width = 693;
}
);
note = Lacute;
rightKerningGroup = L;
unicode = 0139;
},
{
glyphname = Lcaron;
lastChange = "2015-12-01 13:13:41 +0000";
layers = (
{
layerId = "48F9CBD8-FA9F-4F3E-B644-8148CA6A9069";
name = Bold;
paths = (
{
closed = 1;
nodes = (
"652 0 LINE",
"673 214 LINE",
"625 214 LINE",
"618 172 OFFCURVE",
"590 62 OFFCURVE",
"521 62 CURVE SMOOTH",
"349 62 LINE SMOOTH",
"312 62 OFFCURVE",
"290 78 OFFCURVE",
"290 114 CURVE SMOOTH",
"290 617 LINE SMOOTH",
"290 643 OFFCURVE",
"307 656 OFFCURVE",
"345 656 CURVE SMOOTH",
"376 656 LINE",
"376 700 LINE",
"18 700 LINE",
"18 656 LINE",
"49 656 LINE SMOOTH",
"87 656 OFFCURVE",
"104 643 OFFCURVE",
"104 617 CURVE SMOOTH",
"104 83 LINE SMOOTH",
"104 57 OFFCURVE",
"87 44 OFFCURVE",
"49 44 CURVE SMOOTH",
"18 44 LINE",
"18 0 LINE"
);
},
{
closed = 1;
nodes = (
"543 441 OFFCURVE",
"620 525 OFFCURVE",
"620 608 CURVE SMOOTH",
"620 673 OFFCURVE",
"583 709 OFFCURVE",
"536 709 CURVE SMOOTH",
"491 709 OFFCURVE",
"464 679 OFFCURVE",
"464 645 CURVE SMOOTH",
"464 603 OFFCURVE",
"507 585 OFFCURVE",
"507 541 CURVE SMOOTH",
"507 497 OFFCURVE",
"482 458 OFFCURVE",
"448 423 CURVE",
"476 397 LINE"
);
}
);
width = 693;
}
);
note = Lcaron;
rightKerningGroup = L;
unicode = 013D;
},
{
glyphname = Lcommaaccent;
lastChange = "2015-12-01 13:13:42 +0000";
layers = (
{
layerId = "48F9CBD8-FA9F-4F3E-B644-8148CA6A9069";
name = Bold;
paths = (
{
closed = 1;
nodes = (
"652 0 LINE",
"673 214 LINE",
"625 214 LINE",
"618 172 OFFCURVE",
"590 62 OFFCURVE",
"521 62 CURVE SMOOTH",
"349 62 LINE SMOOTH",
"312 62 OFFCURVE",
"290 78 OFFCURVE",
"290 114 CURVE SMOOTH",
"290 617 LINE SMOOTH",
"290 643 OFFCURVE",
"307 656 OFFCURVE",
"345 656 CURVE SMOOTH",
"376 656 LINE",
"376 700 LINE",
"18 700 LINE",
"18 656 LINE",
"49 656 LINE SMOOTH",
"87 656 OFFCURVE",
"104 643 OFFCURVE",
"104 617 CURVE SMOOTH",
"104 83 LINE SMOOTH",
"104 57 OFFCURVE",
"87 44 OFFCURVE",
"49 44 CURVE SMOOTH",
"18 44 LINE",
"18 0 LINE"
);
},
{
closed = 1;
nodes = (
"347 -343 OFFCURVE",
"424 -260 OFFCURVE",
"424 -177 CURVE SMOOTH",
"424 -112 OFFCURVE",
"387 -75 OFFCURVE",
"340 -75 CURVE SMOOTH",
"295 -75 OFFCURVE",
"267 -105 OFFCURVE",
"267 -139 CURVE SMOOTH",
"267 -182 OFFCURVE",
"311 -199 OFFCURVE",
"311 -243 CURVE SMOOTH",
"311 -287 OFFCURVE",
"286 -326 OFFCURVE",
"252 -361 CURVE",
"280 -387 LINE"
);
}
);
width = 693;
}
);
note = Lcommaaccent;
rightKerningGroup = L;
unicode = 013B;
},
{
glyphname = Ldot;
lastChange = "2015-12-01 13:13:40 +0000";
layers = (
{
layerId = "48F9CBD8-FA9F-4F3E-B644-8148CA6A9069";
name = Bold;
paths = (
{
closed = 1;
nodes = (
"652 0 LINE",
"673 214 LINE",
"625 214 LINE",
"618 172 OFFCURVE",
"590 62 OFFCURVE",
"521 62 CURVE SMOOTH",
"349 62 LINE SMOOTH",
"312 62 OFFCURVE",
"290 78 OFFCURVE",
"290 114 CURVE SMOOTH",
"290 617 LINE SMOOTH",
"290 643 OFFCURVE",
"307 656 OFFCURVE",
"345 656 CURVE SMOOTH",
"376 656 LINE",
"376 700 LINE",
"18 700 LINE",
"18 656 LINE",
"49 656 LINE SMOOTH",
"87 656 OFFCURVE",
"104 643 OFFCURVE",
"104 617 CURVE SMOOTH",
"104 83 LINE SMOOTH",
"104 57 OFFCURVE",
"87 44 OFFCURVE",
"49 44 CURVE SMOOTH",
"18 44 LINE",
"18 0 LINE"
);
},
{
closed = 1;
nodes = (
"525 318 OFFCURVE",
"552 349 OFFCURVE",
"552 388 CURVE SMOOTH",
"552 427 OFFCURVE",
"525 458 OFFCURVE",
"481 458 CURVE SMOOTH",
"438 458 OFFCURVE",
"412 427 OFFCURVE",
"412 388 CURVE SMOOTH",
"412 349 OFFCURVE",
"438 318 OFFCURVE",
"481 318 CURVE SMOOTH"
);
}
);
width = 693;
}
);
note = Ldot;
rightKerningGroup = L;
unicode = 013F;
},
{
glyphname = Ldotbelow;
lastChange = "2015-12-01 13:13:43 +0000";
layers = (
{
layerId = "48F9CBD8-FA9F-4F3E-B644-8148CA6A9069";
name = Bold;
paths = (
{
closed = 1;
nodes = (
"652 0 LINE",
"673 214 LINE",
"625 214 LINE",
"618 172 OFFCURVE",
"590 62 OFFCURVE",
"521 62 CURVE SMOOTH",
"349 62 LINE SMOOTH",
"312 62 OFFCURVE",
"290 78 OFFCURVE",
"290 114 CURVE SMOOTH",
"290 617 LINE SMOOTH",
"290 643 OFFCURVE",
"307 656 OFFCURVE",
"345 656 CURVE SMOOTH",
"376 656 LINE",
"376 700 LINE",
"18 700 LINE",
"18 656 LINE",
"49 656 LINE SMOOTH",
"87 656 OFFCURVE",
"104 643 OFFCURVE",
"104 617 CURVE SMOOTH",
"104 83 LINE SMOOTH",
"104 57 OFFCURVE",
"87 44 OFFCURVE",
"49 44 CURVE SMOOTH",
"18 44 LINE",
"18 0 LINE"
);
},
{
closed = 1;
nodes = (
"394 -203 OFFCURVE",
"421 -173 OFFCURVE",
"421 -134 CURVE SMOOTH",
"421 -95 OFFCURVE",
"394 -63 OFFCURVE",
"351 -63 CURVE SMOOTH",
"308 -63 OFFCURVE",
"281 -95 OFFCURVE",
"281 -134 CURVE SMOOTH",
"281 -173 OFFCURVE",
"308 -203 OFFCURVE",
"351 -203 CURVE SMOOTH"
);
}
);
width = 693;
}
);
note = Ldotbelow;
rightKerningGroup = L;
unicode = 1E36;
},
{
glyphname = Ldotbelowmacron;
lastChange = "2015-12-01 13:13:43 +0000";
layers = (
{
layerId = "48F9CBD8-FA9F-4F3E-B644-8148CA6A9069";
name = Bold;
paths = (
{
closed = 1;
nodes = (
"652 0 LINE",
"673 214 LINE",
"625 214 LINE",
"618 172 OFFCURVE",
"590 62 OFFCURVE",
"521 62 CURVE SMOOTH",
"349 62 LINE SMOOTH",
"312 62 OFFCURVE",
"290 78 OFFCURVE",
"290 114 CURVE SMOOTH",
"290 617 LINE SMOOTH",
"290 643 OFFCURVE",
"307 656 OFFCURVE",
"345 656 CURVE SMOOTH",
"376 656 LINE",
"376 700 LINE",
"18 700 LINE",
"18 656 LINE",
"49 656 LINE SMOOTH",
"87 656 OFFCURVE",
"104 643 OFFCURVE",
"104 617 CURVE SMOOTH",
"104 83 LINE SMOOTH",
"104 57 OFFCURVE",
"87 44 OFFCURVE",
"49 44 CURVE SMOOTH",
"18 44 LINE",
"18 0 LINE"
);
},
{
closed = 1;
nodes = (
"394 -203 OFFCURVE",
"421 -173 OFFCURVE",
"421 -134 CURVE SMOOTH",
"421 -95 OFFCURVE",
"394 -63 OFFCURVE",
"351 -63 CURVE SMOOTH",
"308 -63 OFFCURVE",
"281 -95 OFFCURVE",
"281 -134 CURVE SMOOTH",
"281 -173 OFFCURVE",
"308 -203 OFFCURVE",
"351 -203 CURVE SMOOTH"
);
},
{
closed = 1;
nodes = (
"426 775 LINE",
"426 844 LINE",
"15 844 LINE",
"15 775 LINE"
);
}
);
width = 693;
}
);
note = Ldotbelowmacron;
rightKerningGroup = L;
unicode = 1E38;
},
{
glyphname = Llinebelow;
lastChange = "2015-12-01 13:13:41 +0000";
layers = (
{
layerId = "48F9CBD8-FA9F-4F3E-B644-8148CA6A9069";
name = Bold;
paths = (
{
closed = 1;
nodes = (
"652 0 LINE",
"673 214 LINE",
"625 214 LINE",
"618 172 OFFCURVE",
"590 62 OFFCURVE",
"521 62 CURVE SMOOTH",
"349 62 LINE SMOOTH",
"312 62 OFFCURVE",
"290 78 OFFCURVE",
"290 114 CURVE SMOOTH",
"290 617 LINE SMOOTH",
"290 643 OFFCURVE",
"307 656 OFFCURVE",
"345 656 CURVE SMOOTH",
"376 656 LINE",
"376 700 LINE",
"18 700 LINE",
"18 656 LINE",
"49 656 LINE SMOOTH",
"87 656 OFFCURVE",
"104 643 OFFCURVE",
"104 617 CURVE SMOOTH",
"104 83 LINE SMOOTH",
"104 57 OFFCURVE",
"87 44 OFFCURVE",
"49 44 CURVE SMOOTH",
"18 44 LINE",
"18 0 LINE"
);
},
{
closed = 1;
nodes = (
"536 -126 LINE",
"536 -66 LINE",
"126 -66 LINE",
"126 -126 LINE"
);
}
);
width = 693;
}
);
note = Llinebelow;
rightKerningGroup = L;
unicode = 1E3A;
},
{
glyphname = Lslash;
lastChange = "2015-12-01 13:13:42 +0000";
layers = (
{
layerId = "48F9CBD8-FA9F-4F3E-B644-8148CA6A9069";
name = Bold;
paths = (
{
closed = 1;
nodes = (
"652 0 LINE",
"673 214 LINE",
"625 214 LINE",
"618 172 OFFCURVE",
"590 62 OFFCURVE",
"521 62 CURVE SMOOTH",
"349 62 LINE SMOOTH",
"312 62 OFFCURVE",
"290 78 OFFCURVE",
"290 114 CURVE SMOOTH",
"290 617 LINE SMOOTH",
"290 643 OFFCURVE",
"307 656 OFFCURVE",
"345 656 CURVE SMOOTH",
"376 656 LINE",
"376 700 LINE",
"18 700 LINE",
"18 656 LINE",
"49 656 LINE SMOOTH",
"87 656 OFFCURVE",
"104 643 OFFCURVE",
"104 617 CURVE SMOOTH",
"104 83 LINE SMOOTH",
"104 57 OFFCURVE",
"87 44 OFFCURVE",
"49 44 CURVE SMOOTH",
"18 44 LINE",
"18 0 LINE"
);
},
{
closed = 1;
nodes = (
"484 372 LINE",
"484 454 LINE",
"35 295 LINE",
"35 212 LINE"
);
}
);
width = 693;
}
);
note = Lslash;
rightKerningGroup = L;
unicode = 0141;
},
{
glyphname = M;
lastChange = "2015-12-01 13:13:37 +0000";
layers = (
{
layerId = "48F9CBD8-FA9F-4F3E-B644-8148CA6A9069";
name = Bold;
paths = (
{
closed = 1;
nodes = (
"259 0 LINE",
"259 44 LINE",
"227 44 LINE SMOOTH",
"189 44 OFFCURVE",
"173 57 OFFCURVE",
"173 83 CURVE SMOOTH",
"173 552 LINE",
"376 74 LINE",
"486 74 LINE",
"696 555 LINE",
"696 83 LINE SMOOTH",
"696 57 OFFCURVE",
"679 44 OFFCURVE",
"641 44 CURVE SMOOTH",
"610 44 LINE",
"610 0 LINE",
"968 0 LINE",
"968 44 LINE",
"937 44 LINE SMOOTH",
"899 44 OFFCURVE",
"882 57 OFFCURVE",
"882 83 CURVE SMOOTH",
"882 617 LINE SMOOTH",
"882 643 OFFCURVE",
"899 656 OFFCURVE",
"937 656 CURVE SMOOTH",
"968 656 LINE",
"968 700 LINE",
"683 700 LINE",
"615 539 OFFCURVE",
"546 381 OFFCURVE",
"477 221 CURVE",
"277 700 LINE",
"12 700 LINE",
"12 656 LINE",
"44 656 LINE SMOOTH",
"82 656 OFFCURVE",
"99 643 OFFCURVE",
"99 617 CURVE SMOOTH",
"99 83 LINE SMOOTH",
"99 57 OFFCURVE",
"82 44 OFFCURVE",
"44 44 CURVE SMOOTH",
"12 44 LINE",
"12 0 LINE"
);
}
);
width = 981;
}
);
note = M;
unicode = 004D;
},
{
glyphname = Mdotbelow;
lastChange = "2015-12-01 13:13:42 +0000";
layers = (
{
layerId = "48F9CBD8-FA9F-4F3E-B644-8148CA6A9069";
name = Bold;
paths = (
{
closed = 1;
nodes = (
"259 0 LINE",
"259 44 LINE",
"227 44 LINE SMOOTH",
"189 44 OFFCURVE",
"173 57 OFFCURVE",
"173 83 CURVE SMOOTH",
"173 552 LINE",
"376 74 LINE",
"486 74 LINE",
"696 555 LINE",
"696 83 LINE SMOOTH",
"696 57 OFFCURVE",
"679 44 OFFCURVE",
"641 44 CURVE SMOOTH",
"610 44 LINE",
"610 0 LINE",
"968 0 LINE",
"968 44 LINE",
"937 44 LINE SMOOTH",
"899 44 OFFCURVE",
"882 57 OFFCURVE",
"882 83 CURVE SMOOTH",
"882 617 LINE SMOOTH",
"882 643 OFFCURVE",
"899 656 OFFCURVE",
"937 656 CURVE SMOOTH",
"968 656 LINE",
"968 700 LINE",
"683 700 LINE",
"615 539 OFFCURVE",
"546 381 OFFCURVE",
"477 221 CURVE",
"277 700 LINE",
"12 700 LINE",
"12 656 LINE",
"44 656 LINE SMOOTH",
"82 656 OFFCURVE",
"99 643 OFFCURVE",
"99 617 CURVE SMOOTH",
"99 83 LINE SMOOTH",
"99 57 OFFCURVE",
"82 44 OFFCURVE",
"44 44 CURVE SMOOTH",
"12 44 LINE",
"12 0 LINE"
);
},
{
closed = 1;
nodes = (
"533 -205 OFFCURVE",
"560 -174 OFFCURVE",
"560 -135 CURVE SMOOTH",
"560 -96 OFFCURVE",
"533 -64 OFFCURVE",
"490 -64 CURVE SMOOTH",
"447 -64 OFFCURVE",
"420 -96 OFFCURVE",
"420 -135 CURVE SMOOTH",
"420 -174 OFFCURVE",
"447 -205 OFFCURVE",
"490 -205 CURVE SMOOTH"
);
}
);
width = 981;
}
);
note = Mdotbelow;
unicode = 1E42;
},
{
glyphname = N;
lastChange = "2015-12-01 13:13:37 +0000";
layers = (
{
layerId = "48F9CBD8-FA9F-4F3E-B644-8148CA6A9069";
name = Bold;
paths = (
{
closed = 1;
nodes = (
"259 0 LINE",
"259 44 LINE",
"227 44 LINE SMOOTH",
"189 44 OFFCURVE",
"173 57 OFFCURVE",
"173 83 CURVE SMOOTH",
"173 593 LINE",
"600 0 LINE",
"695 0 LINE",
"695 617 LINE SMOOTH",
"695 643 OFFCURVE",
"711 656 OFFCURVE",
"749 656 CURVE SMOOTH",
"781 656 LINE",
"781 700 LINE",
"534 700 LINE",
"534 656 LINE",
"566 656 LINE SMOOTH",
"604 656 OFFCURVE",
"621 643 OFFCURVE",
"621 617 CURVE SMOOTH",
"621 226 LINE",
"278 700 LINE",
"12 700 LINE",
"12 656 LINE",
"44 656 LINE SMOOTH",
"82 656 OFFCURVE",
"99 643 OFFCURVE",
"99 617 CURVE SMOOTH",
"99 83 LINE SMOOTH",
"99 57 OFFCURVE",
"82 44 OFFCURVE",
"44 44 CURVE SMOOTH",
"12 44 LINE",
"12 0 LINE"
);
}
);
width = 793;
}
);
note = N;
unicode = 004E;
},
{
glyphname = Nacute;
lastChange = "2015-12-01 13:13:42 +0000";
layers = (
{
layerId = "48F9CBD8-FA9F-4F3E-B644-8148CA6A9069";
name = Bold;
paths = (
{
closed = 1;
nodes = (
"259 0 LINE",
"259 44 LINE",
"227 44 LINE SMOOTH",
"189 44 OFFCURVE",
"173 57 OFFCURVE",
"173 83 CURVE SMOOTH",
"173 593 LINE",
"600 0 LINE",
"695 0 LINE",
"695 617 LINE SMOOTH",
"695 643 OFFCURVE",
"711 656 OFFCURVE",
"749 656 CURVE SMOOTH",
"781 656 LINE",
"781 700 LINE",
"534 700 LINE",
"534 656 LINE",
"566 656 LINE SMOOTH",
"604 656 OFFCURVE",
"621 643 OFFCURVE",
"621 617 CURVE SMOOTH",
"621 226 LINE",
"278 700 LINE",
"12 700 LINE",
"12 656 LINE",
"44 656 LINE SMOOTH",
"82 656 OFFCURVE",
"99 643 OFFCURVE",
"99 617 CURVE SMOOTH",
"99 83 LINE SMOOTH",
"99 57 OFFCURVE",
"82 44 OFFCURVE",
"44 44 CURVE SMOOTH",
"12 44 LINE",
"12 0 LINE"
);
},
{
closed = 1;
nodes = (
"500 872 LINE SMOOTH",
"536 893 OFFCURVE",
"557 914 OFFCURVE",
"557 941 CURVE SMOOTH",
"557 964 OFFCURVE",
"540 991 OFFCURVE",
"498 991 CURVE SMOOTH",
"461 991 OFFCURVE",
"433 960 OFFCURVE",
"427 952 CURVE",
"302 820 LINE",
"334 775 LINE"
);
}
);
width = 793;
}
);
note = Nacute;
unicode = 0143;
},
{
glyphname = Ncaron;
lastChange = "2015-12-01 13:13:43 +0000";
layers = (
{
layerId = "48F9CBD8-FA9F-4F3E-B644-8148CA6A9069";
name = Bold;
paths = (
{
closed = 1;
nodes = (
"259 0 LINE",
"259 44 LINE",
"227 44 LINE SMOOTH",
"189 44 OFFCURVE",
"173 57 OFFCURVE",
"173 83 CURVE SMOOTH",
"173 593 LINE",
"600 0 LINE",
"695 0 LINE",
"695 617 LINE SMOOTH",
"695 643 OFFCURVE",
"711 656 OFFCURVE",
"749 656 CURVE SMOOTH",
"781 656 LINE",
"781 700 LINE",
"534 700 LINE",
"534 656 LINE",
"566 656 LINE SMOOTH",
"604 656 OFFCURVE",
"621 643 OFFCURVE",
"621 617 CURVE SMOOTH",
"621 226 LINE",
"278 700 LINE",
"12 700 LINE",
"12 656 LINE",
"44 656 LINE SMOOTH",
"82 656 OFFCURVE",
"99 643 OFFCURVE",
"99 617 CURVE SMOOTH",
"99 83 LINE SMOOTH",
"99 57 OFFCURVE",
"82 44 OFFCURVE",
"44 44 CURVE SMOOTH",
"12 44 LINE",
"12 0 LINE"
);
},
{
closed = 1;
nodes = (
"431 776 LINE",
"589 950 LINE",
"561 978 LINE",
"427 878 LINE SMOOTH",
"412 866 OFFCURVE",
"398 859 OFFCURVE",
"387 859 CURVE SMOOTH",
"376 859 OFFCURVE",
"362 866 OFFCURVE",
"347 878 CURVE",
"212 978 LINE",
"185 950 LINE",
"343 776 LINE"
);
}
);
width = 793;
}
);
note = Ncaron;
unicode = 0147;
},
{
glyphname = Ncommaaccent;
lastChange = "2015-12-01 13:13:43 +0000";
layers = (
{
layerId = "48F9CBD8-FA9F-4F3E-B644-8148CA6A9069";
name = Bold;
paths = (
{
closed = 1;
nodes = (
"259 0 LINE",
"259 44 LINE",
"227 44 LINE SMOOTH",
"189 44 OFFCURVE",
"173 57 OFFCURVE",
"173 83 CURVE SMOOTH",
"173 593 LINE",
"600 0 LINE",
"695 0 LINE",
"695 617 LINE SMOOTH",
"695 643 OFFCURVE",
"711 656 OFFCURVE",
"749 656 CURVE SMOOTH",
"781 656 LINE",
"781 700 LINE",
"534 700 LINE",
"534 656 LINE",
"566 656 LINE SMOOTH",
"604 656 OFFCURVE",
"621 643 OFFCURVE",
"621 617 CURVE SMOOTH",
"621 226 LINE",
"278 700 LINE",
"12 700 LINE",
"12 656 LINE",
"44 656 LINE SMOOTH",
"82 656 OFFCURVE",
"99 643 OFFCURVE",
"99 617 CURVE SMOOTH",
"99 83 LINE SMOOTH",
"99 57 OFFCURVE",
"82 44 OFFCURVE",
"44 44 CURVE SMOOTH",
"12 44 LINE",
"12 0 LINE"
);
},
{
closed = 1;
nodes = (
"396 -343 OFFCURVE",
"473 -260 OFFCURVE",
"473 -177 CURVE SMOOTH",
"473 -112 OFFCURVE",
"436 -75 OFFCURVE",
"389 -75 CURVE SMOOTH",
"344 -75 OFFCURVE",
"316 -105 OFFCURVE",
"316 -139 CURVE SMOOTH",
"316 -182 OFFCURVE",
"360 -199 OFFCURVE",
"360 -243 CURVE SMOOTH",
"360 -287 OFFCURVE",
"335 -326 OFFCURVE",
"301 -361 CURVE",
"329 -387 LINE"
);
}
);
width = 793;
}
);
note = Ncommaaccent;
unicode = 0145;
},
{
glyphname = Ndotaccent;
lastChange = "2015-12-01 13:13:41 +0000";
layers = (
{
layerId = "48F9CBD8-FA9F-4F3E-B644-8148CA6A9069";
name = Bold;
paths = (
{
closed = 1;
nodes = (
"259 0 LINE",
"259 44 LINE",
"227 44 LINE SMOOTH",
"189 44 OFFCURVE",
"173 57 OFFCURVE",
"173 83 CURVE SMOOTH",
"173 593 LINE",
"600 0 LINE",
"695 0 LINE",
"695 617 LINE SMOOTH",
"695 643 OFFCURVE",
"711 656 OFFCURVE",
"749 656 CURVE SMOOTH",
"781 656 LINE",
"781 700 LINE",
"534 700 LINE",
"534 656 LINE",
"566 656 LINE SMOOTH",
"604 656 OFFCURVE",
"621 643 OFFCURVE",
"621 617 CURVE SMOOTH",
"621 226 LINE",
"278 700 LINE",
"12 700 LINE",
"12 656 LINE",
"44 656 LINE SMOOTH",
"82 656 OFFCURVE",
"99 643 OFFCURVE",
"99 617 CURVE SMOOTH",
"99 83 LINE SMOOTH",
"99 57 OFFCURVE",
"82 44 OFFCURVE",
"44 44 CURVE SMOOTH",
"12 44 LINE",
"12 0 LINE"
);
},
{
closed = 1;
nodes = (
"439 773 OFFCURVE",
"466 803 OFFCURVE",
"466 842 CURVE SMOOTH",
"466 881 OFFCURVE",
"439 912 OFFCURVE",
"396 912 CURVE SMOOTH",
"353 912 OFFCURVE",
"327 881 OFFCURVE",
"327 842 CURVE SMOOTH",
"327 803 OFFCURVE",
"353 773 OFFCURVE",
"396 773 CURVE SMOOTH"
);
}
);
width = 793;
}
);
note = Ndotaccent;
unicode = 1E44;
},
{
glyphname = Ndotbelow;
lastChange = "2015-12-01 13:17:26 +0000";
layers = (
{
layerId = "48F9CBD8-FA9F-4F3E-B644-8148CA6A9069";
name = Bold;
paths = (
{
closed = 1;
nodes = (
"259 0 LINE",
"259 44 LINE",
"227 44 LINE SMOOTH",
"189 44 OFFCURVE",
"173 57 OFFCURVE",
"173 83 CURVE SMOOTH",
"173 593 LINE",
"600 0 LINE",
"695 0 LINE",
"695 617 LINE SMOOTH",
"695 643 OFFCURVE",
"711 656 OFFCURVE",
"749 656 CURVE SMOOTH",
"781 656 LINE",
"781 700 LINE",
"534 700 LINE",
"534 656 LINE",
"566 656 LINE SMOOTH",
"604 656 OFFCURVE",
"621 643 OFFCURVE",
"621 617 CURVE SMOOTH",
"621 226 LINE",
"278 700 LINE",
"12 700 LINE",
"12 656 LINE",
"44 656 LINE SMOOTH",
"82 656 OFFCURVE",
"99 643 OFFCURVE",
"99 617 CURVE SMOOTH",
"99 83 LINE SMOOTH",
"99 57 OFFCURVE",
"82 44 OFFCURVE",
"44 44 CURVE SMOOTH",
"12 44 LINE",
"12 0 LINE"
);
},
{
closed = 1;
nodes = (
"441 -205 OFFCURVE",
"468 -174 OFFCURVE",
"468 -135 CURVE SMOOTH",
"468 -96 OFFCURVE",
"441 -64 OFFCURVE",
"398 -64 CURVE SMOOTH",
"355 -64 OFFCURVE",
"328 -96 OFFCURVE",
"328 -135 CURVE SMOOTH",
"328 -174 OFFCURVE",
"355 -205 OFFCURVE",
"398 -205 CURVE SMOOTH"
);
}
);
width = 793;
}
);
note = uni1E46;
unicode = 1E46;
},
{
glyphname = Eng;
lastChange = "2015-12-01 13:13:37 +0000";
layers = (
{
layerId = "48F9CBD8-FA9F-4F3E-B644-8148CA6A9069";
name = Bold;
paths = (
{
closed = 1;
nodes = (
"571 -308 OFFCURVE",
"695 -232 OFFCURVE",
"695 -58 CURVE SMOOTH",
"695 617 LINE SMOOTH",
"695 643 OFFCURVE",
"711 656 OFFCURVE",
"749 656 CURVE SMOOTH",
"781 656 LINE",
"781 700 LINE",
"534 700 LINE",
"534 656 LINE",
"566 656 LINE SMOOTH",
"604 656 OFFCURVE",
"621 643 OFFCURVE",
"621 617 CURVE SMOOTH",
"621 226 LINE",
"278 700 LINE",
"12 700 LINE",
"12 656 LINE",
"44 656 LINE SMOOTH",
"82 656 OFFCURVE",
"99 643 OFFCURVE",
"99 617 CURVE SMOOTH",
"99 90 LINE SMOOTH",
"99 62 OFFCURVE",
"87 44 OFFCURVE",
"44 44 CURVE SMOOTH",
"12 44 LINE",
"12 0 LINE",
"259 0 LINE",
"259 44 LINE",
"227 44 LINE SMOOTH",
"189 44 OFFCURVE",
"173 57 OFFCURVE",
"173 83 CURVE SMOOTH",
"173 593 LINE",
"600 0 LINE",
"600 -92 LINE SMOOTH",
"600 -196 OFFCURVE",
"498 -275 OFFCURVE",
"391 -276 CURVE",
"397 -312 LINE"
);
}
);
width = 793;
}
);
note = Eng;
unicode = 014A;
},
{
glyphname = Nlinebelow;
lastChange = "2015-12-01 13:13:41 +0000";
layers = (
{
layerId = "48F9CBD8-FA9F-4F3E-B644-8148CA6A9069";
name = Bold;
paths = (
{
closed = 1;
nodes = (
"259 0 LINE",
"259 44 LINE",
"227 44 LINE SMOOTH",
"189 44 OFFCURVE",
"173 57 OFFCURVE",
"173 83 CURVE SMOOTH",
"173 593 LINE",
"600 0 LINE",
"695 0 LINE",
"695 617 LINE SMOOTH",
"695 643 OFFCURVE",
"711 656 OFFCURVE",
"749 656 CURVE SMOOTH",
"781 656 LINE",
"781 700 LINE",
"534 700 LINE",
"534 656 LINE",
"566 656 LINE SMOOTH",
"604 656 OFFCURVE",
"621 643 OFFCURVE",
"621 617 CURVE SMOOTH",
"621 226 LINE",
"278 700 LINE",
"12 700 LINE",
"12 656 LINE",
"44 656 LINE SMOOTH",
"82 656 OFFCURVE",
"99 643 OFFCURVE",
"99 617 CURVE SMOOTH",
"99 83 LINE SMOOTH",
"99 57 OFFCURVE",
"82 44 OFFCURVE",
"44 44 CURVE SMOOTH",
"12 44 LINE",
"12 0 LINE"
);
},
{
closed = 1;
nodes = (
"601 -126 LINE",
"601 -66 LINE",
"191 -66 LINE",
"191 -126 LINE"
);
}
);
width = 793;
}
);
note = Nlinebelow;
unicode = 1E48;
},
{
glyphname = Ntilde;
lastChange = "2015-12-01 13:13:41 +0000";
layers = (
{
layerId = "48F9CBD8-FA9F-4F3E-B644-8148CA6A9069";
name = Bold;
paths = (
{
closed = 1;
nodes = (
"259 0 LINE",
"259 44 LINE",
"227 44 LINE SMOOTH",
"189 44 OFFCURVE",
"173 57 OFFCURVE",
"173 83 CURVE SMOOTH",
"173 593 LINE",
"600 0 LINE",
"695 0 LINE",
"695 617 LINE SMOOTH",
"695 643 OFFCURVE",
"711 656 OFFCURVE",
"749 656 CURVE SMOOTH",
"781 656 LINE",
"781 700 LINE",
"534 700 LINE",
"534 656 LINE",
"566 656 LINE SMOOTH",
"604 656 OFFCURVE",
"621 643 OFFCURVE",
"621 617 CURVE SMOOTH",
"621 226 LINE",
"278 700 LINE",
"12 700 LINE",
"12 656 LINE",
"44 656 LINE SMOOTH",
"82 656 OFFCURVE",
"99 643 OFFCURVE",
"99 617 CURVE SMOOTH",
"99 83 LINE SMOOTH",
"99 57 OFFCURVE",
"82 44 OFFCURVE",
"44 44 CURVE SMOOTH",
"12 44 LINE",
"12 0 LINE"
);
},
{
closed = 1;
nodes = (
"253 812 OFFCURVE",
"270 829 OFFCURVE",
"307 829 CURVE SMOOTH",
"371 829 OFFCURVE",
"428 783 OFFCURVE",
"490 783 CURVE SMOOTH",
"569 783 OFFCURVE",
"605 859 OFFCURVE",
"622 905 CURVE",
"591 922 LINE",
"569 882 OFFCURVE",
"553 864 OFFCURVE",
"515 864 CURVE SMOOTH",
"452 864 OFFCURVE",
"395 910 OFFCURVE",
"333 910 CURVE SMOOTH",
"254 910 OFFCURVE",
"218 835 OFFCURVE",
"200 789 CURVE",
"232 772 LINE"
);
}
);
width = 793;
}
);
note = Ntilde;
unicode = 00D1;
},
{
glyphname = O;
lastChange = "2015-12-01 13:13:41 +0000";
layers = (
{
layerId = "48F9CBD8-FA9F-4F3E-B644-8148CA6A9069";
name = Bold;
paths = (
{
closed = 1;
nodes = (
"676 -10 OFFCURVE",
"792 135 OFFCURVE",
"792 350 CURVE SMOOTH",
"792 564 OFFCURVE",
"676 710 OFFCURVE",
"411 710 CURVE SMOOTH",
"147 710 OFFCURVE",
"31 564 OFFCURVE",
"31 350 CURVE SMOOTH",
"31 135 OFFCURVE",
"147 -10 OFFCURVE",
"411 -10 CURVE SMOOTH"
);
},
{
closed = 1;
nodes = (
"288 56 OFFCURVE",
"220 164 OFFCURVE",
"220 350 CURVE SMOOTH",
"220 535 OFFCURVE",
"288 646 OFFCURVE",
"410 646 CURVE SMOOTH",
"534 646 OFFCURVE",
"603 535 OFFCURVE",
"603 350 CURVE SMOOTH",
"603 164 OFFCURVE",
"534 56 OFFCURVE",
"410 56 CURVE SMOOTH"
);
}
);
width = 823;
}
);
leftKerningGroup = O;
note = O;
rightKerningGroup = O;
unicode = 004F;
},
{
glyphname = Oacute;
lastChange = "2015-12-01 13:13:42 +0000";
layers = (
{
layerId = "48F9CBD8-FA9F-4F3E-B644-8148CA6A9069";
name = Bold;
paths = (
{
closed = 1;
nodes = (
"676 -10 OFFCURVE",
"792 135 OFFCURVE",
"792 350 CURVE SMOOTH",
"792 564 OFFCURVE",
"676 710 OFFCURVE",
"411 710 CURVE SMOOTH",
"147 710 OFFCURVE",
"31 564 OFFCURVE",
"31 350 CURVE SMOOTH",
"31 135 OFFCURVE",
"147 -10 OFFCURVE",
"411 -10 CURVE SMOOTH"
);
},
{
closed = 1;
nodes = (
"288 56 OFFCURVE",
"220 164 OFFCURVE",
"220 350 CURVE SMOOTH",
"220 535 OFFCURVE",
"288 646 OFFCURVE",
"410 646 CURVE SMOOTH",
"534 646 OFFCURVE",
"603 535 OFFCURVE",
"603 350 CURVE SMOOTH",
"603 164 OFFCURVE",
"534 56 OFFCURVE",
"410 56 CURVE SMOOTH"
);
},
{
closed = 1;
nodes = (
"482 872 LINE SMOOTH",
"518 893 OFFCURVE",
"539 914 OFFCURVE",
"539 941 CURVE SMOOTH",
"539 964 OFFCURVE",
"522 991 OFFCURVE",
"480 991 CURVE SMOOTH",
"443 991 OFFCURVE",
"415 960 OFFCURVE",
"409 952 CURVE",
"284 820 LINE",
"316 775 LINE"
);
}
);
width = 823;
}
);
leftKerningGroup = O;
note = Oacute;
rightKerningGroup = O;
unicode = 00D3;
},
{
glyphname = Obreve;
lastChange = "2015-12-01 13:13:42 +0000";
layers = (
{
layerId = "48F9CBD8-FA9F-4F3E-B644-8148CA6A9069";
name = Bold;
paths = (
{
closed = 1;
nodes = (
"676 -10 OFFCURVE",
"792 135 OFFCURVE",
"792 350 CURVE SMOOTH",
"792 564 OFFCURVE",
"676 710 OFFCURVE",
"411 710 CURVE SMOOTH",
"147 710 OFFCURVE",
"31 564 OFFCURVE",
"31 350 CURVE SMOOTH",
"31 135 OFFCURVE",
"147 -10 OFFCURVE",
"411 -10 CURVE SMOOTH"
);
},
{
closed = 1;
nodes = (
"288 56 OFFCURVE",
"220 164 OFFCURVE",
"220 350 CURVE SMOOTH",
"220 535 OFFCURVE",
"288 646 OFFCURVE",
"410 646 CURVE SMOOTH",
"534 646 OFFCURVE",
"603 535 OFFCURVE",
"603 350 CURVE SMOOTH",
"603 164 OFFCURVE",
"534 56 OFFCURVE",
"410 56 CURVE SMOOTH"
);
},
{
closed = 1;
nodes = (
"549 777 OFFCURVE",
"578 860 OFFCURVE",
"578 931 CURVE",
"535 931 LINE",
"532 900 OFFCURVE",
"509 852 OFFCURVE",
"411 852 CURVE SMOOTH",
"314 852 OFFCURVE",
"288 900 OFFCURVE",
"285 931 CURVE",
"242 931 LINE",
"243 855 OFFCURVE",
"272 777 OFFCURVE",
"411 777 CURVE SMOOTH"
);
}
);
width = 823;
}
);
leftKerningGroup = O;
note = Obreve;
rightKerningGroup = O;
unicode = 014E;
},
{
glyphname = Ocaron;
lastChange = "2015-12-01 13:13:42 +0000";
layers = (
{
layerId = "48F9CBD8-FA9F-4F3E-B644-8148CA6A9069";
name = Bold;
paths = (
{
closed = 1;
nodes = (
"676 -10 OFFCURVE",
"792 135 OFFCURVE",
"792 350 CURVE SMOOTH",
"792 564 OFFCURVE",
"676 710 OFFCURVE",
"411 710 CURVE SMOOTH",
"147 710 OFFCURVE",
"31 564 OFFCURVE",
"31 350 CURVE SMOOTH",
"31 135 OFFCURVE",
"147 -10 OFFCURVE",
"411 -10 CURVE SMOOTH"
);
},
{
closed = 1;
nodes = (
"288 56 OFFCURVE",
"220 164 OFFCURVE",
"220 350 CURVE SMOOTH",
"220 535 OFFCURVE",
"288 646 OFFCURVE",
"410 646 CURVE SMOOTH",
"534 646 OFFCURVE",
"603 535 OFFCURVE",
"603 350 CURVE SMOOTH",
"603 164 OFFCURVE",
"534 56 OFFCURVE",
"410 56 CURVE SMOOTH"
);
},
{
closed = 1;
nodes = (
"455 776 LINE",
"613 950 LINE",
"585 978 LINE",
"451 878 LINE SMOOTH",
"436 866 OFFCURVE",
"422 859 OFFCURVE",
"411 859 CURVE SMOOTH",
"400 859 OFFCURVE",
"386 866 OFFCURVE",
"371 878 CURVE",
"236 978 LINE",
"209 950 LINE",
"367 776 LINE"
);
}
);
width = 823;
}
);
leftKerningGroup = O;
note = Ocaron;
rightKerningGroup = O;
unicode = 01D1;
},
{
glyphname = Ocircumflex;
lastChange = "2015-12-01 13:13:41 +0000";
layers = (
{
layerId = "48F9CBD8-FA9F-4F3E-B644-8148CA6A9069";
name = Bold;
paths = (
{
closed = 1;
nodes = (
"676 -10 OFFCURVE",
"792 135 OFFCURVE",
"792 350 CURVE SMOOTH",
"792 564 OFFCURVE",
"676 710 OFFCURVE",
"411 710 CURVE SMOOTH",
"147 710 OFFCURVE",
"31 564 OFFCURVE",
"31 350 CURVE SMOOTH",
"31 135 OFFCURVE",
"147 -10 OFFCURVE",
"411 -10 CURVE SMOOTH"
);
},
{
closed = 1;
nodes = (
"288 56 OFFCURVE",
"220 164 OFFCURVE",
"220 350 CURVE SMOOTH",
"220 535 OFFCURVE",
"288 646 OFFCURVE",
"410 646 CURVE SMOOTH",
"534 646 OFFCURVE",
"603 535 OFFCURVE",
"603 350 CURVE SMOOTH",
"603 164 OFFCURVE",
"534 56 OFFCURVE",
"410 56 CURVE SMOOTH"
);
},
{
closed = 1;
nodes = (
"371 876 LINE",
"386 888 OFFCURVE",
"400 895 OFFCURVE",
"411 895 CURVE SMOOTH",
"422 895 OFFCURVE",
"436 888 OFFCURVE",
"451 876 CURVE SMOOTH",
"585 776 LINE",
"613 804 LINE",
"455 978 LINE",
"367 978 LINE",
"209 804 LINE",
"236 776 LINE"
);
}
);
width = 823;
}
);
leftKerningGroup = O;
note = Ocircumflex;
rightKerningGroup = O;
unicode = 00D4;
},
{
glyphname = Ocircumflexacute;
lastChange = "2015-12-01 13:13:43 +0000";
layers = (
{
layerId = "48F9CBD8-FA9F-4F3E-B644-8148CA6A9069";
name = Bold;
paths = (
{
closed = 1;
nodes = (
"676 -10 OFFCURVE",
"792 135 OFFCURVE",
"792 350 CURVE SMOOTH",
"792 564 OFFCURVE",
"676 710 OFFCURVE",
"411 710 CURVE SMOOTH",
"147 710 OFFCURVE",
"31 564 OFFCURVE",
"31 350 CURVE SMOOTH",
"31 135 OFFCURVE",
"147 -10 OFFCURVE",
"411 -10 CURVE SMOOTH"
);
},
{
closed = 1;
nodes = (
"288 56 OFFCURVE",
"220 164 OFFCURVE",
"220 350 CURVE SMOOTH",
"220 535 OFFCURVE",
"288 646 OFFCURVE",
"410 646 CURVE SMOOTH",
"534 646 OFFCURVE",
"603 535 OFFCURVE",
"603 350 CURVE SMOOTH",
"603 164 OFFCURVE",
"534 56 OFFCURVE",
"410 56 CURVE SMOOTH"
);
},
{
closed = 1;
nodes = (
"371 872 LINE SMOOTH",
"386 884 OFFCURVE",
"400 893 OFFCURVE",
"411 893 CURVE SMOOTH",
"422 893 OFFCURVE",
"436 884 OFFCURVE",
"451 872 CURVE SMOOTH",
"580 774 LINE",
"605 803 LINE",
"455 977 LINE",
"367 977 LINE",
"217 803 LINE",
"242 774 LINE"
);
},
{
closed = 1;
nodes = (
"671 968 LINE SMOOTH",
"708 986 OFFCURVE",
"739 1012 OFFCURVE",
"739 1041 CURVE SMOOTH",
"739 1065 OFFCURVE",
"720 1094 OFFCURVE",
"681 1094 CURVE SMOOTH",
"646 1094 OFFCURVE",
"619 1065 OFFCURVE",
"604 1046 CURVE SMOOTH",
"527 952 LINE",
"557 913 LINE"
);
}
);
width = 823;
}
);
leftKerningGroup = O;
note = Ocircumflexacute;
rightKerningGroup = O;
unicode = 1ED0;
},
{
glyphname = Ocircumflexdotbelow;
lastChange = "2015-12-01 13:17:38 +0000";
layers = (
{
layerId = "48F9CBD8-FA9F-4F3E-B644-8148CA6A9069";
name = Bold;
paths = (
{
closed = 1;
nodes = (
"676 -10 OFFCURVE",
"792 135 OFFCURVE",
"792 350 CURVE SMOOTH",
"792 564 OFFCURVE",
"676 710 OFFCURVE",
"411 710 CURVE SMOOTH",
"147 710 OFFCURVE",
"31 564 OFFCURVE",
"31 350 CURVE SMOOTH",
"31 135 OFFCURVE",
"147 -10 OFFCURVE",
"411 -10 CURVE SMOOTH"
);
},
{
closed = 1;
nodes = (
"288 56 OFFCURVE",
"220 164 OFFCURVE",
"220 350 CURVE SMOOTH",
"220 535 OFFCURVE",
"288 646 OFFCURVE",
"410 646 CURVE SMOOTH",
"534 646 OFFCURVE",
"603 535 OFFCURVE",
"603 350 CURVE SMOOTH",
"603 164 OFFCURVE",
"534 56 OFFCURVE",
"410 56 CURVE SMOOTH"
);
},
{
closed = 1;
nodes = (
"371 876 LINE",
"386 888 OFFCURVE",
"400 895 OFFCURVE",
"411 895 CURVE SMOOTH",
"422 895 OFFCURVE",
"436 888 OFFCURVE",
"451 876 CURVE SMOOTH",
"585 776 LINE",
"613 804 LINE",
"455 978 LINE",
"367 978 LINE",
"209 804 LINE",
"236 776 LINE"
);
},
{
closed = 1;
nodes = (
"435 -205 OFFCURVE",
"462 -174 OFFCURVE",
"462 -135 CURVE SMOOTH",
"462 -96 OFFCURVE",
"435 -64 OFFCURVE",
"392 -64 CURVE SMOOTH",
"349 -64 OFFCURVE",
"322 -96 OFFCURVE",
"322 -135 CURVE SMOOTH",
"322 -174 OFFCURVE",
"349 -205 OFFCURVE",
"392 -205 CURVE SMOOTH"
);
}
);
width = 823;
}
);
leftKerningGroup = O;
note = Ocircumflexdotbelow;
rightKerningGroup = O;
unicode = 1ED8;
},
{
glyphname = Ocircumflexgrave;
lastChange = "2015-12-01 13:13:42 +0000";
layers = (
{
layerId = "48F9CBD8-FA9F-4F3E-B644-8148CA6A9069";
name = Bold;
paths = (
{
closed = 1;
nodes = (
"676 -10 OFFCURVE",
"792 135 OFFCURVE",
"792 350 CURVE SMOOTH",
"792 564 OFFCURVE",
"676 710 OFFCURVE",
"411 710 CURVE SMOOTH",
"147 710 OFFCURVE",
"31 564 OFFCURVE",
"31 350 CURVE SMOOTH",
"31 135 OFFCURVE",
"147 -10 OFFCURVE",
"411 -10 CURVE SMOOTH"
);
},
{
closed = 1;
nodes = (
"288 56 OFFCURVE",
"220 164 OFFCURVE",
"220 350 CURVE SMOOTH",
"220 535 OFFCURVE",
"288 646 OFFCURVE",
"410 646 CURVE SMOOTH",
"534 646 OFFCURVE",
"603 535 OFFCURVE",
"603 350 CURVE SMOOTH",
"603 164 OFFCURVE",
"534 56 OFFCURVE",
"410 56 CURVE SMOOTH"
);
},
{
closed = 1;
nodes = (
"296 952 LINE",
"214 1050 LINE SMOOTH",
"200 1067 OFFCURVE",
"175 1095 OFFCURVE",
"142 1095 CURVE SMOOTH",
"100 1095 OFFCURVE",
"84 1063 OFFCURVE",
"84 1042 CURVE SMOOTH",
"84 1015 OFFCURVE",
"108 991 OFFCURVE",
"147 972 CURVE SMOOTH",
"266 913 LINE"
);
},
{
closed = 1;
nodes = (
"371 872 LINE SMOOTH",
"386 884 OFFCURVE",
"400 893 OFFCURVE",
"411 893 CURVE SMOOTH",
"422 893 OFFCURVE",
"436 884 OFFCURVE",
"451 872 CURVE SMOOTH",
"580 774 LINE",
"605 803 LINE",
"455 977 LINE",
"367 977 LINE",
"217 803 LINE",
"242 774 LINE"
);
}
);
width = 823;
}
);
leftKerningGroup = O;
note = Ocircumflexgrave;
rightKerningGroup = O;
unicode = 1ED2;
},
{
glyphname = Ocircumflexhookabove;
lastChange = "2015-12-01 13:13:40 +0000";
layers = (
{
layerId = "48F9CBD8-FA9F-4F3E-B644-8148CA6A9069";
name = Bold;
paths = (
{
closed = 1;
nodes = (
"676 -10 OFFCURVE",
"792 135 OFFCURVE",
"792 350 CURVE SMOOTH",
"792 564 OFFCURVE",
"676 710 OFFCURVE",
"411 710 CURVE SMOOTH",
"147 710 OFFCURVE",
"31 564 OFFCURVE",
"31 350 CURVE SMOOTH",
"31 135 OFFCURVE",
"147 -10 OFFCURVE",
"411 -10 CURVE SMOOTH"
);
},
{
closed = 1;
nodes = (
"288 56 OFFCURVE",
"220 164 OFFCURVE",
"220 350 CURVE SMOOTH",
"220 535 OFFCURVE",
"288 646 OFFCURVE",
"410 646 CURVE SMOOTH",
"534 646 OFFCURVE",
"603 535 OFFCURVE",
"603 350 CURVE SMOOTH",
"603 164 OFFCURVE",
"534 56 OFFCURVE",
"410 56 CURVE SMOOTH"
);
},
{
closed = 1;
nodes = (
"371 873 LINE SMOOTH",
"386 885 OFFCURVE",
"400 894 OFFCURVE",
"411 894 CURVE SMOOTH",
"422 894 OFFCURVE",
"436 885 OFFCURVE",
"451 873 CURVE SMOOTH",
"580 775 LINE",
"605 804 LINE",
"455 978 LINE",
"367 978 LINE",
"217 804 LINE",
"242 775 LINE"
);
},
{
closed = 1;
nodes = (
"617 936 LINE",
"604 938 OFFCURVE",
"591 941 OFFCURVE",
"591 960 CURVE SMOOTH",
"591 1000 OFFCURVE",
"691 1007 OFFCURVE",
"691 1065 CURVE SMOOTH",
"691 1109 OFFCURVE",
"641 1130 OFFCURVE",
"587 1130 CURVE SMOOTH",
"516 1130 OFFCURVE",
"487 1099 OFFCURVE",
"487 1076 CURVE SMOOTH",
"487 1055 OFFCURVE",
"503 1045 OFFCURVE",
"519 1045 CURVE SMOOTH",
"560 1045 OFFCURVE",
"542 1101 OFFCURVE",
"587 1101 CURVE SMOOTH",
"607 1101 OFFCURVE",
"616 1085 OFFCURVE",
"616 1072 CURVE SMOOTH",
"616 1018 OFFCURVE",
"533 1007 OFFCURVE",
"533 961 CURVE SMOOTH",
"533 931 OFFCURVE",
"566 914 OFFCURVE",
"609 914 CURVE"
);
}
);
width = 823;
}
);
leftKerningGroup = O;
note = Ocircumflexhookabove;
rightKerningGroup = O;
unicode = 1ED4;
},
{
glyphname = Ocircumflextilde;
lastChange = "2015-12-01 13:13:42 +0000";
layers = (
{
layerId = "48F9CBD8-FA9F-4F3E-B644-8148CA6A9069";
name = Bold;
paths = (
{
closed = 1;
nodes = (
"676 -10 OFFCURVE",
"792 135 OFFCURVE",
"792 350 CURVE SMOOTH",
"792 564 OFFCURVE",
"676 710 OFFCURVE",
"411 710 CURVE SMOOTH",
"147 710 OFFCURVE",
"31 564 OFFCURVE",
"31 350 CURVE SMOOTH",
"31 135 OFFCURVE",
"147 -10 OFFCURVE",
"411 -10 CURVE SMOOTH"
);
},
{
closed = 1;
nodes = (
"288 56 OFFCURVE",
"220 164 OFFCURVE",
"220 350 CURVE SMOOTH",
"220 535 OFFCURVE",
"288 646 OFFCURVE",
"410 646 CURVE SMOOTH",
"534 646 OFFCURVE",
"603 535 OFFCURVE",
"603 350 CURVE SMOOTH",
"603 164 OFFCURVE",
"534 56 OFFCURVE",
"410 56 CURVE SMOOTH"
);
},
{
closed = 1;
nodes = (
"371 873 LINE SMOOTH",
"386 885 OFFCURVE",
"400 894 OFFCURVE",
"411 894 CURVE SMOOTH",
"422 894 OFFCURVE",
"436 885 OFFCURVE",
"451 873 CURVE SMOOTH",
"580 775 LINE",
"605 804 LINE",
"455 978 LINE",
"367 978 LINE",
"217 804 LINE",
"242 775 LINE"
);
},
{
closed = 1;
nodes = (
"266 1033 OFFCURVE",
"282 1051 OFFCURVE",
"316 1051 CURVE SMOOTH",
"374 1051 OFFCURVE",
"426 1005 OFFCURVE",
"482 1005 CURVE SMOOTH",
"553 1005 OFFCURVE",
"586 1081 OFFCURVE",
"602 1126 CURVE",
"573 1144 LINE",
"554 1103 OFFCURVE",
"540 1086 OFFCURVE",
"505 1086 CURVE SMOOTH",
"448 1086 OFFCURVE",
"395 1131 OFFCURVE",
"339 1131 CURVE SMOOTH",
"267 1131 OFFCURVE",
"235 1056 OFFCURVE",
"219 1011 CURVE",
"248 993 LINE"
);
}
);
width = 823;
}
);
leftKerningGroup = O;
note = Ocircumflextilde;
rightKerningGroup = O;
unicode = 1ED6;
},
{
glyphname = Odieresis;
lastChange = "2015-12-01 13:13:42 +0000";
layers = (
{
layerId = "48F9CBD8-FA9F-4F3E-B644-8148CA6A9069";
name = Bold;
paths = (
{
closed = 1;
nodes = (
"676 -10 OFFCURVE",
"792 135 OFFCURVE",
"792 350 CURVE SMOOTH",
"792 564 OFFCURVE",
"676 710 OFFCURVE",
"411 710 CURVE SMOOTH",
"147 710 OFFCURVE",
"31 564 OFFCURVE",
"31 350 CURVE SMOOTH",
"31 135 OFFCURVE",
"147 -10 OFFCURVE",
"411 -10 CURVE SMOOTH"
);
},
{
closed = 1;
nodes = (
"288 56 OFFCURVE",
"220 164 OFFCURVE",
"220 350 CURVE SMOOTH",
"220 535 OFFCURVE",
"288 646 OFFCURVE",
"410 646 CURVE SMOOTH",
"534 646 OFFCURVE",
"603 535 OFFCURVE",
"603 350 CURVE SMOOTH",
"603 164 OFFCURVE",
"534 56 OFFCURVE",
"410 56 CURVE SMOOTH"
);
},
{
closed = 1;
nodes = (
"333 776 OFFCURVE",
"360 806 OFFCURVE",
"360 845 CURVE SMOOTH",
"360 885 OFFCURVE",
"333 916 OFFCURVE",
"289 916 CURVE SMOOTH",
"246 916 OFFCURVE",
"220 885 OFFCURVE",
"220 845 CURVE SMOOTH",
"220 806 OFFCURVE",
"246 776 OFFCURVE",
"289 776 CURVE SMOOTH"
);
},
{
closed = 1;
nodes = (
"575 776 OFFCURVE",
"602 806 OFFCURVE",
"602 845 CURVE SMOOTH",
"602 885 OFFCURVE",
"575 916 OFFCURVE",
"532 916 CURVE SMOOTH",
"487 916 OFFCURVE",
"461 885 OFFCURVE",
"461 845 CURVE SMOOTH",
"461 806 OFFCURVE",
"487 776 OFFCURVE",
"532 776 CURVE SMOOTH"
);
}
);
width = 823;
}
);
leftKerningGroup = O;
note = Odieresis;
rightKerningGroup = O;
unicode = 00D6;
},
{
glyphname = Odotbelow;
lastChange = "2015-12-01 13:17:45 +0000";
layers = (
{
layerId = "48F9CBD8-FA9F-4F3E-B644-8148CA6A9069";
name = Bold;
paths = (
{
closed = 1;
nodes = (
"31 135 OFFCURVE",
"147 -10 OFFCURVE",
"411 -10 CURVE SMOOTH",
"676 -10 OFFCURVE",
"792 135 OFFCURVE",
"792 350 CURVE SMOOTH",
"792 564 OFFCURVE",
"676 710 OFFCURVE",
"411 710 CURVE SMOOTH",
"147 710 OFFCURVE",
"31 564 OFFCURVE",
"31 350 CURVE SMOOTH"
);
},
{
closed = 1;
nodes = (
"220 535 OFFCURVE",
"288 646 OFFCURVE",
"410 646 CURVE SMOOTH",
"534 646 OFFCURVE",
"603 535 OFFCURVE",
"603 350 CURVE SMOOTH",
"603 164 OFFCURVE",
"534 56 OFFCURVE",
"410 56 CURVE SMOOTH",
"288 56 OFFCURVE",
"220 164 OFFCURVE",
"220 350 CURVE SMOOTH"
);
},
{
closed = 1;
nodes = (
"341 -174 OFFCURVE",
"368 -205 OFFCURVE",
"411 -205 CURVE SMOOTH",
"454 -205 OFFCURVE",
"481 -174 OFFCURVE",
"481 -135 CURVE SMOOTH",
"481 -96 OFFCURVE",
"454 -64 OFFCURVE",
"411 -64 CURVE SMOOTH",
"368 -64 OFFCURVE",
"341 -96 OFFCURVE",
"341 -135 CURVE SMOOTH"
);
}
);
width = 823;
}
);
leftKerningGroup = O;
note = Odotbelow;
rightKerningGroup = O;
unicode = 1ECC;
},
{
glyphname = Ograve;
lastChange = "2015-12-01 13:13:42 +0000";
layers = (
{
layerId = "48F9CBD8-FA9F-4F3E-B644-8148CA6A9069";
name = Bold;
paths = (
{
closed = 1;
nodes = (
"676 -10 OFFCURVE",
"792 135 OFFCURVE",
"792 350 CURVE SMOOTH",
"792 564 OFFCURVE",
"676 710 OFFCURVE",
"411 710 CURVE SMOOTH",
"147 710 OFFCURVE",
"31 564 OFFCURVE",
"31 350 CURVE SMOOTH",
"31 135 OFFCURVE",
"147 -10 OFFCURVE",
"411 -10 CURVE SMOOTH"
);
},
{
closed = 1;
nodes = (
"288 56 OFFCURVE",
"220 164 OFFCURVE",
"220 350 CURVE SMOOTH",
"220 535 OFFCURVE",
"288 646 OFFCURVE",
"410 646 CURVE SMOOTH",
"534 646 OFFCURVE",
"603 535 OFFCURVE",
"603 350 CURVE SMOOTH",
"603 164 OFFCURVE",
"534 56 OFFCURVE",
"410 56 CURVE SMOOTH"
);
},
{
closed = 1;
nodes = (
"535 820 LINE",
"411 952 LINE",
"404 960 OFFCURVE",
"376 991 OFFCURVE",
"339 991 CURVE SMOOTH",
"297 991 OFFCURVE",
"281 964 OFFCURVE",
"281 942 CURVE SMOOTH",
"281 914 OFFCURVE",
"301 893 OFFCURVE",
"336 872 CURVE SMOOTH",
"503 775 LINE"
);
}
);
width = 823;
}
);
leftKerningGroup = O;
note = Ograve;
rightKerningGroup = O;
unicode = 00D2;
},
{
glyphname = Ohookabove;
lastChange = "2015-12-01 13:13:40 +0000";
layers = (
{
layerId = "48F9CBD8-FA9F-4F3E-B644-8148CA6A9069";
name = Bold;
paths = (
{
closed = 1;
nodes = (
"676 -10 OFFCURVE",
"792 135 OFFCURVE",
"792 350 CURVE SMOOTH",
"792 564 OFFCURVE",
"676 710 OFFCURVE",
"411 710 CURVE SMOOTH",
"147 710 OFFCURVE",
"31 564 OFFCURVE",
"31 350 CURVE SMOOTH",
"31 135 OFFCURVE",
"147 -10 OFFCURVE",
"411 -10 CURVE SMOOTH"
);
},
{
closed = 1;
nodes = (
"288 56 OFFCURVE",
"220 164 OFFCURVE",
"220 350 CURVE SMOOTH",
"220 535 OFFCURVE",
"288 646 OFFCURVE",
"410 646 CURVE SMOOTH",
"534 646 OFFCURVE",
"603 535 OFFCURVE",
"603 350 CURVE SMOOTH",
"603 164 OFFCURVE",
"534 56 OFFCURVE",
"410 56 CURVE SMOOTH"
);
},
{
closed = 1;
nodes = (
"443 801 LINE",
"429 803 OFFCURVE",
"413 807 OFFCURVE",
"413 828 CURVE SMOOTH",
"413 874 OFFCURVE",
"528 882 OFFCURVE",
"528 950 CURVE SMOOTH",
"528 1001 OFFCURVE",
"473 1026 OFFCURVE",
"410 1026 CURVE SMOOTH",
"324 1026 OFFCURVE",
"294 989 OFFCURVE",
"294 962 CURVE SMOOTH",
"294 937 OFFCURVE",
"312 926 OFFCURVE",
"330 926 CURVE SMOOTH",
"352 926 OFFCURVE",
"366 941 OFFCURVE",
"367 957 CURVE SMOOTH",
"368 984 OFFCURVE",
"392 991 OFFCURVE",
"409 991 CURVE SMOOTH",
"431 991 OFFCURVE",
"442 974 OFFCURVE",
"442 957 CURVE SMOOTH",
"442 895 OFFCURVE",
"347 883 OFFCURVE",
"347 830 CURVE SMOOTH",
"347 796 OFFCURVE",
"385 776 OFFCURVE",
"434 776 CURVE"
);
}
);
width = 823;
}
);
leftKerningGroup = O;
note = Ohookabove;
rightKerningGroup = O;
unicode = 1ECE;
},
{
glyphname = Ohorn;
lastChange = "2015-12-01 13:18:04 +0000";
layers = (
{
layerId = "48F9CBD8-FA9F-4F3E-B644-8148CA6A9069";
name = Bold;
paths = (
{
closed = 1;
nodes = (
"676 -10 OFFCURVE",
"792 135 OFFCURVE",
"792 350 CURVE SMOOTH",
"792 564 OFFCURVE",
"676 710 OFFCURVE",
"411 710 CURVE SMOOTH",
"147 710 OFFCURVE",
"31 564 OFFCURVE",
"31 350 CURVE SMOOTH",
"31 135 OFFCURVE",
"147 -10 OFFCURVE",
"411 -10 CURVE SMOOTH"
);
},
{
closed = 1;
nodes = (
"288 56 OFFCURVE",
"220 164 OFFCURVE",
"220 350 CURVE SMOOTH",
"220 535 OFFCURVE",
"288 646 OFFCURVE",
"410 646 CURVE SMOOTH",
"534 646 OFFCURVE",
"603 535 OFFCURVE",
"603 350 CURVE SMOOTH",
"603 164 OFFCURVE",
"534 56 OFFCURVE",
"410 56 CURVE SMOOTH"
);
},
{
closed = 1;
nodes = (
"779 520 OFFCURVE",
"893 605 OFFCURVE",
"893 711 CURVE SMOOTH",
"893 776 OFFCURVE",
"855 812 OFFCURVE",
"808 812 CURVE SMOOTH",
"763 812 OFFCURVE",
"736 782 OFFCURVE",
"736 749 CURVE SMOOTH",
"736 706 OFFCURVE",
"779 688 OFFCURVE",
"779 645 CURVE SMOOTH",
"779 601 OFFCURVE",
"748 568 OFFCURVE",
"693 541 CURVE",
"693 504 LINE"
);
}
);
width = 838;
}
);
leftKerningGroup = O;
note = Ohorn;
rightKerningGroup = O;
unicode = 01A0;
},
{
glyphname = Ohornacute;
lastChange = "2015-12-01 13:17:57 +0000";
layers = (
{
layerId = "48F9CBD8-FA9F-4F3E-B644-8148CA6A9069";
name = Bold;
paths = (
{
closed = 1;
nodes = (
"676 -10 OFFCURVE",
"792 135 OFFCURVE",
"792 350 CURVE SMOOTH",
"792 564 OFFCURVE",
"676 710 OFFCURVE",
"411 710 CURVE SMOOTH",
"147 710 OFFCURVE",
"31 564 OFFCURVE",
"31 350 CURVE SMOOTH",
"31 135 OFFCURVE",
"147 -10 OFFCURVE",
"411 -10 CURVE SMOOTH"
);
},
{
closed = 1;
nodes = (
"288 56 OFFCURVE",
"220 164 OFFCURVE",
"220 350 CURVE SMOOTH",
"220 535 OFFCURVE",
"288 646 OFFCURVE",
"410 646 CURVE SMOOTH",
"534 646 OFFCURVE",
"603 535 OFFCURVE",
"603 350 CURVE SMOOTH",
"603 164 OFFCURVE",
"534 56 OFFCURVE",
"410 56 CURVE SMOOTH"
);
},
{
closed = 1;
nodes = (
"469 871 LINE SMOOTH",
"505 892 OFFCURVE",
"526 913 OFFCURVE",
"526 940 CURVE SMOOTH",
"526 963 OFFCURVE",
"509 990 OFFCURVE",
"467 990 CURVE SMOOTH",
"430 990 OFFCURVE",
"402 959 OFFCURVE",
"396 951 CURVE",
"271 819 LINE",
"303 774 LINE"
);
},
{
closed = 1;
nodes = (
"779 520 OFFCURVE",
"893 605 OFFCURVE",
"893 711 CURVE SMOOTH",
"893 776 OFFCURVE",
"855 812 OFFCURVE",
"808 812 CURVE SMOOTH",
"763 812 OFFCURVE",
"736 782 OFFCURVE",
"736 749 CURVE SMOOTH",
"736 706 OFFCURVE",
"779 688 OFFCURVE",
"779 645 CURVE SMOOTH",
"779 601 OFFCURVE",
"748 568 OFFCURVE",
"693 541 CURVE",
"693 504 LINE"
);
}
);
width = 838;
}
);
leftKerningGroup = O;
note = Ohornacute;
rightKerningGroup = O;
unicode = 1EDA;
},
{
glyphname = Ohorndotbelow;
lastChange = "2015-12-01 13:18:08 +0000";
layers = (
{
layerId = "48F9CBD8-FA9F-4F3E-B644-8148CA6A9069";
name = Bold;
paths = (
{
closed = 1;
nodes = (
"676 -10 OFFCURVE",
"792 135 OFFCURVE",
"792 350 CURVE SMOOTH",
"792 564 OFFCURVE",
"676 710 OFFCURVE",
"411 710 CURVE SMOOTH",
"147 710 OFFCURVE",
"31 564 OFFCURVE",
"31 350 CURVE SMOOTH",
"31 135 OFFCURVE",
"147 -10 OFFCURVE",
"411 -10 CURVE SMOOTH"
);
},
{
closed = 1;
nodes = (
"288 56 OFFCURVE",
"220 164 OFFCURVE",
"220 350 CURVE SMOOTH",
"220 535 OFFCURVE",
"288 646 OFFCURVE",
"410 646 CURVE SMOOTH",
"534 646 OFFCURVE",
"603 535 OFFCURVE",
"603 350 CURVE SMOOTH",
"603 164 OFFCURVE",
"534 56 OFFCURVE",
"410 56 CURVE SMOOTH"
);
},
{
closed = 1;
nodes = (
"779 520 OFFCURVE",
"893 605 OFFCURVE",
"893 711 CURVE SMOOTH",
"893 776 OFFCURVE",
"855 812 OFFCURVE",
"808 812 CURVE SMOOTH",
"763 812 OFFCURVE",
"736 782 OFFCURVE",
"736 749 CURVE SMOOTH",
"736 706 OFFCURVE",
"779 688 OFFCURVE",
"779 645 CURVE SMOOTH",
"779 601 OFFCURVE",
"748 568 OFFCURVE",
"693 541 CURVE",
"693 504 LINE"
);
},
{
closed = 1;
nodes = (
"457 -205 OFFCURVE",
"484 -174 OFFCURVE",
"484 -135 CURVE SMOOTH",
"484 -96 OFFCURVE",
"457 -64 OFFCURVE",
"414 -64 CURVE SMOOTH",
"371 -64 OFFCURVE",
"344 -96 OFFCURVE",
"344 -135 CURVE SMOOTH",
"344 -174 OFFCURVE",
"371 -205 OFFCURVE",
"414 -205 CURVE SMOOTH"
);
}
);
width = 838;
}
);
leftKerningGroup = O;
note = Ohorndotbelow;
rightKerningGroup = O;
unicode = 1EE2;
},
{
glyphname = Ohorngrave;
lastChange = "2015-12-01 13:17:57 +0000";
layers = (
{
layerId = "48F9CBD8-FA9F-4F3E-B644-8148CA6A9069";
name = Bold;
paths = (
{
closed = 1;
nodes = (
"676 -10 OFFCURVE",
"792 135 OFFCURVE",
"792 350 CURVE SMOOTH",
"792 564 OFFCURVE",
"676 710 OFFCURVE",
"411 710 CURVE SMOOTH",
"147 710 OFFCURVE",
"31 564 OFFCURVE",
"31 350 CURVE SMOOTH",
"31 135 OFFCURVE",
"147 -10 OFFCURVE",
"411 -10 CURVE SMOOTH"
);
},
{
closed = 1;
nodes = (
"288 56 OFFCURVE",
"220 164 OFFCURVE",
"220 350 CURVE SMOOTH",
"220 535 OFFCURVE",
"288 646 OFFCURVE",
"410 646 CURVE SMOOTH",
"534 646 OFFCURVE",
"603 535 OFFCURVE",
"603 350 CURVE SMOOTH",
"603 164 OFFCURVE",
"534 56 OFFCURVE",
"410 56 CURVE SMOOTH"
);
},
{
closed = 1;
nodes = (
"541 844 LINE",
"417 976 LINE",
"410 984 OFFCURVE",
"382 1015 OFFCURVE",
"345 1015 CURVE SMOOTH",
"303 1015 OFFCURVE",
"287 988 OFFCURVE",
"287 966 CURVE SMOOTH",
"287 938 OFFCURVE",
"307 917 OFFCURVE",
"342 896 CURVE SMOOTH",
"509 799 LINE"
);
},
{
closed = 1;
nodes = (
"779 520 OFFCURVE",
"893 605 OFFCURVE",
"893 711 CURVE SMOOTH",
"893 776 OFFCURVE",
"855 812 OFFCURVE",
"808 812 CURVE SMOOTH",
"763 812 OFFCURVE",
"736 782 OFFCURVE",
"736 749 CURVE SMOOTH",
"736 706 OFFCURVE",
"779 688 OFFCURVE",
"779 645 CURVE SMOOTH",
"779 601 OFFCURVE",
"748 568 OFFCURVE",
"693 541 CURVE",
"693 504 LINE"
);
}
);
width = 838;
}
);
leftKerningGroup = O;
note = Ohorngrave;
rightKerningGroup = O;
unicode = 1EDC;
},
{
glyphname = Ohornhookabove;
lastChange = "2015-12-01 13:17:57 +0000";
layers = (
{
layerId = "48F9CBD8-FA9F-4F3E-B644-8148CA6A9069";
name = Bold;
paths = (
{
closed = 1;
nodes = (
"676 -10 OFFCURVE",
"792 135 OFFCURVE",
"792 350 CURVE SMOOTH",
"792 564 OFFCURVE",
"676 710 OFFCURVE",
"411 710 CURVE SMOOTH",
"147 710 OFFCURVE",
"31 564 OFFCURVE",
"31 350 CURVE SMOOTH",
"31 135 OFFCURVE",
"147 -10 OFFCURVE",
"411 -10 CURVE SMOOTH"
);
},
{
closed = 1;
nodes = (
"288 56 OFFCURVE",
"220 164 OFFCURVE",
"220 350 CURVE SMOOTH",
"220 535 OFFCURVE",
"288 646 OFFCURVE",
"410 646 CURVE SMOOTH",
"534 646 OFFCURVE",
"603 535 OFFCURVE",
"603 350 CURVE SMOOTH",
"603 164 OFFCURVE",
"534 56 OFFCURVE",
"410 56 CURVE SMOOTH"
);
},
{
closed = 1;
nodes = (
"448 826 LINE",
"434 828 OFFCURVE",
"418 832 OFFCURVE",
"418 853 CURVE SMOOTH",
"418 899 OFFCURVE",
"533 907 OFFCURVE",
"533 975 CURVE SMOOTH",
"533 1026 OFFCURVE",
"478 1051 OFFCURVE",
"415 1051 CURVE SMOOTH",
"329 1051 OFFCURVE",
"299 1014 OFFCURVE",
"299 987 CURVE SMOOTH",
"299 962 OFFCURVE",
"317 951 OFFCURVE",
"335 951 CURVE SMOOTH",
"357 951 OFFCURVE",
"371 966 OFFCURVE",
"372 982 CURVE SMOOTH",
"373 1009 OFFCURVE",
"397 1016 OFFCURVE",
"414 1016 CURVE SMOOTH",
"436 1016 OFFCURVE",
"447 999 OFFCURVE",
"447 982 CURVE SMOOTH",
"447 920 OFFCURVE",
"352 908 OFFCURVE",
"352 855 CURVE SMOOTH",
"352 821 OFFCURVE",
"390 801 OFFCURVE",
"439 801 CURVE"
);
},
{
closed = 1;
nodes = (
"779 520 OFFCURVE",
"893 605 OFFCURVE",
"893 711 CURVE SMOOTH",
"893 776 OFFCURVE",
"855 812 OFFCURVE",
"808 812 CURVE SMOOTH",
"763 812 OFFCURVE",
"736 782 OFFCURVE",
"736 749 CURVE SMOOTH",
"736 706 OFFCURVE",
"779 688 OFFCURVE",
"779 645 CURVE SMOOTH",
"779 601 OFFCURVE",
"748 568 OFFCURVE",
"693 541 CURVE",
"693 504 LINE"
);
}
);
width = 838;
}
);
leftKerningGroup = O;
note = Ohornhookabove;
rightKerningGroup = O;
unicode = 1EDE;
},
{
glyphname = Ohorntilde;
lastChange = "2015-12-01 13:17:57 +0000";
layers = (
{
layerId = "48F9CBD8-FA9F-4F3E-B644-8148CA6A9069";
name = Bold;
paths = (
{
closed = 1;
nodes = (
"676 -10 OFFCURVE",
"792 135 OFFCURVE",
"792 350 CURVE SMOOTH",
"792 564 OFFCURVE",
"676 710 OFFCURVE",
"411 710 CURVE SMOOTH",
"147 710 OFFCURVE",
"31 564 OFFCURVE",
"31 350 CURVE SMOOTH",
"31 135 OFFCURVE",
"147 -10 OFFCURVE",
"411 -10 CURVE SMOOTH"
);
},
{
closed = 1;
nodes = (
"288 56 OFFCURVE",
"220 164 OFFCURVE",
"220 350 CURVE SMOOTH",
"220 535 OFFCURVE",
"288 646 OFFCURVE",
"410 646 CURVE SMOOTH",
"534 646 OFFCURVE",
"603 535 OFFCURVE",
"603 350 CURVE SMOOTH",
"603 164 OFFCURVE",
"534 56 OFFCURVE",
"410 56 CURVE SMOOTH"
);
},
{
closed = 1;
nodes = (
"256 836 OFFCURVE",
"273 853 OFFCURVE",
"310 853 CURVE SMOOTH",
"374 853 OFFCURVE",
"431 807 OFFCURVE",
"493 807 CURVE SMOOTH",
"572 807 OFFCURVE",
"608 883 OFFCURVE",
"625 929 CURVE",
"594 946 LINE",
"572 906 OFFCURVE",
"556 888 OFFCURVE",
"518 888 CURVE SMOOTH",
"455 888 OFFCURVE",
"398 934 OFFCURVE",
"336 934 CURVE SMOOTH",
"257 934 OFFCURVE",
"221 859 OFFCURVE",
"203 813 CURVE",
"235 796 LINE"
);
},
{
closed = 1;
nodes = (
"779 520 OFFCURVE",
"893 605 OFFCURVE",
"893 711 CURVE SMOOTH",
"893 776 OFFCURVE",
"855 812 OFFCURVE",
"808 812 CURVE SMOOTH",
"763 812 OFFCURVE",
"736 782 OFFCURVE",
"736 749 CURVE SMOOTH",
"736 706 OFFCURVE",
"779 688 OFFCURVE",
"779 645 CURVE SMOOTH",
"779 601 OFFCURVE",
"748 568 OFFCURVE",
"693 541 CURVE",
"693 504 LINE"
);
}
);
width = 838;
}
);
leftKerningGroup = O;
note = Ohorntilde;
rightKerningGroup = O;
unicode = 1EE0;
},
{
glyphname = Ohungarumlaut;
lastChange = "2015-12-01 13:13:41 +0000";
layers = (
{
layerId = "48F9CBD8-FA9F-4F3E-B644-8148CA6A9069";
name = Bold;
paths = (
{
closed = 1;
nodes = (
"676 -10 OFFCURVE",
"792 135 OFFCURVE",
"792 350 CURVE SMOOTH",
"792 564 OFFCURVE",
"676 710 OFFCURVE",
"411 710 CURVE SMOOTH",
"147 710 OFFCURVE",
"31 564 OFFCURVE",
"31 350 CURVE SMOOTH",
"31 135 OFFCURVE",
"147 -10 OFFCURVE",
"411 -10 CURVE SMOOTH"
);
},
{
closed = 1;
nodes = (
"288 56 OFFCURVE",
"220 164 OFFCURVE",
"220 350 CURVE SMOOTH",
"220 535 OFFCURVE",
"288 646 OFFCURVE",
"410 646 CURVE SMOOTH",
"534 646 OFFCURVE",
"603 535 OFFCURVE",
"603 350 CURVE SMOOTH",
"603 164 OFFCURVE",
"534 56 OFFCURVE",
"410 56 CURVE SMOOTH"
);
},
{
closed = 1;
nodes = (
"416 870 LINE SMOOTH",
"452 891 OFFCURVE",
"472 913 OFFCURVE",
"472 940 CURVE SMOOTH",
"472 962 OFFCURVE",
"457 990 OFFCURVE",
"415 990 CURVE SMOOTH",
"380 990 OFFCURVE",
"348 957 OFFCURVE",
"342 951 CURVE",
"218 818 LINE",
"250 773 LINE"
);
},
{
closed = 1;
nodes = (
"632 870 LINE SMOOTH",
"667 891 OFFCURVE",
"688 913 OFFCURVE",
"688 940 CURVE SMOOTH",
"688 962 OFFCURVE",
"674 990 OFFCURVE",
"632 990 CURVE SMOOTH",
"595 990 OFFCURVE",
"563 957 OFFCURVE",
"557 951 CURVE",
"433 818 LINE",
"465 773 LINE"
);
}
);
width = 823;
}
);
leftKerningGroup = O;
note = Ohungarumlaut;
rightKerningGroup = O;
unicode = 0150;
},
{
glyphname = Omacron;
lastChange = "2015-12-01 13:13:43 +0000";
layers = (
{
layerId = "48F9CBD8-FA9F-4F3E-B644-8148CA6A9069";
name = Bold;
paths = (
{
closed = 1;
nodes = (
"676 -10 OFFCURVE",
"792 135 OFFCURVE",
"792 350 CURVE SMOOTH",
"792 564 OFFCURVE",
"676 710 OFFCURVE",
"411 710 CURVE SMOOTH",
"147 710 OFFCURVE",
"31 564 OFFCURVE",
"31 350 CURVE SMOOTH",
"31 135 OFFCURVE",
"147 -10 OFFCURVE",
"411 -10 CURVE SMOOTH"
);
},
{
closed = 1;
nodes = (
"288 56 OFFCURVE",
"220 164 OFFCURVE",
"220 350 CURVE SMOOTH",
"220 535 OFFCURVE",
"288 646 OFFCURVE",
"410 646 CURVE SMOOTH",
"534 646 OFFCURVE",
"603 535 OFFCURVE",
"603 350 CURVE SMOOTH",
"603 164 OFFCURVE",
"534 56 OFFCURVE",
"410 56 CURVE SMOOTH"
);
},
{
closed = 1;
nodes = (
"616 778 LINE",
"616 847 LINE",
"206 847 LINE",
"206 778 LINE"
);
}
);
width = 823;
}
);
leftKerningGroup = O;
note = Omacron;
rightKerningGroup = O;
unicode = 014C;
},
{
glyphname = Oslash;
lastChange = "2015-12-01 13:18:14 +0000";
layers = (
{
layerId = "48F9CBD8-FA9F-4F3E-B644-8148CA6A9069";
name = Bold;
paths = (
{
closed = 1;
nodes = (
"676 -10 OFFCURVE",
"792 135 OFFCURVE",
"792 350 CURVE SMOOTH",
"792 564 OFFCURVE",
"676 710 OFFCURVE",
"411 710 CURVE SMOOTH",
"147 710 OFFCURVE",
"31 564 OFFCURVE",
"31 350 CURVE SMOOTH",
"31 135 OFFCURVE",
"147 -10 OFFCURVE",
"411 -10 CURVE SMOOTH"
);
},
{
closed = 1;
nodes = (
"288 56 OFFCURVE",
"220 164 OFFCURVE",
"220 350 CURVE SMOOTH",
"220 535 OFFCURVE",
"288 646 OFFCURVE",
"410 646 CURVE SMOOTH",
"534 646 OFFCURVE",
"603 535 OFFCURVE",
"603 350 CURVE SMOOTH",
"603 164 OFFCURVE",
"534 56 OFFCURVE",
"410 56 CURVE SMOOTH"
);
},
{
closed = 1;
nodes = (
"723 687 LINE",
"669 729 LINE",
"44 5 LINE",
"95 -36 LINE"
);
}
);
width = 823;
}
);
leftKerningGroup = O;
note = Oslash;
rightKerningGroup = O;
unicode = 00D8;
},
{
glyphname = Oslashacute;
lastChange = "2015-12-01 13:18:16 +0000";
layers = (
{
layerId = "48F9CBD8-FA9F-4F3E-B644-8148CA6A9069";
name = Bold;
paths = (
{
closed = 1;
nodes = (
"676 -10 OFFCURVE",
"792 135 OFFCURVE",
"792 350 CURVE SMOOTH",
"792 564 OFFCURVE",
"676 710 OFFCURVE",
"411 710 CURVE SMOOTH",
"147 710 OFFCURVE",
"31 564 OFFCURVE",
"31 350 CURVE SMOOTH",
"31 135 OFFCURVE",
"147 -10 OFFCURVE",
"411 -10 CURVE SMOOTH"
);
},
{
closed = 1;
nodes = (
"288 56 OFFCURVE",
"220 164 OFFCURVE",
"220 350 CURVE SMOOTH",
"220 535 OFFCURVE",
"288 646 OFFCURVE",
"410 646 CURVE SMOOTH",
"534 646 OFFCURVE",
"603 535 OFFCURVE",
"603 350 CURVE SMOOTH",
"603 164 OFFCURVE",
"534 56 OFFCURVE",
"410 56 CURVE SMOOTH"
);
},
{
closed = 1;
nodes = (
"483 872 LINE SMOOTH",
"519 893 OFFCURVE",
"540 914 OFFCURVE",
"540 941 CURVE SMOOTH",
"540 964 OFFCURVE",
"523 991 OFFCURVE",
"481 991 CURVE SMOOTH",
"444 991 OFFCURVE",
"416 960 OFFCURVE",
"410 952 CURVE",
"285 820 LINE",
"317 775 LINE"
);
},
{
closed = 1;
nodes = (
"723 687 LINE",
"669 729 LINE",
"44 5 LINE",
"95 -36 LINE"
);
}
);
width = 823;
}
);
leftKerningGroup = O;
note = Oslashacute;
rightKerningGroup = O;
unicode = 01FE;
},
{
glyphname = Otilde;
lastChange = "2015-12-01 13:13:40 +0000";
layers = (
{
layerId = "48F9CBD8-FA9F-4F3E-B644-8148CA6A9069";
name = Bold;
paths = (
{
closed = 1;
nodes = (
"676 -10 OFFCURVE",
"792 135 OFFCURVE",
"792 350 CURVE SMOOTH",
"792 564 OFFCURVE",
"676 710 OFFCURVE",
"411 710 CURVE SMOOTH",
"147 710 OFFCURVE",
"31 564 OFFCURVE",
"31 350 CURVE SMOOTH",
"31 135 OFFCURVE",
"147 -10 OFFCURVE",
"411 -10 CURVE SMOOTH"
);
},
{
closed = 1;
nodes = (
"288 56 OFFCURVE",
"220 164 OFFCURVE",
"220 350 CURVE SMOOTH",
"220 535 OFFCURVE",
"288 646 OFFCURVE",
"410 646 CURVE SMOOTH",
"534 646 OFFCURVE",
"603 535 OFFCURVE",
"603 350 CURVE SMOOTH",
"603 164 OFFCURVE",
"534 56 OFFCURVE",
"410 56 CURVE SMOOTH"
);
},
{
closed = 1;
nodes = (
"245 812 OFFCURVE",
"262 829 OFFCURVE",
"299 829 CURVE SMOOTH",
"363 829 OFFCURVE",
"420 783 OFFCURVE",
"482 783 CURVE SMOOTH",
"561 783 OFFCURVE",
"597 859 OFFCURVE",
"614 905 CURVE",
"583 922 LINE",
"561 882 OFFCURVE",
"545 864 OFFCURVE",
"507 864 CURVE SMOOTH",
"444 864 OFFCURVE",
"387 910 OFFCURVE",
"325 910 CURVE SMOOTH",
"246 910 OFFCURVE",
"210 835 OFFCURVE",
"192 789 CURVE",
"224 772 LINE"
);
}
);
width = 823;
}
);
leftKerningGroup = O;
note = Otilde;
rightKerningGroup = O;
unicode = 00D5;
},
{
glyphname = OE;
lastChange = "2015-12-01 13:13:41 +0000";
layers = (
{
layerId = "48F9CBD8-FA9F-4F3E-B644-8148CA6A9069";
name = Bold;
paths = (
{
closed = 1;
nodes = (
"520 -10 OFFCURVE",
"604 51 OFFCURVE",
"650 137 CURVE",
"581 193 LINE",
"552 104 OFFCURVE",
"494 54 OFFCURVE",
"412 54 CURVE SMOOTH",
"290 54 OFFCURVE",
"221 164 OFFCURVE",
"221 350 CURVE SMOOTH",
"221 535 OFFCURVE",
"290 646 OFFCURVE",
"412 646 CURVE SMOOTH",
"494 646 OFFCURVE",
"552 596 OFFCURVE",
"581 507 CURVE",
"649 563 LINE",
"604 649 OFFCURVE",
"519 710 OFFCURVE",
"391 710 CURVE SMOOTH",
"149 710 OFFCURVE",
"32 564 OFFCURVE",
"32 350 CURVE SMOOTH",
"32 135 OFFCURVE",
"149 -10 OFFCURVE",
"391 -10 CURVE SMOOTH"
);
},
{
closed = 1;
nodes = (
"1084 0 LINE",
"1105 198 LINE",
"1060 198 LINE",
"1049 127 OFFCURVE",
"1029 62 OFFCURVE",
"957 62 CURVE SMOOTH",
"749 62 LINE",
"749 637 LINE",
"930 637 LINE SMOOTH",
"1024 637 OFFCURVE",
"1036 539 OFFCURVE",
"1040 502 CURVE",
"1085 502 LINE",
"1085 700 LINE",
"563 700 LINE",
"563 0 LINE"
);
},
{
closed = 1;
nodes = (
"999 242 LINE",
"999 483 LINE",
"963 483 LINE",
"959 439 OFFCURVE",
"953 394 OFFCURVE",
"908 394 CURVE SMOOTH",
"706 394 LINE",
"706 331 LINE",
"908 331 LINE SMOOTH",
"953 331 OFFCURVE",
"959 286 OFFCURVE",
"963 242 CURVE"
);
}
);
width = 1136;
}
);
note = OE;
unicode = 0152;
},
{
glyphname = P;
lastChange = "2015-12-01 13:13:42 +0000";
layers = (
{
layerId = "48F9CBD8-FA9F-4F3E-B644-8148CA6A9069";
name = Bold;
paths = (
{
closed = 1;
nodes = (
"371 0 LINE",
"371 44 LINE",
"339 44 LINE SMOOTH",
"301 44 OFFCURVE",
"285 57 OFFCURVE",
"285 83 CURVE SMOOTH",
"285 265 LINE",
"410 265 LINE SMOOTH",
"595 265 OFFCURVE",
"650 356 OFFCURVE",
"650 483 CURVE SMOOTH",
"650 610 OFFCURVE",
"595 700 OFFCURVE",
"410 700 CURVE SMOOTH",
"12 700 LINE",
"12 656 LINE",
"44 656 LINE SMOOTH",
"82 656 OFFCURVE",
"99 643 OFFCURVE",
"99 617 CURVE SMOOTH",
"99 83 LINE SMOOTH",
"99 57 OFFCURVE",
"82 44 OFFCURVE",
"44 44 CURVE SMOOTH",
"12 44 LINE",
"12 0 LINE"
);
},
{
closed = 1;
nodes = (
"285 637 LINE",
"365 637 LINE SMOOTH",
"436 637 OFFCURVE",
"466 583 OFFCURVE",
"466 483 CURVE SMOOTH",
"466 383 OFFCURVE",
"436 328 OFFCURVE",
"365 328 CURVE SMOOTH",
"285 328 LINE"
);
}
);
width = 669;
}
);
note = P;
unicode = 0050;
},
{
glyphname = Thorn;
lastChange = "2015-12-01 13:13:42 +0000";
layers = (
{
layerId = "48F9CBD8-FA9F-4F3E-B644-8148CA6A9069";
name = Bold;
paths = (
{
closed = 1;
nodes = (
"371 0 LINE",
"371 44 LINE",
"339 44 LINE SMOOTH",
"301 44 OFFCURVE",
"285 57 OFFCURVE",
"285 83 CURVE SMOOTH",
"285 160 LINE",
"410 160 LINE SMOOTH",
"595 160 OFFCURVE",
"650 250 OFFCURVE",
"650 377 CURVE SMOOTH",
"650 505 OFFCURVE",
"595 594 OFFCURVE",
"410 594 CURVE SMOOTH",
"285 594 LINE",
"285 700 LINE",
"12 700 LINE",
"12 656 LINE",
"44 656 LINE SMOOTH",
"82 656 OFFCURVE",
"99 643 OFFCURVE",
"99 617 CURVE SMOOTH",
"99 83 LINE SMOOTH",
"99 57 OFFCURVE",
"82 44 OFFCURVE",
"44 44 CURVE SMOOTH",
"12 44 LINE",
"12 0 LINE"
);
},
{
closed = 1;
nodes = (
"285 532 LINE",
"365 532 LINE SMOOTH",
"436 532 OFFCURVE",
"466 478 OFFCURVE",
"466 377 CURVE SMOOTH",
"466 277 OFFCURVE",
"436 222 OFFCURVE",
"365 222 CURVE SMOOTH",
"285 222 LINE"
);
}
);
width = 669;
}
);
note = Thorn;
unicode = 00DE;
},
{
glyphname = Q;
lastChange = "2015-12-01 13:18:28 +0000";
layers = (
{
layerId = "48F9CBD8-FA9F-4F3E-B644-8148CA6A9069";
name = Bold;
paths = (
{
closed = 1;
nodes = (
"676 -10 OFFCURVE",
"792 135 OFFCURVE",
"792 350 CURVE SMOOTH",
"792 564 OFFCURVE",
"676 710 OFFCURVE",
"411 710 CURVE SMOOTH",
"147 710 OFFCURVE",
"31 564 OFFCURVE",
"31 350 CURVE SMOOTH",
"31 135 OFFCURVE",
"147 -10 OFFCURVE",
"411 -10 CURVE SMOOTH"
);
},
{
closed = 1;
nodes = (
"288 56 OFFCURVE",
"220 164 OFFCURVE",
"220 350 CURVE SMOOTH",
"220 535 OFFCURVE",
"288 646 OFFCURVE",
"410 646 CURVE SMOOTH",
"534 646 OFFCURVE",
"603 535 OFFCURVE",
"603 350 CURVE SMOOTH",
"603 164 OFFCURVE",
"534 56 OFFCURVE",
"410 56 CURVE SMOOTH"
);
},
{
closed = 1;
nodes = (
"677 -201 OFFCURVE",
"722 -135 OFFCURVE",
"722 -63 CURVE SMOOTH",
"722 -54 OFFCURVE",
"721 -42 OFFCURVE",
"719 -32 CURVE",
"688 -32 LINE",
"673 -80 OFFCURVE",
"649 -98 OFFCURVE",
"600 -98 CURVE SMOOTH",
"507 -98 OFFCURVE",
"437 -33 OFFCURVE",
"337 -33 CURVE SMOOTH",
"324 -33 LINE",
"350 -13 OFFCURVE",
"370 0 OFFCURVE",
"392 9 CURVE",
"392 13 LINE",
"321 13 LINE",
"265 -5 OFFCURVE",
"214 -47 OFFCURVE",
"179 -82 CURVE",
"197 -107 LINE",
"226 -90 OFFCURVE",
"253 -85 OFFCURVE",
"278 -85 CURVE SMOOTH",
"378 -85 OFFCURVE",
"462 -201 OFFCURVE",
"572 -201 CURVE SMOOTH"
);
}
);
width = 823;
}
);
leftKerningGroup = O;
note = Q;
rightKerningGroup = O;
unicode = 0051;
},
{
glyphname = R;
lastChange = "2015-12-01 13:18:35 +0000";
layers = (
{
layerId = "48F9CBD8-FA9F-4F3E-B644-8148CA6A9069";
name = Bold;
paths = (
{
closed = 1;
nodes = (
"371 0 LINE",
"371 44 LINE",
"339 44 LINE SMOOTH",
"301 44 OFFCURVE",
"285 57 OFFCURVE",
"285 83 CURVE SMOOTH",
"285 284 LINE",
"410 284 LINE SMOOTH",
"594 284 OFFCURVE",
"649 365 OFFCURVE",
"649 493 CURVE SMOOTH",
"649 620 OFFCURVE",
"594 700 OFFCURVE",
"410 700 CURVE SMOOTH",
"12 700 LINE",
"12 656 LINE",
"44 656 LINE SMOOTH",
"82 656 OFFCURVE",
"99 643 OFFCURVE",
"99 617 CURVE SMOOTH",
"99 83 LINE SMOOTH",
"99 57 OFFCURVE",
"82 44 OFFCURVE",
"44 44 CURVE SMOOTH",
"12 44 LINE",
"12 0 LINE"
);
},
{
closed = 1;
nodes = (
"285 637 LINE",
"364 637 LINE SMOOTH",
"435 637 OFFCURVE",
"466 593 OFFCURVE",
"466 493 CURVE SMOOTH",
"466 393 OFFCURVE",
"435 347 OFFCURVE",
"364 347 CURVE SMOOTH",
"285 347 LINE"
);
},
{
closed = 1;
nodes = (
"713 0 LINE",
"713 44 LINE",
"647 48 OFFCURVE",
"627 114 OFFCURVE",
"607 179 CURVE SMOOTH",
"593 225 OFFCURVE",
"577 280 OFFCURVE",
"506 304 CURVE",
"338 304 LINE",
"338 300 LINE",
"420 275 OFFCURVE",
"410 179 OFFCURVE",
"434 100 CURVE SMOOTH",
"457 28 OFFCURVE",
"489 0 OFFCURVE",
"580 0 CURVE SMOOTH"
);
}
);
width = 739;
}
);
note = R;
rightKerningGroup = R;
unicode = 0052;
},
{
glyphname = Racute;
lastChange = "2015-12-01 13:18:38 +0000";
layers = (
{
layerId = "48F9CBD8-FA9F-4F3E-B644-8148CA6A9069";
name = Bold;
paths = (
{
closed = 1;
nodes = (
"371 0 LINE",
"371 44 LINE",
"339 44 LINE SMOOTH",
"301 44 OFFCURVE",
"285 57 OFFCURVE",
"285 83 CURVE SMOOTH",
"285 284 LINE",
"410 284 LINE SMOOTH",
"594 284 OFFCURVE",
"649 365 OFFCURVE",
"649 493 CURVE SMOOTH",
"649 620 OFFCURVE",
"594 700 OFFCURVE",
"410 700 CURVE SMOOTH",
"12 700 LINE",
"12 656 LINE",
"44 656 LINE SMOOTH",
"82 656 OFFCURVE",
"99 643 OFFCURVE",
"99 617 CURVE SMOOTH",
"99 83 LINE SMOOTH",
"99 57 OFFCURVE",
"82 44 OFFCURVE",
"44 44 CURVE SMOOTH",
"12 44 LINE",
"12 0 LINE"
);
},
{
closed = 1;
nodes = (
"285 637 LINE",
"364 637 LINE SMOOTH",
"435 637 OFFCURVE",
"466 593 OFFCURVE",
"466 493 CURVE SMOOTH",
"466 393 OFFCURVE",
"435 347 OFFCURVE",
"364 347 CURVE SMOOTH",
"285 347 LINE"
);
},
{
closed = 1;
nodes = (
"714 0 LINE",
"714 44 LINE",
"648 48 OFFCURVE",
"628 114 OFFCURVE",
"608 179 CURVE SMOOTH",
"594 225 OFFCURVE",
"578 280 OFFCURVE",
"507 304 CURVE",
"339 304 LINE",
"339 300 LINE",
"421 275 OFFCURVE",
"411 179 OFFCURVE",
"435 100 CURVE SMOOTH",
"458 28 OFFCURVE",
"490 0 OFFCURVE",
"581 0 CURVE SMOOTH"
);
},
{
closed = 1;
nodes = (
"447 872 LINE SMOOTH",
"483 893 OFFCURVE",
"504 914 OFFCURVE",
"504 941 CURVE SMOOTH",
"504 964 OFFCURVE",
"487 991 OFFCURVE",
"445 991 CURVE SMOOTH",
"408 991 OFFCURVE",
"380 960 OFFCURVE",
"374 952 CURVE",
"249 820 LINE",
"281 775 LINE"
);
}
);
width = 739;
}
);
note = Racute;
rightKerningGroup = R;
unicode = 0154;
},
{
glyphname = Rcaron;
lastChange = "2015-12-01 13:18:43 +0000";
layers = (
{
layerId = "48F9CBD8-FA9F-4F3E-B644-8148CA6A9069";
name = Bold;
paths = (
{
closed = 1;
nodes = (
"371 0 LINE",
"371 44 LINE",
"339 44 LINE SMOOTH",
"301 44 OFFCURVE",
"285 57 OFFCURVE",
"285 83 CURVE SMOOTH",
"285 284 LINE",
"410 284 LINE SMOOTH",
"594 284 OFFCURVE",
"649 365 OFFCURVE",
"649 493 CURVE SMOOTH",
"649 620 OFFCURVE",
"594 700 OFFCURVE",
"410 700 CURVE SMOOTH",
"12 700 LINE",
"12 656 LINE",
"44 656 LINE SMOOTH",
"82 656 OFFCURVE",
"99 643 OFFCURVE",
"99 617 CURVE SMOOTH",
"99 83 LINE SMOOTH",
"99 57 OFFCURVE",
"82 44 OFFCURVE",
"44 44 CURVE SMOOTH",
"12 44 LINE",
"12 0 LINE"
);
},
{
closed = 1;
nodes = (
"285 637 LINE",
"364 637 LINE SMOOTH",
"435 637 OFFCURVE",
"466 593 OFFCURVE",
"466 493 CURVE SMOOTH",
"466 393 OFFCURVE",
"435 347 OFFCURVE",
"364 347 CURVE SMOOTH",
"285 347 LINE"
);
},
{
closed = 1;
nodes = (
"713 0 LINE",
"713 44 LINE",
"647 48 OFFCURVE",
"627 114 OFFCURVE",
"607 179 CURVE SMOOTH",
"593 225 OFFCURVE",
"577 280 OFFCURVE",
"506 304 CURVE",
"338 304 LINE",
"338 300 LINE",
"420 275 OFFCURVE",
"410 179 OFFCURVE",
"434 100 CURVE SMOOTH",
"457 28 OFFCURVE",
"489 0 OFFCURVE",
"580 0 CURVE SMOOTH"
);
},
{
closed = 1;
nodes = (
"419 776 LINE",
"577 950 LINE",
"549 978 LINE",
"415 878 LINE SMOOTH",
"400 866 OFFCURVE",
"386 859 OFFCURVE",
"375 859 CURVE SMOOTH",
"364 859 OFFCURVE",
"350 866 OFFCURVE",
"335 878 CURVE",
"200 978 LINE",
"173 950 LINE",
"331 776 LINE"
);
}
);
width = 739;
}
);
note = Rcaron;
rightKerningGroup = R;
unicode = 0158;
},
{
glyphname = Rcommaaccent;
lastChange = "2015-12-01 13:18:49 +0000";
layers = (
{
layerId = "48F9CBD8-FA9F-4F3E-B644-8148CA6A9069";
name = Bold;
paths = (
{
closed = 1;
nodes = (
"371 0 LINE",
"371 44 LINE",
"339 44 LINE SMOOTH",
"301 44 OFFCURVE",
"285 57 OFFCURVE",
"285 83 CURVE SMOOTH",
"285 284 LINE",
"410 284 LINE SMOOTH",
"594 284 OFFCURVE",
"649 365 OFFCURVE",
"649 493 CURVE SMOOTH",
"649 620 OFFCURVE",
"594 700 OFFCURVE",
"410 700 CURVE SMOOTH",
"12 700 LINE",
"12 656 LINE",
"44 656 LINE SMOOTH",
"82 656 OFFCURVE",
"99 643 OFFCURVE",
"99 617 CURVE SMOOTH",
"99 83 LINE SMOOTH",
"99 57 OFFCURVE",
"82 44 OFFCURVE",
"44 44 CURVE SMOOTH",
"12 44 LINE",
"12 0 LINE"
);
},
{
closed = 1;
nodes = (
"285 637 LINE",
"364 637 LINE SMOOTH",
"435 637 OFFCURVE",
"466 593 OFFCURVE",
"466 493 CURVE SMOOTH",
"466 393 OFFCURVE",
"435 347 OFFCURVE",
"364 347 CURVE SMOOTH",
"285 347 LINE"
);
},
{
closed = 1;
nodes = (
"713 0 LINE",
"713 44 LINE",
"647 48 OFFCURVE",
"627 114 OFFCURVE",
"607 179 CURVE SMOOTH",
"593 225 OFFCURVE",
"577 280 OFFCURVE",
"506 304 CURVE",
"338 304 LINE",
"338 300 LINE",
"420 275 OFFCURVE",
"410 179 OFFCURVE",
"434 100 CURVE SMOOTH",
"457 28 OFFCURVE",
"489 0 OFFCURVE",
"580 0 CURVE SMOOTH"
);
},
{
closed = 1;
nodes = (
"391 -343 OFFCURVE",
"468 -260 OFFCURVE",
"468 -177 CURVE SMOOTH",
"468 -112 OFFCURVE",
"431 -75 OFFCURVE",
"384 -75 CURVE SMOOTH",
"339 -75 OFFCURVE",
"311 -105 OFFCURVE",
"311 -139 CURVE SMOOTH",
"311 -182 OFFCURVE",
"355 -199 OFFCURVE",
"355 -243 CURVE SMOOTH",
"355 -287 OFFCURVE",
"330 -326 OFFCURVE",
"296 -361 CURVE",
"324 -387 LINE"
);
}
);
width = 739;
}
);
note = Rcommaaccent;
rightKerningGroup = R;
unicode = 0156;
},
{
glyphname = Rdotbelow;
lastChange = "2015-12-01 13:18:53 +0000";
layers = (
{
layerId = "48F9CBD8-FA9F-4F3E-B644-8148CA6A9069";
name = Bold;
paths = (
{
closed = 1;
nodes = (
"371 0 LINE",
"371 44 LINE",
"339 44 LINE SMOOTH",
"301 44 OFFCURVE",
"285 57 OFFCURVE",
"285 83 CURVE SMOOTH",
"285 284 LINE",
"410 284 LINE SMOOTH",
"594 284 OFFCURVE",
"649 365 OFFCURVE",
"649 493 CURVE SMOOTH",
"649 620 OFFCURVE",
"594 700 OFFCURVE",
"410 700 CURVE SMOOTH",
"12 700 LINE",
"12 656 LINE",
"44 656 LINE SMOOTH",
"82 656 OFFCURVE",
"99 643 OFFCURVE",
"99 617 CURVE SMOOTH",
"99 83 LINE SMOOTH",
"99 57 OFFCURVE",
"82 44 OFFCURVE",
"44 44 CURVE SMOOTH",
"12 44 LINE",
"12 0 LINE"
);
},
{
closed = 1;
nodes = (
"285 637 LINE",
"364 637 LINE SMOOTH",
"435 637 OFFCURVE",
"466 593 OFFCURVE",
"466 493 CURVE SMOOTH",
"466 393 OFFCURVE",
"435 347 OFFCURVE",
"364 347 CURVE SMOOTH",
"285 347 LINE"
);
},
{
closed = 1;
nodes = (
"713 0 LINE",
"713 44 LINE",
"647 48 OFFCURVE",
"627 114 OFFCURVE",
"607 179 CURVE SMOOTH",
"593 225 OFFCURVE",
"577 280 OFFCURVE",
"506 304 CURVE",
"338 304 LINE",
"338 300 LINE",
"420 275 OFFCURVE",
"410 179 OFFCURVE",
"434 100 CURVE SMOOTH",
"457 28 OFFCURVE",
"489 0 OFFCURVE",
"580 0 CURVE SMOOTH"
);
},
{
closed = 1;
nodes = (
"417 -205 OFFCURVE",
"444 -174 OFFCURVE",
"444 -135 CURVE SMOOTH",
"444 -96 OFFCURVE",
"417 -64 OFFCURVE",
"374 -64 CURVE SMOOTH",
"331 -64 OFFCURVE",
"304 -96 OFFCURVE",
"304 -135 CURVE SMOOTH",
"304 -174 OFFCURVE",
"331 -205 OFFCURVE",
"374 -205 CURVE SMOOTH"
);
}
);
width = 739;
}
);
note = Rdotbelow;
rightKerningGroup = R;
unicode = 1E5A;
},
{
glyphname = Rdotbelowmacron;
lastChange = "2015-12-01 13:19:10 +0000";
layers = (
{
layerId = "48F9CBD8-FA9F-4F3E-B644-8148CA6A9069";
name = Bold;
paths = (
{
closed = 1;
nodes = (
"371 0 LINE",
"371 44 LINE",
"339 44 LINE SMOOTH",
"301 44 OFFCURVE",
"285 57 OFFCURVE",
"285 83 CURVE SMOOTH",
"285 284 LINE",
"410 284 LINE SMOOTH",
"594 284 OFFCURVE",
"649 365 OFFCURVE",
"649 493 CURVE SMOOTH",
"649 620 OFFCURVE",
"594 700 OFFCURVE",
"410 700 CURVE SMOOTH",
"12 700 LINE",
"12 656 LINE",
"44 656 LINE SMOOTH",
"82 656 OFFCURVE",
"99 643 OFFCURVE",
"99 617 CURVE SMOOTH",
"99 83 LINE SMOOTH",
"99 57 OFFCURVE",
"82 44 OFFCURVE",
"44 44 CURVE SMOOTH",
"12 44 LINE",
"12 0 LINE"
);
},
{
closed = 1;
nodes = (
"285 637 LINE",
"364 637 LINE SMOOTH",
"435 637 OFFCURVE",
"466 593 OFFCURVE",
"466 493 CURVE SMOOTH",
"466 393 OFFCURVE",
"435 347 OFFCURVE",
"364 347 CURVE SMOOTH",
"285 347 LINE"
);
},
{
closed = 1;
nodes = (
"713 0 LINE",
"713 44 LINE",
"647 48 OFFCURVE",
"627 114 OFFCURVE",
"607 179 CURVE SMOOTH",
"593 225 OFFCURVE",
"577 280 OFFCURVE",
"506 304 CURVE",
"338 304 LINE",
"338 300 LINE",
"420 275 OFFCURVE",
"410 179 OFFCURVE",
"434 100 CURVE SMOOTH",
"457 28 OFFCURVE",
"489 0 OFFCURVE",
"580 0 CURVE SMOOTH"
);
},
{
closed = 1;
nodes = (
"417 -205 OFFCURVE",
"444 -174 OFFCURVE",
"444 -135 CURVE SMOOTH",
"444 -96 OFFCURVE",
"417 -64 OFFCURVE",
"374 -64 CURVE",
"331 -64 OFFCURVE",
"304 -96 OFFCURVE",
"304 -135 CURVE SMOOTH",
"304 -174 OFFCURVE",
"331 -205 OFFCURVE",
"374 -205 CURVE SMOOTH"
);
},
{
closed = 1;
nodes = (
"538 776 LINE",
"538 845 LINE",
"128 845 LINE",
"128 776 LINE"
);
}
);
width = 739;
}
);
note = Rdotbelowmacron;
rightKerningGroup = R;
unicode = 1E5C;
},
{
glyphname = Rlinebelow;
lastChange = "2015-12-01 13:19:16 +0000";
layers = (
{
layerId = "48F9CBD8-FA9F-4F3E-B644-8148CA6A9069";
name = Bold;
paths = (
{
closed = 1;
nodes = (
"371 0 LINE",
"371 44 LINE",
"339 44 LINE SMOOTH",
"301 44 OFFCURVE",
"285 57 OFFCURVE",
"285 83 CURVE SMOOTH",
"285 284 LINE",
"410 284 LINE SMOOTH",
"594 284 OFFCURVE",
"649 365 OFFCURVE",
"649 493 CURVE SMOOTH",
"649 620 OFFCURVE",
"594 700 OFFCURVE",
"410 700 CURVE SMOOTH",
"12 700 LINE",
"12 656 LINE",
"44 656 LINE SMOOTH",
"82 656 OFFCURVE",
"99 643 OFFCURVE",
"99 617 CURVE SMOOTH",
"99 83 LINE SMOOTH",
"99 57 OFFCURVE",
"82 44 OFFCURVE",
"44 44 CURVE SMOOTH",
"12 44 LINE",
"12 0 LINE"
);
},
{
closed = 1;
nodes = (
"285 637 LINE",
"364 637 LINE SMOOTH",
"435 637 OFFCURVE",
"466 593 OFFCURVE",
"466 493 CURVE SMOOTH",
"466 393 OFFCURVE",
"435 347 OFFCURVE",
"364 347 CURVE SMOOTH",
"285 347 LINE"
);
},
{
closed = 1;
nodes = (
"713 0 LINE",
"713 44 LINE",
"647 48 OFFCURVE",
"627 114 OFFCURVE",
"607 179 CURVE SMOOTH",
"593 225 OFFCURVE",
"577 280 OFFCURVE",
"506 304 CURVE",
"338 304 LINE",
"338 300 LINE",
"420 275 OFFCURVE",
"410 179 OFFCURVE",
"434 100 CURVE SMOOTH",
"457 28 OFFCURVE",
"489 0 OFFCURVE",
"580 0 CURVE SMOOTH"
);
},
{
closed = 1;
nodes = (
"545 -126 LINE",
"545 -66 LINE",
"135 -66 LINE",
"135 -126 LINE"
);
}
);
width = 739;
}
);
note = Rlinebelow;
rightKerningGroup = R;
unicode = 1E5E;
},
{
glyphname = S;
lastChange = "2015-12-01 13:13:37 +0000";
layers = (
{
layerId = "48F9CBD8-FA9F-4F3E-B644-8148CA6A9069";
name = Bold;
paths = (
{
closed = 1;
nodes = (
"492 -10 OFFCURVE",
"620 48 OFFCURVE",
"620 198 CURVE SMOOTH",
"620 475 OFFCURVE",
"236 392 OFFCURVE",
"236 555 CURVE SMOOTH",
"236 619 OFFCURVE",
"305 645 OFFCURVE",
"358 645 CURVE SMOOTH",
"440 645 OFFCURVE",
"524 606 OFFCURVE",
"539 492 CURVE",
"591 492 LINE",
"591 705 LINE",
"531 705 LINE",
"531 665 LINE SMOOTH",
"531 660 OFFCURVE",
"531 652 OFFCURVE",
"524 652 CURVE SMOOTH",
"517 652 OFFCURVE",
"510 658 OFFCURVE",
"505 661 CURVE SMOOTH",
"463 688 OFFCURVE",
"414 710 OFFCURVE",
"314 710 CURVE SMOOTH",
"151 710 OFFCURVE",
"46 649 OFFCURVE",
"46 524 CURVE SMOOTH",
"46 269 OFFCURVE",
"431 338 OFFCURVE",
"431 166 CURVE SMOOTH",
"431 82 OFFCURVE",
"362 55 OFFCURVE",
"286 55 CURVE SMOOTH",
"204 55 OFFCURVE",
"105 95 OFFCURVE",
"90 209 CURVE",
"38 209 LINE",
"38 -4 LINE",
"97 -4 LINE",
"97 41 LINE SMOOTH",
"97 46 OFFCURVE",
"101 50 OFFCURVE",
"104 50 CURVE SMOOTH",
"107 50 OFFCURVE",
"110 50 OFFCURVE",
"116 47 CURVE",
"160 21 OFFCURVE",
"212 -10 OFFCURVE",
"331 -10 CURVE SMOOTH"
);
}
);
width = 658;
}
);
leftKerningGroup = S;
note = S;
rightKerningGroup = S;
unicode = 0053;
},
{
glyphname = Sacute;
lastChange = "2015-12-01 13:13:42 +0000";
layers = (
{
layerId = "48F9CBD8-FA9F-4F3E-B644-8148CA6A9069";
name = Bold;
paths = (
{
closed = 1;
nodes = (
"492 -10 OFFCURVE",
"620 48 OFFCURVE",
"620 198 CURVE SMOOTH",
"620 475 OFFCURVE",
"236 392 OFFCURVE",
"236 555 CURVE SMOOTH",
"236 619 OFFCURVE",
"305 645 OFFCURVE",
"358 645 CURVE SMOOTH",
"440 645 OFFCURVE",
"524 606 OFFCURVE",
"539 492 CURVE",
"591 492 LINE",
"591 705 LINE",
"531 705 LINE",
"531 665 LINE SMOOTH",
"531 660 OFFCURVE",
"531 652 OFFCURVE",
"524 652 CURVE SMOOTH",
"517 652 OFFCURVE",
"510 658 OFFCURVE",
"505 661 CURVE SMOOTH",
"463 688 OFFCURVE",
"414 710 OFFCURVE",
"314 710 CURVE SMOOTH",
"151 710 OFFCURVE",
"46 649 OFFCURVE",
"46 524 CURVE SMOOTH",
"46 269 OFFCURVE",
"431 338 OFFCURVE",
"431 166 CURVE SMOOTH",
"431 82 OFFCURVE",
"362 55 OFFCURVE",
"286 55 CURVE SMOOTH",
"204 55 OFFCURVE",
"105 95 OFFCURVE",
"90 209 CURVE",
"38 209 LINE",
"38 -4 LINE",
"97 -4 LINE",
"97 41 LINE SMOOTH",
"97 46 OFFCURVE",
"101 50 OFFCURVE",
"104 50 CURVE SMOOTH",
"107 50 OFFCURVE",
"110 50 OFFCURVE",
"116 47 CURVE",
"160 21 OFFCURVE",
"212 -10 OFFCURVE",
"331 -10 CURVE SMOOTH"
);
},
{
closed = 1;
nodes = (
"399 872 LINE SMOOTH",
"435 893 OFFCURVE",
"456 914 OFFCURVE",
"456 941 CURVE SMOOTH",
"456 964 OFFCURVE",
"439 991 OFFCURVE",
"397 991 CURVE SMOOTH",
"360 991 OFFCURVE",
"332 960 OFFCURVE",
"326 952 CURVE",
"201 820 LINE",
"233 775 LINE"
);
}
);
width = 658;
}
);
leftKerningGroup = S;
note = Sacute;
rightKerningGroup = S;
unicode = 015A;
},
{
glyphname = Scaron;
lastChange = "2015-12-01 13:13:41 +0000";
layers = (
{
layerId = "48F9CBD8-FA9F-4F3E-B644-8148CA6A9069";
name = Bold;
paths = (
{
closed = 1;
nodes = (
"492 -10 OFFCURVE",
"620 48 OFFCURVE",
"620 198 CURVE SMOOTH",
"620 475 OFFCURVE",
"236 392 OFFCURVE",
"236 555 CURVE SMOOTH",
"236 619 OFFCURVE",
"305 645 OFFCURVE",
"358 645 CURVE SMOOTH",
"440 645 OFFCURVE",
"524 606 OFFCURVE",
"539 492 CURVE",
"591 492 LINE",
"591 705 LINE",
"531 705 LINE",
"531 665 LINE SMOOTH",
"531 660 OFFCURVE",
"531 652 OFFCURVE",
"524 652 CURVE SMOOTH",
"517 652 OFFCURVE",
"510 658 OFFCURVE",
"505 661 CURVE SMOOTH",
"463 688 OFFCURVE",
"414 710 OFFCURVE",
"314 710 CURVE SMOOTH",
"151 710 OFFCURVE",
"46 649 OFFCURVE",
"46 524 CURVE SMOOTH",
"46 269 OFFCURVE",
"431 338 OFFCURVE",
"431 166 CURVE SMOOTH",
"431 82 OFFCURVE",
"362 55 OFFCURVE",
"286 55 CURVE SMOOTH",
"204 55 OFFCURVE",
"105 95 OFFCURVE",
"90 209 CURVE",
"38 209 LINE",
"38 -4 LINE",
"97 -4 LINE",
"97 41 LINE SMOOTH",
"97 46 OFFCURVE",
"101 50 OFFCURVE",
"104 50 CURVE SMOOTH",
"107 50 OFFCURVE",
"110 50 OFFCURVE",
"116 47 CURVE",
"160 21 OFFCURVE",
"212 -10 OFFCURVE",
"331 -10 CURVE SMOOTH"
);
},
{
closed = 1;
nodes = (
"371 776 LINE",
"529 950 LINE",
"501 978 LINE",
"367 878 LINE SMOOTH",
"352 866 OFFCURVE",
"338 859 OFFCURVE",
"327 859 CURVE SMOOTH",
"316 859 OFFCURVE",
"302 866 OFFCURVE",
"287 878 CURVE",
"152 978 LINE",
"125 950 LINE",
"283 776 LINE"
);
}
);
width = 658;
}
);
leftKerningGroup = S;
note = Scaron;
rightKerningGroup = S;
unicode = 0160;
},
{
glyphname = Scedilla;
lastChange = "2015-12-01 13:13:42 +0000";
layers = (
{
layerId = "48F9CBD8-FA9F-4F3E-B644-8148CA6A9069";
name = Bold;
paths = (
{
closed = 1;
nodes = (
"492 -10 OFFCURVE",
"620 48 OFFCURVE",
"620 198 CURVE SMOOTH",
"620 475 OFFCURVE",
"236 392 OFFCURVE",
"236 555 CURVE SMOOTH",
"236 619 OFFCURVE",
"305 645 OFFCURVE",
"358 645 CURVE SMOOTH",
"440 645 OFFCURVE",
"524 606 OFFCURVE",
"539 492 CURVE",
"591 492 LINE",
"591 705 LINE",
"531 705 LINE",
"531 665 LINE SMOOTH",
"531 660 OFFCURVE",
"531 652 OFFCURVE",
"524 652 CURVE SMOOTH",
"517 652 OFFCURVE",
"510 658 OFFCURVE",
"505 661 CURVE SMOOTH",
"463 688 OFFCURVE",
"414 710 OFFCURVE",
"314 710 CURVE SMOOTH",
"151 710 OFFCURVE",
"46 649 OFFCURVE",
"46 524 CURVE SMOOTH",
"46 269 OFFCURVE",
"431 338 OFFCURVE",
"431 166 CURVE SMOOTH",
"431 82 OFFCURVE",
"362 55 OFFCURVE",
"286 55 CURVE SMOOTH",
"204 55 OFFCURVE",
"105 95 OFFCURVE",
"90 209 CURVE",
"38 209 LINE",
"38 -4 LINE",
"97 -4 LINE",
"97 41 LINE SMOOTH",
"97 46 OFFCURVE",
"101 50 OFFCURVE",
"104 50 CURVE SMOOTH",
"107 50 OFFCURVE",
"110 50 OFFCURVE",
"116 47 CURVE",
"160 21 OFFCURVE",
"212 -10 OFFCURVE",
"331 -10 CURVE SMOOTH"
);
},
{
closed = 1;
nodes = (
"318 -250 OFFCURVE",
"439 -240 OFFCURVE",
"439 -133 CURVE SMOOTH",
"439 -61 OFFCURVE",
"358 -40 OFFCURVE",
"322 -36 CURVE",
"366 32 LINE",
"302 32 LINE",
"234 -74 LINE",
"242 -86 LINE",
"264 -87 OFFCURVE",
"328 -98 OFFCURVE",
"328 -142 CURVE SMOOTH",
"328 -191 OFFCURVE",
"278 -208 OFFCURVE",
"217 -208 CURVE SMOOTH",
"212 -208 OFFCURVE",
"206 -208 OFFCURVE",
"201 -207 CURVE",
"201 -246 LINE",
"221 -249 OFFCURVE",
"235 -250 OFFCURVE",
"259 -250 CURVE SMOOTH"
);
}
);
width = 658;
}
);
leftKerningGroup = S;
note = Scedilla;
rightKerningGroup = S;
unicode = 015E;
},
{
glyphname = Scircumflex;
lastChange = "2015-12-01 13:13:40 +0000";
layers = (
{
layerId = "48F9CBD8-FA9F-4F3E-B644-8148CA6A9069";
name = Bold;
paths = (
{
closed = 1;
nodes = (
"492 -10 OFFCURVE",
"620 48 OFFCURVE",
"620 198 CURVE SMOOTH",
"620 475 OFFCURVE",
"236 392 OFFCURVE",
"236 555 CURVE SMOOTH",
"236 619 OFFCURVE",
"305 645 OFFCURVE",
"358 645 CURVE SMOOTH",
"440 645 OFFCURVE",
"524 606 OFFCURVE",
"539 492 CURVE",
"591 492 LINE",
"591 705 LINE",
"531 705 LINE",
"531 665 LINE SMOOTH",
"531 660 OFFCURVE",
"531 652 OFFCURVE",
"524 652 CURVE SMOOTH",
"517 652 OFFCURVE",
"510 658 OFFCURVE",
"505 661 CURVE SMOOTH",
"463 688 OFFCURVE",
"414 710 OFFCURVE",
"314 710 CURVE SMOOTH",
"151 710 OFFCURVE",
"46 649 OFFCURVE",
"46 524 CURVE SMOOTH",
"46 269 OFFCURVE",
"431 338 OFFCURVE",
"431 166 CURVE SMOOTH",
"431 82 OFFCURVE",
"362 55 OFFCURVE",
"286 55 CURVE SMOOTH",
"204 55 OFFCURVE",
"105 95 OFFCURVE",
"90 209 CURVE",
"38 209 LINE",
"38 -4 LINE",
"97 -4 LINE",
"97 41 LINE SMOOTH",
"97 46 OFFCURVE",
"101 50 OFFCURVE",
"104 50 CURVE SMOOTH",
"107 50 OFFCURVE",
"110 50 OFFCURVE",
"116 47 CURVE",
"160 21 OFFCURVE",
"212 -10 OFFCURVE",
"331 -10 CURVE SMOOTH"
);
},
{
closed = 1;
nodes = (
"287 876 LINE",
"302 888 OFFCURVE",
"316 895 OFFCURVE",
"327 895 CURVE SMOOTH",
"338 895 OFFCURVE",
"352 888 OFFCURVE",
"367 876 CURVE SMOOTH",
"501 776 LINE",
"529 804 LINE",
"371 978 LINE",
"283 978 LINE",
"125 804 LINE",
"152 776 LINE"
);
}
);
width = 658;
}
);
leftKerningGroup = S;
note = Scircumflex;
rightKerningGroup = S;
unicode = 015C;
},
{
glyphname = Scommaaccent;
lastChange = "2015-12-01 13:13:41 +0000";
layers = (
{
layerId = "48F9CBD8-FA9F-4F3E-B644-8148CA6A9069";
name = Bold;
paths = (
{
closed = 1;
nodes = (
"492 -10 OFFCURVE",
"620 48 OFFCURVE",
"620 198 CURVE SMOOTH",
"620 475 OFFCURVE",
"236 392 OFFCURVE",
"236 555 CURVE SMOOTH",
"236 619 OFFCURVE",
"305 645 OFFCURVE",
"358 645 CURVE SMOOTH",
"440 645 OFFCURVE",
"524 606 OFFCURVE",
"539 492 CURVE",
"591 492 LINE",
"591 705 LINE",
"531 705 LINE",
"531 665 LINE SMOOTH",
"531 660 OFFCURVE",
"531 652 OFFCURVE",
"524 652 CURVE SMOOTH",
"517 652 OFFCURVE",
"510 658 OFFCURVE",
"505 661 CURVE SMOOTH",
"463 688 OFFCURVE",
"414 710 OFFCURVE",
"314 710 CURVE SMOOTH",
"151 710 OFFCURVE",
"46 649 OFFCURVE",
"46 524 CURVE SMOOTH",
"46 269 OFFCURVE",
"431 338 OFFCURVE",
"431 166 CURVE SMOOTH",
"431 82 OFFCURVE",
"362 55 OFFCURVE",
"286 55 CURVE SMOOTH",
"204 55 OFFCURVE",
"105 95 OFFCURVE",
"90 209 CURVE",
"38 209 LINE",
"38 -4 LINE",
"97 -4 LINE",
"97 41 LINE SMOOTH",
"97 46 OFFCURVE",
"101 50 OFFCURVE",
"104 50 CURVE SMOOTH",
"107 50 OFFCURVE",
"110 50 OFFCURVE",
"116 47 CURVE",
"160 21 OFFCURVE",
"212 -10 OFFCURVE",
"331 -10 CURVE SMOOTH"
);
},
{
closed = 1;
nodes = (
"327 -307 OFFCURVE",
"408 -230 OFFCURVE",
"408 -147 CURVE SMOOTH",
"408 -82 OFFCURVE",
"371 -45 OFFCURVE",
"324 -45 CURVE SMOOTH",
"279 -45 OFFCURVE",
"251 -76 OFFCURVE",
"251 -109 CURVE SMOOTH",
"251 -152 OFFCURVE",
"295 -170 OFFCURVE",
"295 -213 CURVE SMOOTH",
"295 -257 OFFCURVE",
"270 -297 OFFCURVE",
"236 -332 CURVE",
"264 -357 LINE"
);
}
);
width = 658;
}
);
leftKerningGroup = S;
note = Scommaaccent;
rightKerningGroup = S;
unicode = 0218;
},
{
glyphname = Sdotaccent;
lastChange = "2015-12-01 13:13:41 +0000";
layers = (
{
layerId = "48F9CBD8-FA9F-4F3E-B644-8148CA6A9069";
name = Bold;
paths = (
{
closed = 1;
nodes = (
"492 -10 OFFCURVE",
"620 48 OFFCURVE",
"620 198 CURVE SMOOTH",
"620 475 OFFCURVE",
"236 392 OFFCURVE",
"236 555 CURVE SMOOTH",
"236 619 OFFCURVE",
"305 645 OFFCURVE",
"358 645 CURVE SMOOTH",
"440 645 OFFCURVE",
"524 606 OFFCURVE",
"539 492 CURVE",
"591 492 LINE",
"591 705 LINE",
"531 705 LINE",
"531 665 LINE SMOOTH",
"531 660 OFFCURVE",
"531 652 OFFCURVE",
"524 652 CURVE SMOOTH",
"517 652 OFFCURVE",
"510 658 OFFCURVE",
"505 661 CURVE SMOOTH",
"463 688 OFFCURVE",
"414 710 OFFCURVE",
"314 710 CURVE SMOOTH",
"151 710 OFFCURVE",
"46 649 OFFCURVE",
"46 524 CURVE SMOOTH",
"46 269 OFFCURVE",
"431 338 OFFCURVE",
"431 166 CURVE SMOOTH",
"431 82 OFFCURVE",
"362 55 OFFCURVE",
"286 55 CURVE SMOOTH",
"204 55 OFFCURVE",
"105 95 OFFCURVE",
"90 209 CURVE",
"38 209 LINE",
"38 -4 LINE",
"97 -4 LINE",
"97 41 LINE SMOOTH",
"97 46 OFFCURVE",
"101 50 OFFCURVE",
"104 50 CURVE SMOOTH",
"107 50 OFFCURVE",
"110 50 OFFCURVE",
"116 47 CURVE",
"160 21 OFFCURVE",
"212 -10 OFFCURVE",
"331 -10 CURVE SMOOTH"
);
},
{
closed = 1;
nodes = (
"386 776 OFFCURVE",
"413 806 OFFCURVE",
"413 845 CURVE SMOOTH",
"413 884 OFFCURVE",
"386 915 OFFCURVE",
"343 915 CURVE SMOOTH",
"300 915 OFFCURVE",
"274 884 OFFCURVE",
"274 845 CURVE SMOOTH",
"274 806 OFFCURVE",
"300 776 OFFCURVE",
"343 776 CURVE SMOOTH"
);
}
);
width = 658;
}
);
leftKerningGroup = S;
note = Sdotaccent;
rightKerningGroup = S;
unicode = 1E60;
},
{
glyphname = Sdotbelow;
lastChange = "2015-12-01 13:13:43 +0000";
layers = (
{
layerId = "48F9CBD8-FA9F-4F3E-B644-8148CA6A9069";
name = Bold;
paths = (
{
closed = 1;
nodes = (
"492 -10 OFFCURVE",
"620 48 OFFCURVE",
"620 198 CURVE SMOOTH",
"620 475 OFFCURVE",
"236 392 OFFCURVE",
"236 555 CURVE SMOOTH",
"236 619 OFFCURVE",
"305 645 OFFCURVE",
"358 645 CURVE SMOOTH",
"440 645 OFFCURVE",
"524 606 OFFCURVE",
"539 492 CURVE",
"591 492 LINE",
"591 705 LINE",
"531 705 LINE",
"531 665 LINE SMOOTH",
"531 660 OFFCURVE",
"531 652 OFFCURVE",
"524 652 CURVE SMOOTH",
"517 652 OFFCURVE",
"510 658 OFFCURVE",
"505 661 CURVE SMOOTH",
"463 688 OFFCURVE",
"414 710 OFFCURVE",
"314 710 CURVE SMOOTH",
"151 710 OFFCURVE",
"46 649 OFFCURVE",
"46 524 CURVE SMOOTH",
"46 269 OFFCURVE",
"431 338 OFFCURVE",
"431 166 CURVE SMOOTH",
"431 82 OFFCURVE",
"362 55 OFFCURVE",
"286 55 CURVE SMOOTH",
"204 55 OFFCURVE",
"105 95 OFFCURVE",
"90 209 CURVE",
"38 209 LINE",
"38 -4 LINE",
"97 -4 LINE",
"97 41 LINE SMOOTH",
"97 46 OFFCURVE",
"101 50 OFFCURVE",
"104 50 CURVE SMOOTH",
"107 50 OFFCURVE",
"110 50 OFFCURVE",
"116 47 CURVE",
"160 21 OFFCURVE",
"212 -10 OFFCURVE",
"331 -10 CURVE SMOOTH"
);
},
{
closed = 1;
nodes = (
"374 -205 OFFCURVE",
"401 -174 OFFCURVE",
"401 -135 CURVE SMOOTH",
"401 -96 OFFCURVE",
"374 -64 OFFCURVE",
"331 -64 CURVE SMOOTH",
"288 -64 OFFCURVE",
"261 -96 OFFCURVE",
"261 -135 CURVE SMOOTH",
"261 -174 OFFCURVE",
"288 -205 OFFCURVE",
"331 -205 CURVE SMOOTH"
);
}
);
width = 658;
}
);
leftKerningGroup = S;
note = Sdotbelow;
rightKerningGroup = S;
unicode = 1E62;
},
{
glyphname = Germandbls;
lastChange = "2015-12-01 13:13:37 +0000";
layers = (
{
layerId = "48F9CBD8-FA9F-4F3E-B644-8148CA6A9069";
name = Bold;
paths = (
{
closed = 1;
nodes = (
"688 -10 OFFCURVE",
"756 91 OFFCURVE",
"756 209 CURVE SMOOTH",
"756 311 OFFCURVE",
"686 381 OFFCURVE",
"534 404 CURVE",
"674 549 LINE",
"650 625 OFFCURVE",
"556 710 OFFCURVE",
"393 710 CURVE SMOOTH",
"190 710 OFFCURVE",
"95 627 OFFCURVE",
"95 487 CURVE SMOOTH",
"95 83 LINE SMOOTH",
"95 57 OFFCURVE",
"78 44 OFFCURVE",
"40 44 CURVE SMOOTH",
"9 44 LINE",
"9 0 LINE",
"291 0 LINE",
"291 53 LINE",
"282 68 OFFCURVE",
"278 89 OFFCURVE",
"278 111 CURVE SMOOTH",
"278 532 LINE SMOOTH",
"278 606 OFFCURVE",
"317 646 OFFCURVE",
"384 646 CURVE SMOOTH",
"455 646 OFFCURVE",
"486 601 OFFCURVE",
"497 549 CURVE",
"343 382 LINE",
"343 349 LINE",
"448 349 LINE SMOOTH",
"531 349 OFFCURVE",
"574 291 OFFCURVE",
"574 209 CURVE SMOOTH",
"574 116 OFFCURVE",
"533 52 OFFCURVE",
"461 52 CURVE SMOOTH",
"428 52 OFFCURVE",
"391 57 OFFCURVE",
"355 67 CURVE",
"355 3 LINE",
"388 -6 OFFCURVE",
"426 -10 OFFCURVE",
"465 -10 CURVE SMOOTH"
);
}
);
width = 789;
}
);
note = uni1E9E;
unicode = 1E9E;
},
{
glyphname = Schwa;
lastChange = "2015-12-01 13:13:37 +0000";
layers = (
{
layerId = "48F9CBD8-FA9F-4F3E-B644-8148CA6A9069";
name = Bold;
paths = (
{
closed = 1;
nodes = (
"614 -10 OFFCURVE",
"720 134 OFFCURVE",
"720 349 CURVE SMOOTH",
"720 584 OFFCURVE",
"588 710 OFFCURVE",
"358 710 CURVE SMOOTH",
"156 710 OFFCURVE",
"46 594 OFFCURVE",
"31 454 CURVE",
"96 454 LINE",
"122 580 OFFCURVE",
"202 628 OFFCURVE",
"318 628 CURVE SMOOTH",
"462 628 OFFCURVE",
"530 502 OFFCURVE",
"530 349 CURVE SMOOTH",
"530 204 OFFCURVE",
"481 76 OFFCURVE",
"365 76 CURVE SMOOTH",
"251 76 OFFCURVE",
"220 194 OFFCURVE",
"220 253 CURVE",
"559 253 LINE",
"559 337 LINE",
"29 337 LINE",
"29 293 LINE SMOOTH",
"29 126 OFFCURVE",
"121 -10 OFFCURVE",
"365 -10 CURVE SMOOTH"
);
}
);
width = 750;
}
);
note = uni018F;
unicode = 018F;
},
{
glyphname = T;
lastChange = "2015-12-01 13:13:37 +0000";
layers = (
{
layerId = "48F9CBD8-FA9F-4F3E-B644-8148CA6A9069";
name = Bold;
paths = (
{
closed = 1;
nodes = (
"548 0 LINE",
"548 44 LINE",
"516 44 LINE SMOOTH",
"478 44 OFFCURVE",
"461 57 OFFCURVE",
"461 83 CURVE SMOOTH",
"461 637 LINE",
"590 637 LINE SMOOTH",
"653 637 OFFCURVE",
"667 492 OFFCURVE",
"668 458 CURVE",
"713 458 LINE",
"713 700 LINE",
"24 700 LINE",
"24 458 LINE",
"69 458 LINE",
"69 492 OFFCURVE",
"83 637 OFFCURVE",
"147 637 CURVE SMOOTH",
"275 637 LINE",
"275 83 LINE SMOOTH",
"275 57 OFFCURVE",
"259 44 OFFCURVE",
"220 44 CURVE SMOOTH",
"189 44 LINE",
"189 0 LINE"
);
}
);
width = 737;
}
);
leftKerningGroup = T;
note = T;
rightKerningGroup = T;
unicode = 0054;
},
{
glyphname = Tbar;
lastChange = "2015-12-01 13:13:42 +0000";
layers = (
{
layerId = "48F9CBD8-FA9F-4F3E-B644-8148CA6A9069";
name = Bold;
paths = (
{
closed = 1;
nodes = (
"548 0 LINE",
"548 44 LINE",
"516 44 LINE SMOOTH",
"478 44 OFFCURVE",
"461 57 OFFCURVE",
"461 83 CURVE SMOOTH",
"461 637 LINE",
"590 637 LINE SMOOTH",
"653 637 OFFCURVE",
"667 492 OFFCURVE",
"668 458 CURVE",
"713 458 LINE",
"713 700 LINE",
"24 700 LINE",
"24 458 LINE",
"69 458 LINE",
"69 492 OFFCURVE",
"83 637 OFFCURVE",
"147 637 CURVE SMOOTH",
"275 637 LINE",
"275 83 LINE SMOOTH",
"275 57 OFFCURVE",
"259 44 OFFCURVE",
"220 44 CURVE SMOOTH",
"189 44 LINE",
"189 0 LINE"
);
},
{
closed = 1;
nodes = (
"600 277 LINE",
"600 355 LINE",
"142 355 LINE",
"142 277 LINE"
);
}
);
width = 737;
}
);
leftKerningGroup = T;
note = Tbar;
rightKerningGroup = T;
unicode = 0166;
},
{
glyphname = Tcaron;
lastChange = "2015-12-01 13:13:42 +0000";
layers = (
{
layerId = "48F9CBD8-FA9F-4F3E-B644-8148CA6A9069";
name = Bold;
paths = (
{
closed = 1;
nodes = (
"548 0 LINE",
"548 44 LINE",
"516 44 LINE SMOOTH",
"478 44 OFFCURVE",
"461 57 OFFCURVE",
"461 83 CURVE SMOOTH",
"461 637 LINE",
"590 637 LINE SMOOTH",
"653 637 OFFCURVE",
"667 492 OFFCURVE",
"668 458 CURVE",
"713 458 LINE",
"713 700 LINE",
"24 700 LINE",
"24 458 LINE",
"69 458 LINE",
"69 492 OFFCURVE",
"83 637 OFFCURVE",
"147 637 CURVE SMOOTH",
"275 637 LINE",
"275 83 LINE SMOOTH",
"275 57 OFFCURVE",
"259 44 OFFCURVE",
"220 44 CURVE SMOOTH",
"189 44 LINE",
"189 0 LINE"
);
},
{
closed = 1;
nodes = (
"412 776 LINE",
"570 950 LINE",
"542 978 LINE",
"408 878 LINE SMOOTH",
"393 866 OFFCURVE",
"379 859 OFFCURVE",
"368 859 CURVE SMOOTH",
"357 859 OFFCURVE",
"343 866 OFFCURVE",
"328 878 CURVE",
"193 978 LINE",
"166 950 LINE",
"324 776 LINE"
);
}
);
width = 737;
}
);
leftKerningGroup = T;
note = Tcaron;
rightKerningGroup = T;
unicode = 0164;
},
{
glyphname = Tcedilla;
lastChange = "2015-12-01 13:13:41 +0000";
layers = (
{
layerId = "48F9CBD8-FA9F-4F3E-B644-8148CA6A9069";
name = Bold;
paths = (
{
closed = 1;
nodes = (
"548 0 LINE",
"548 44 LINE",
"516 44 LINE SMOOTH",
"478 44 OFFCURVE",
"461 57 OFFCURVE",
"461 83 CURVE SMOOTH",
"461 637 LINE",
"590 637 LINE SMOOTH",
"653 637 OFFCURVE",
"667 492 OFFCURVE",
"668 458 CURVE",
"713 458 LINE",
"713 700 LINE",
"24 700 LINE",
"24 458 LINE",
"69 458 LINE",
"69 492 OFFCURVE",
"83 637 OFFCURVE",
"147 637 CURVE SMOOTH",
"275 637 LINE",
"275 83 LINE SMOOTH",
"275 57 OFFCURVE",
"259 44 OFFCURVE",
"220 44 CURVE SMOOTH",
"189 44 LINE",
"189 0 LINE"
);
},
{
closed = 1;
nodes = (
"363 -250 OFFCURVE",
"484 -240 OFFCURVE",
"484 -133 CURVE SMOOTH",
"484 -61 OFFCURVE",
"403 -40 OFFCURVE",
"367 -36 CURVE",
"411 32 LINE",
"347 32 LINE",
"279 -74 LINE",
"287 -86 LINE",
"309 -87 OFFCURVE",
"373 -98 OFFCURVE",
"373 -142 CURVE SMOOTH",
"373 -191 OFFCURVE",
"323 -208 OFFCURVE",
"262 -208 CURVE SMOOTH",
"257 -208 OFFCURVE",
"251 -208 OFFCURVE",
"246 -207 CURVE",
"246 -246 LINE",
"266 -249 OFFCURVE",
"280 -250 OFFCURVE",
"304 -250 CURVE SMOOTH"
);
}
);
width = 737;
}
);
leftKerningGroup = T;
note = Tcedilla;
rightKerningGroup = T;
unicode = 0162;
},
